ply
format ascii 1.0
comment Created by Blender 2.75 (sub 0) - www.blender.org, source file: ''
element vertex 24
property float x
property float y
property float z
property float nx
property float ny
property float nz
element face 12
property list uchar uint vertex_indices
end_header
-0.025470 0.035060 0.234386 -1.000000 0.000000 0.000000
-0.025470 0.035060 -0.265614 -1.000000 0.000000 0.000000
-0.025470 -0.014940 -0.265614 -1.000000 0.000000 0.000000
0.024530 0.035060 0.234386 0.000000 1.000000 0.000000
0.024530 0.035060 -0.265614 0.000000 1.000000 0.000000
-0.025470 0.035060 -0.265614 0.000000 1.000000 0.000000
0.024530 -0.014940 0.234386 1.000000 0.000000 -0.000000
0.024530 -0.014940 -0.265614 1.000000 0.000000 -0.000000
0.024530 0.035060 -0.265614 1.000000 0.000000 -0.000000
-0.025470 -0.014940 0.234386 0.000000 -1.000000 0.000000
-0.025470 -0.014940 -0.265614 0.000000 -1.000000 0.000000
0.024530 -0.014940 -0.265614 0.000000 -1.000000 0.000000
-0.025470 0.035060 -0.265614 0.000000 0.000000 -1.000000
0.024530 0.035060 -0.265614 0.000000 0.000000 -1.000000
0.024530 -0.014940 -0.265614 0.000000 0.000000 -1.000000
0.024530 0.035060 0.234386 0.000000 0.000000 1.000000
-0.025470 0.035060 0.234386 0.000000 0.000000 1.000000
-0.025470 -0.014940 0.234386 0.000000 0.000000 1.000000
-0.025470 -0.014940 0.234386 -1.000000 0.000000 0.000000
-0.025470 0.035060 0.234386 0.000000 1.000000 -0.000000
0.024530 0.035060 0.234386 1.000000 0.000000 -0.000000
0.024530 -0.014940 0.234386 0.000000 -1.000000 0.000000
-0.025470 -0.014940 -0.265614 -0.000000 -0.000000 -1.000000
0.024530 -0.014940 0.234386 -0.000000 0.000000 1.000000
3 0 1 2
3 3 4 5
3 6 7 8
3 9 10 11
3 12 13 14
3 15 16 17
3 18 0 2
3 19 3 5
3 20 6 8
3 21 9 11
3 22 12 14
3 23 15 17
