ply
format ascii 1.0
comment Created by Blender 2.71 (sub 0) - www.blender.org, source file: ''
element vertex 47
property float x
property float y
property float z
property float nx
property float ny
property float nz
element face 22
property list uchar uint vertex_indices
end_header
0.100000 -0.100000 -0.100000 0.000000 -0.000000 -1.000000
-0.100000 -0.100000 -0.100000 0.000000 -0.000000 -1.000000
-0.100000 0.100000 -0.100000 0.000000 -0.000000 -1.000000
-0.100000 0.000000 0.100000 0.857279 -0.000000 0.514852
-0.100000 -0.100000 0.100000 0.857279 -0.000000 0.514852
-0.000000 -0.000000 -0.066510 0.857279 -0.000000 0.514852
0.100000 -0.100000 0.100000 1.000000 -0.000001 0.000000
0.100000 -0.100000 -0.100000 1.000000 -0.000001 0.000000
0.100000 -0.000000 0.100000 1.000000 -0.000001 0.000000
-0.100000 -0.100000 0.100000 -0.000001 -1.000000 0.000000
-0.100000 -0.100000 -0.100000 -0.000001 -1.000000 0.000000
-0.000000 -0.100000 0.100000 -0.000001 -1.000000 0.000000
-0.100000 0.100000 0.100000 -1.000000 0.000000 -0.000000
-0.100000 0.100000 -0.100000 -1.000000 0.000000 -0.000000
-0.100000 0.000000 0.100000 -1.000000 0.000000 -0.000000
-0.100000 0.100000 0.100000 0.000000 1.000000 0.000000
0.000000 0.100000 0.100000 0.000000 1.000000 0.000000
-0.100000 0.100000 -0.100000 0.000000 1.000000 0.000000
0.100000 -0.000000 0.100000 -0.857279 0.000000 0.514852
-0.000000 -0.000000 -0.066510 -0.857279 0.000000 0.514852
0.100000 -0.100000 0.100000 -0.857279 0.000000 0.514852
0.000000 0.100000 0.100000 -0.000000 -0.857279 0.514852
-0.000000 -0.000000 -0.066510 -0.000000 -0.857279 0.514852
0.100000 0.100000 0.100000 -0.000000 -0.857279 0.514852
-0.100000 0.100000 0.100000 0.857279 -0.000000 0.514852
0.100000 0.100000 -0.100000 0.000000 0.000000 -1.000000
0.100000 0.100000 0.100000 1.000000 -0.000001 -0.000000
0.100000 0.100000 -0.100000 1.000000 -0.000001 -0.000000
0.100000 -0.100000 0.100000 -0.000000 -1.000000 -0.000000
-0.000000 -0.100000 0.100000 -0.000000 -1.000000 -0.000000
0.100000 -0.100000 -0.100000 -0.000000 -1.000000 -0.000000
0.100000 -0.000000 0.100000 1.000000 0.000000 0.000000
0.100000 -0.100000 -0.100000 1.000000 0.000000 0.000000
0.100000 0.100000 -0.100000 1.000000 0.000000 0.000000
-0.100000 -0.100000 0.100000 -1.000000 0.000000 -0.000000
-0.100000 -0.100000 -0.100000 -1.000000 0.000000 -0.000000
-0.100000 -0.100000 -0.100000 -0.000000 -1.000000 -0.000000
0.100000 0.100000 0.100000 0.000000 1.000000 0.000000
0.100000 0.100000 -0.100000 0.000000 1.000000 0.000000
-0.100000 -0.100000 0.100000 0.000000 0.857279 0.514852
-0.000000 -0.100000 0.100000 0.000000 0.857279 0.514852
-0.000000 -0.000000 -0.066510 0.000000 0.857279 0.514852
0.100000 -0.100000 0.100000 0.000000 0.857279 0.514852
-0.100000 0.100000 0.100000 -0.000000 -0.857279 0.514852
-0.000000 -0.000000 -0.066510 -0.857279 0.000001 0.514852
0.100000 -0.000000 0.100000 -0.857279 0.000001 0.514852
0.100000 0.100000 0.100000 -0.857279 0.000001 0.514852
3 0 1 2
3 3 4 5
3 6 7 8
3 9 10 11
3 12 13 14
3 15 16 17
3 18 19 20
3 21 22 23
3 24 3 5
3 25 0 2
3 26 8 27
3 28 29 30
3 31 32 33
3 34 14 35
3 29 36 30
3 16 37 38
3 14 13 35
3 39 40 41
3 41 40 42
3 16 38 17
3 21 43 22
3 44 45 46
