ply
format ascii 1.0
comment Created by Blender 2.69 (sub 0) - www.blender.org, source file: ''
element vertex 642
property float x
property float y
property float z
element face 1280
property list uchar uint vertex_indices
end_header
0.000000 0.000000 -0.050000
0.004824 -0.003504 -0.049643
-0.001842 -0.005670 -0.049643
0.036180 -0.026286 -0.022361
0.033765 -0.024531 -0.027534
0.038589 -0.021027 -0.023849
-0.005962 0.000000 -0.049643
-0.001842 0.005670 -0.049643
0.004824 0.003504 -0.049643
0.039727 -0.024531 -0.017887
-0.013819 -0.042532 -0.022361
-0.008073 -0.043198 -0.023849
-0.011054 -0.045364 -0.017887
-0.044721 0.000000 -0.022361
-0.043578 -0.005670 -0.023849
-0.046559 -0.003504 -0.017887
-0.013819 0.042532 -0.022361
-0.018859 0.039693 -0.023849
-0.017720 0.043198 -0.017887
0.036180 0.026286 -0.022361
0.031923 0.030202 -0.023849
0.035608 0.030202 -0.017887
0.035608 -0.030202 -0.017887
-0.017720 -0.043198 -0.017887
-0.046559 0.003504 -0.017887
-0.011054 0.045364 -0.017887
0.039727 0.024531 -0.017887
0.013819 -0.042532 0.022361
0.018859 -0.039693 0.023849
0.012897 -0.039693 0.027534
-0.036180 -0.026286 0.022361
-0.031923 -0.030202 0.023849
-0.033765 -0.024531 0.027534
-0.036180 0.026286 0.022361
-0.038589 0.021027 0.023849
-0.033765 0.024531 0.027534
0.013819 0.042532 0.022361
0.008073 0.043198 0.023849
0.012897 0.039693 0.027534
0.044721 0.000000 0.022361
0.043578 0.005670 0.023849
0.041736 0.000000 0.027534
-0.012897 -0.039693 -0.027534
-0.011641 -0.035828 -0.032876
-0.006634 -0.039956 -0.029317
-0.010034 -0.030883 -0.038020
-0.004896 -0.035539 -0.034828
-0.008123 -0.025000 -0.042533
-0.002912 -0.029955 -0.039928
-0.006021 -0.018530 -0.046048
-0.000805 -0.023468 -0.044143
-0.003880 -0.011943 -0.048397
0.001270 -0.016561 -0.047160
0.003174 -0.009769 -0.048934
-0.001482 -0.043209 -0.025115
0.000485 -0.039449 -0.030717
0.005728 -0.042336 -0.025979
0.002640 -0.034409 -0.036181
0.008123 -0.037973 -0.031497
0.013143 -0.040451 -0.026287
0.004839 -0.028212 -0.040996
0.010504 -0.032329 -0.036668
0.015749 -0.035495 -0.031497
0.020250 -0.037617 -0.025979
0.006910 -0.021266 -0.044721
0.012668 -0.025668 -0.040996
0.018090 -0.029389 -0.036181
0.022795 -0.032200 -0.030717
0.026597 -0.034086 -0.025115
0.008707 -0.014145 -0.047160
0.014446 -0.018513 -0.044143
0.019964 -0.022522 -0.039928
0.024851 -0.025874 -0.034828
0.028853 -0.028426 -0.029317
0.031923 -0.030202 -0.023849
0.010159 -0.007381 -0.048397
0.015763 -0.011452 -0.046048
0.021266 -0.015451 -0.042533
0.026271 -0.019087 -0.038020
0.030477 -0.022143 -0.032876
0.038589 0.021027 -0.023849
0.033765 0.024531 -0.027534
0.040636 0.014762 -0.025115
0.035951 0.018657 -0.029317
0.042034 0.007635 -0.025979
0.037668 0.011729 -0.030717
0.042532 -0.000000 -0.026287
0.038625 0.004009 -0.031497
0.042034 -0.007635 -0.025979
0.038625 -0.004009 -0.031497
0.040636 -0.014762 -0.025115
0.037668 -0.011729 -0.030717
0.035951 -0.018657 -0.029317
0.030477 0.022143 -0.032876
0.032287 0.015638 -0.034828
0.026271 0.019087 -0.038020
0.033541 0.008123 -0.036181
0.027589 0.012027 -0.039928
0.021266 0.015451 -0.042533
0.033992 -0.000000 -0.036668
0.028327 0.004116 -0.040996
0.022071 0.008018 -0.044143
0.015763 0.011452 -0.046048
0.033541 -0.008123 -0.036180
0.028327 -0.004116 -0.040996
0.022361 -0.000000 -0.044721
0.016143 0.003910 -0.047160
0.010159 0.007381 -0.048397
0.032287 -0.015638 -0.034828
0.027589 -0.012027 -0.039927
0.022071 -0.008018 -0.044143
0.016143 -0.003910 -0.047160
0.010272 -0.000000 -0.048934
-0.041736 0.000000 -0.027534
-0.037672 0.000000 -0.032876
-0.040051 -0.006037 -0.029317
-0.032473 0.000000 -0.038020
-0.035313 -0.006326 -0.034828
-0.026286 0.000000 -0.042533
-0.029389 -0.006487 -0.039927
-0.019484 0.000000 -0.046048
-0.022569 -0.006487 -0.044143
-0.012557 0.000000 -0.048397
-0.015358 -0.006326 -0.047160
-0.008310 -0.006038 -0.048934
-0.041553 -0.011943 -0.025115
-0.037368 -0.012652 -0.030717
-0.038494 -0.018530 -0.025979
-0.031910 -0.013143 -0.036180
-0.033604 -0.019460 -0.031497
-0.034409 -0.025000 -0.026287
-0.025336 -0.013320 -0.040996
-0.027500 -0.019980 -0.036668
-0.028892 -0.025946 -0.031497
-0.029518 -0.030883 -0.025979
-0.018090 -0.013143 -0.044721
-0.020498 -0.019980 -0.040996
-0.022361 -0.026286 -0.036181
-0.023580 -0.031630 -0.030717
-0.024199 -0.035828 -0.025115
-0.010762 -0.012652 -0.047160
-0.013143 -0.019460 -0.044143
-0.015251 -0.025946 -0.039928
-0.016928 -0.031630 -0.034828
-0.018118 -0.036225 -0.029317
-0.018859 -0.039693 -0.023849
-0.012897 0.039693 -0.027534
-0.011641 0.035828 -0.032876
-0.018118 0.036225 -0.029317
-0.010034 0.030883 -0.038020
-0.016928 0.031630 -0.034828
-0.008123 0.025000 -0.042533
-0.015251 0.025946 -0.039928
-0.006021 0.018530 -0.046048
-0.013143 0.019460 -0.044143
-0.003880 0.011943 -0.048397
-0.010762 0.012652 -0.047160
-0.008310 0.006037 -0.048934
-0.024199 0.035828 -0.025115
-0.023580 0.031630 -0.030717
-0.029518 0.030883 -0.025979
-0.022361 0.026286 -0.036181
-0.028892 0.025946 -0.031497
-0.034409 0.025000 -0.026287
-0.020498 0.019980 -0.040996
-0.027500 0.019980 -0.036668
-0.033604 0.019460 -0.031497
-0.038494 0.018530 -0.025979
-0.018090 0.013143 -0.044721
-0.025336 0.013320 -0.040996
-0.031910 0.013143 -0.036180
-0.037368 0.012652 -0.030717
-0.041553 0.011943 -0.025115
-0.015358 0.006326 -0.047160
-0.022569 0.006487 -0.044143
-0.029389 0.006487 -0.039927
-0.035313 0.006326 -0.034828
-0.040051 0.006037 -0.029317
-0.043578 0.005670 -0.023849
0.028853 0.028426 -0.029317
0.024850 0.025874 -0.034828
0.019964 0.022522 -0.039928
0.014446 0.018513 -0.044143
0.008707 0.014145 -0.047160
0.003174 0.009769 -0.048934
0.026597 0.034086 -0.025115
0.022795 0.032200 -0.030717
0.020250 0.037617 -0.025979
0.018090 0.029389 -0.036181
0.015749 0.035495 -0.031497
0.013143 0.040451 -0.026287
0.012668 0.025669 -0.040996
0.010504 0.032329 -0.036668
0.008123 0.037973 -0.031497
0.005728 0.042336 -0.025979
0.006910 0.021266 -0.044721
0.004839 0.028212 -0.040996
0.002639 0.034409 -0.036181
0.000485 0.039449 -0.030717
-0.001482 0.043209 -0.025115
0.001270 0.016561 -0.047160
-0.000805 0.023469 -0.044143
-0.002913 0.029955 -0.039928
-0.004896 0.035539 -0.034828
-0.006634 0.039956 -0.029317
-0.008073 0.043198 -0.023849
0.046559 -0.003504 0.017887
0.046559 0.003504 0.017887
0.047831 -0.007381 0.012557
0.048361 0.000000 0.012697
0.048236 -0.011452 0.006495
0.049401 -0.003910 0.006652
0.047553 -0.015451 0.000000
0.049353 -0.008018 0.000000
0.045755 -0.019087 -0.006495
0.048050 -0.012027 -0.006820
0.043035 -0.022143 -0.012558
0.045590 -0.015638 -0.013303
0.042299 -0.018657 -0.019045
0.047831 0.007381 0.012557
0.049401 0.003910 0.006652
0.048236 0.011452 0.006495
0.050000 -0.000000 0.000000
0.049353 0.008018 -0.000000
0.047553 0.015451 -0.000000
0.049336 -0.004116 -0.007003
0.049336 0.004116 -0.007003
0.048050 0.012027 -0.006820
0.045755 0.019087 -0.006495
0.047361 -0.008123 -0.013820
0.047998 -0.000000 -0.014006
0.047361 0.008123 -0.013820
0.045590 0.015638 -0.013303
0.043035 0.022143 -0.012558
0.044320 -0.011729 -0.019955
0.045445 -0.004009 -0.020461
0.045445 0.004009 -0.020461
0.044320 0.011729 -0.019955
0.042299 0.018657 -0.019045
0.011054 -0.045364 0.017887
0.017720 -0.043198 0.017887
0.007761 -0.047771 0.012558
0.014944 -0.045994 0.012697
0.004014 -0.049414 0.006495
0.011547 -0.048191 0.006652
0.000000 -0.050000 0.000000
0.007625 -0.049415 0.000000
-0.004014 -0.049414 -0.006495
0.003410 -0.049415 -0.006821
-0.007761 -0.047771 -0.012558
-0.000785 -0.048191 -0.013303
-0.004673 -0.045994 -0.019045
0.021800 -0.043209 0.012558
0.018984 -0.045775 0.006652
0.025797 -0.042336 0.006495
0.015451 -0.047553 -0.000000
0.022876 -0.044460 -0.000000
0.029389 -0.040451 -0.000000
0.011331 -0.048193 -0.007003
0.019160 -0.045649 -0.007003
0.026287 -0.041982 -0.006821
0.032292 -0.037617 -0.006495
0.006910 -0.047553 -0.013820
0.014832 -0.045649 -0.014006
0.022361 -0.042532 -0.013820
0.028961 -0.038526 -0.013303
0.034358 -0.034086 -0.012558
0.002541 -0.045775 -0.019955
0.010231 -0.044460 -0.020462
0.017856 -0.041982 -0.020462
0.024851 -0.038526 -0.019955
0.030815 -0.034463 -0.019045
-0.039727 -0.024531 0.017887
-0.035608 -0.030202 0.017887
-0.043035 -0.022143 0.012558
-0.039125 -0.028426 0.012697
-0.045755 -0.019087 0.006495
-0.042264 -0.025874 0.006652
-0.047553 -0.015451 0.000000
-0.044640 -0.022522 0.000000
-0.048236 -0.011452 -0.006495
-0.045943 -0.018513 -0.006820
-0.047831 -0.007381 -0.012557
-0.046075 -0.014145 -0.013303
-0.045187 -0.009769 -0.019045
-0.034358 -0.034086 0.012558
-0.037668 -0.032200 0.006652
-0.032292 -0.037617 0.006495
-0.040451 -0.029389 -0.000000
-0.035215 -0.035495 -0.000000
-0.029389 -0.040451 -0.000000
-0.042333 -0.025669 -0.007003
-0.037494 -0.032329 -0.007003
-0.031804 -0.037973 -0.006821
-0.025797 -0.042336 -0.006495
-0.043090 -0.021266 -0.013820
-0.038831 -0.028213 -0.014006
-0.033541 -0.034410 -0.013820
-0.027691 -0.039449 -0.013303
-0.021800 -0.043209 -0.012558
-0.042750 -0.016562 -0.019955
-0.039122 -0.023469 -0.020461
-0.034409 -0.029955 -0.020461
-0.028961 -0.035539 -0.019955
-0.023254 -0.039957 -0.019045
-0.035608 0.030202 0.017887
-0.039727 0.024531 0.017887
-0.034358 0.034086 0.012558
-0.039125 0.028426 0.012697
-0.032292 0.037617 0.006495
-0.037668 0.032200 0.006652
-0.029389 0.040451 0.000000
-0.035215 0.035495 0.000000
-0.025797 0.042336 -0.006495
-0.031804 0.037973 -0.006821
-0.021800 0.043209 -0.012558
-0.027691 0.039449 -0.013303
-0.023254 0.039957 -0.019045
-0.043035 0.022143 0.012558
-0.042264 0.025874 0.006652
-0.045755 0.019087 0.006495
-0.040451 0.029389 0.000000
-0.044640 0.022522 -0.000000
-0.047553 0.015451 -0.000000
-0.037494 0.032329 -0.007003
-0.042333 0.025669 -0.007003
-0.045943 0.018513 -0.006820
-0.048236 0.011452 -0.006495
-0.033541 0.034410 -0.013820
-0.038831 0.028213 -0.014006
-0.043090 0.021266 -0.013820
-0.046075 0.014145 -0.013303
-0.047831 0.007381 -0.012557
-0.028961 0.035539 -0.019955
-0.034409 0.029955 -0.020461
-0.039122 0.023469 -0.020461
-0.042750 0.016562 -0.019955
-0.045187 0.009769 -0.019045
0.017720 0.043198 0.017887
0.011054 0.045364 0.017887
0.021800 0.043209 0.012558
0.014944 0.045994 0.012697
0.025797 0.042336 0.006495
0.018984 0.045775 0.006652
0.029389 0.040451 0.000000
0.022876 0.044460 0.000000
0.032292 0.037617 -0.006495
0.026287 0.041982 -0.006821
0.034358 0.034086 -0.012558
0.028961 0.038526 -0.013303
0.030815 0.034463 -0.019045
0.007761 0.047771 0.012558
0.011547 0.048191 0.006652
0.004014 0.049414 0.006495
0.015451 0.047553 0.000000
0.007625 0.049415 -0.000000
-0.000000 0.050000 -0.000000
0.019160 0.045649 -0.007003
0.011331 0.048193 -0.007003
0.003410 0.049415 -0.006821
-0.004014 0.049414 -0.006495
0.022361 0.042532 -0.013820
0.014832 0.045649 -0.014006
0.006910 0.047553 -0.013820
-0.000785 0.048191 -0.013303
-0.007761 0.047771 -0.012558
0.024851 0.038526 -0.019955
0.017856 0.041982 -0.020462
0.010231 0.044460 -0.020462
0.002541 0.045775 -0.019955
-0.004673 0.045994 -0.019045
0.023254 -0.039957 0.019045
0.027691 -0.039449 0.013303
0.031804 -0.037973 0.006820
0.035215 -0.035495 -0.000000
0.037668 -0.032200 -0.006652
0.039125 -0.028426 -0.012697
0.024199 -0.035828 0.025115
0.028961 -0.035539 0.019955
0.029518 -0.030883 0.025979
0.033541 -0.034409 0.013820
0.034410 -0.029955 0.020461
0.034409 -0.025000 0.026287
0.037494 -0.032329 0.007003
0.038831 -0.028213 0.014006
0.039122 -0.023469 0.020461
0.038494 -0.018530 0.025979
0.040451 -0.029389 -0.000000
0.042333 -0.025669 0.007003
0.043090 -0.021266 0.013820
0.042750 -0.016561 0.019955
0.041553 -0.011943 0.025115
0.042264 -0.025874 -0.006652
0.044640 -0.022522 -0.000000
0.045943 -0.018513 0.006820
0.046075 -0.014145 0.013303
0.045187 -0.009769 0.019045
0.043578 -0.005670 0.023849
-0.030815 -0.034463 0.019045
-0.028961 -0.038526 0.013303
-0.026287 -0.041982 0.006820
-0.022876 -0.044460 -0.000000
-0.018984 -0.045775 -0.006652
-0.014944 -0.045994 -0.012697
-0.026597 -0.034086 0.025115
-0.024851 -0.038526 0.019955
-0.020250 -0.037617 0.025979
-0.022361 -0.042532 0.013820
-0.017856 -0.041982 0.020461
-0.013143 -0.040451 0.026287
-0.019160 -0.045649 0.007003
-0.014832 -0.045649 0.014006
-0.010231 -0.044460 0.020461
-0.005728 -0.042336 0.025979
-0.015451 -0.047553 -0.000000
-0.011331 -0.048193 0.007003
-0.006910 -0.047553 0.013820
-0.002541 -0.045775 0.019955
0.001482 -0.043209 0.025115
-0.011547 -0.048191 -0.006652
-0.007625 -0.049415 -0.000000
-0.003410 -0.049415 0.006820
0.000785 -0.048191 0.013303
0.004673 -0.045994 0.019045
0.008073 -0.043198 0.023849
-0.042299 0.018657 0.019045
-0.045590 0.015638 0.013303
-0.048050 0.012027 0.006820
-0.049353 0.008018 0.000000
-0.049401 0.003910 -0.006652
-0.048361 -0.000000 -0.012697
-0.040636 0.014762 0.025115
-0.044320 0.011729 0.019955
-0.042034 0.007635 0.025979
-0.047361 0.008123 0.013820
-0.045445 0.004009 0.020461
-0.042532 0.000000 0.026287
-0.049336 0.004116 0.007003
-0.047998 -0.000000 0.014006
-0.045445 -0.004009 0.020461
-0.042034 -0.007635 0.025979
-0.050000 -0.000000 0.000000
-0.049336 -0.004116 0.007003
-0.047361 -0.008123 0.013820
-0.044320 -0.011729 0.019955
-0.040636 -0.014762 0.025115
-0.049401 -0.003910 -0.006652
-0.049353 -0.008018 0.000000
-0.048050 -0.012027 0.006821
-0.045590 -0.015638 0.013303
-0.042299 -0.018657 0.019045
-0.038589 -0.021027 0.023849
0.004673 0.045994 0.019045
0.000785 0.048191 0.013303
-0.003410 0.049415 0.006821
-0.007625 0.049415 -0.000000
-0.011547 0.048191 -0.006652
-0.014944 0.045994 -0.012697
0.001482 0.043209 0.025115
-0.002541 0.045775 0.019955
-0.005728 0.042336 0.025979
-0.006910 0.047553 0.013820
-0.010231 0.044460 0.020462
-0.013143 0.040451 0.026287
-0.011331 0.048193 0.007003
-0.014832 0.045649 0.014006
-0.017856 0.041982 0.020462
-0.020250 0.037617 0.025979
-0.015451 0.047553 -0.000000
-0.019160 0.045649 0.007003
-0.022361 0.042532 0.013820
-0.024851 0.038526 0.019955
-0.026597 0.034086 0.025115
-0.018984 0.045775 -0.006652
-0.022876 0.044460 -0.000000
-0.026287 0.041982 0.006821
-0.028961 0.038526 0.013303
-0.030815 0.034463 0.019045
-0.031923 0.030202 0.023849
0.045187 0.009769 0.019045
0.046075 0.014145 0.013303
0.045943 0.018513 0.006820
0.044640 0.022522 -0.000000
0.042265 0.025874 -0.006652
0.039125 0.028426 -0.012697
0.041553 0.011943 0.025115
0.042750 0.016561 0.019955
0.038494 0.018530 0.025979
0.043090 0.021266 0.013820
0.039122 0.023469 0.020461
0.034409 0.025000 0.026287
0.042333 0.025669 0.007003
0.038832 0.028213 0.014006
0.034410 0.029955 0.020461
0.029518 0.030883 0.025979
0.040451 0.029389 -0.000000
0.037494 0.032329 0.007003
0.033541 0.034409 0.013820
0.028961 0.035539 0.019955
0.024199 0.035828 0.025115
0.037668 0.032200 -0.006652
0.035215 0.035495 0.000000
0.031804 0.037973 0.006821
0.027691 0.039449 0.013303
0.023254 0.039957 0.019045
0.018859 0.039693 0.023849
0.001842 -0.005670 0.049643
0.005962 0.000000 0.049643
0.000000 0.000000 0.050000
0.003880 -0.011943 0.048397
0.008310 -0.006037 0.048934
0.006021 -0.018530 0.046048
0.010762 -0.012652 0.047160
0.008123 -0.025000 0.042533
0.013143 -0.019460 0.044143
0.010034 -0.030883 0.038020
0.015251 -0.025946 0.039928
0.011641 -0.035828 0.032876
0.016928 -0.031630 0.034828
0.018118 -0.036225 0.029317
0.012557 0.000000 0.048397
0.015358 -0.006326 0.047160
0.019484 0.000000 0.046048
0.018090 -0.013143 0.044721
0.022569 -0.006487 0.044143
0.026286 0.000000 0.042533
0.020498 -0.019980 0.040996
0.025336 -0.013320 0.040996
0.029389 -0.006487 0.039927
0.032473 0.000000 0.038020
0.022360 -0.026286 0.036181
0.027500 -0.019980 0.036668
0.031910 -0.013143 0.036181
0.035313 -0.006326 0.034828
0.037672 0.000000 0.032876
0.023580 -0.031630 0.030717
0.028892 -0.025946 0.031497
0.033604 -0.019460 0.031497
0.037368 -0.012652 0.030717
0.040051 -0.006038 0.029317
-0.004824 -0.003504 0.049643
-0.010159 -0.007381 0.048397
-0.003174 -0.009769 0.048934
-0.015763 -0.011452 0.046048
-0.008707 -0.014145 0.047160
-0.021266 -0.015451 0.042533
-0.014446 -0.018513 0.044143
-0.026271 -0.019087 0.038020
-0.019964 -0.022522 0.039928
-0.030477 -0.022143 0.032876
-0.024850 -0.025874 0.034828
-0.028853 -0.028426 0.029317
-0.001270 -0.016561 0.047160
-0.006910 -0.021266 0.044721
0.000805 -0.023468 0.044143
-0.012668 -0.025668 0.040996
-0.004839 -0.028212 0.040996
0.002912 -0.029955 0.039928
-0.018090 -0.029389 0.036181
-0.010504 -0.032329 0.036668
-0.002639 -0.034409 0.036181
0.004896 -0.035539 0.034828
-0.022795 -0.032200 0.030717
-0.015749 -0.035495 0.031497
-0.008123 -0.037973 0.031497
-0.000485 -0.039449 0.030717
0.006634 -0.039956 0.029317
-0.004824 0.003504 0.049643
-0.010159 0.007381 0.048397
-0.010272 0.000000 0.048934
-0.015763 0.011452 0.046048
-0.016143 0.003910 0.047160
-0.021266 0.015451 0.042533
-0.022071 0.008018 0.044143
-0.026271 0.019087 0.038020
-0.027589 0.012027 0.039928
-0.030477 0.022143 0.032876
-0.032287 0.015638 0.034828
-0.035951 0.018657 0.029317
-0.016143 -0.003910 0.047160
-0.022360 0.000000 0.044721
-0.022071 -0.008018 0.044143
-0.028327 0.004116 0.040996
-0.028327 -0.004116 0.040996
-0.027589 -0.012027 0.039928
-0.033541 0.008123 0.036181
-0.033992 0.000000 0.036668
-0.033541 -0.008123 0.036181
-0.032287 -0.015638 0.034828
-0.037668 0.011729 0.030717
-0.038625 0.004009 0.031497
-0.038625 -0.004009 0.031497
-0.037668 -0.011729 0.030717
-0.035951 -0.018657 0.029317
0.001842 0.005670 0.049643
0.003880 0.011943 0.048397
-0.003174 0.009769 0.048934
0.006021 0.018530 0.046048
-0.001270 0.016561 0.047160
0.008123 0.025000 0.042533
0.000805 0.023468 0.044143
0.010034 0.030883 0.038020
0.002912 0.029955 0.039928
0.011641 0.035828 0.032876
0.004896 0.035539 0.034828
0.006634 0.039956 0.029317
-0.008707 0.014145 0.047160
-0.006910 0.021266 0.044721
-0.014446 0.018513 0.044143
-0.004839 0.028212 0.040996
-0.012668 0.025668 0.040996
-0.019964 0.022522 0.039928
-0.002639 0.034409 0.036181
-0.010504 0.032329 0.036668
-0.018090 0.029389 0.036181
-0.024850 0.025874 0.034828
-0.000485 0.039449 0.030717
-0.008123 0.037973 0.031497
-0.015749 0.035495 0.031497
-0.022795 0.032200 0.030717
-0.028853 0.028426 0.029317
0.008310 0.006037 0.048934
0.015358 0.006326 0.047160
0.022569 0.006487 0.044143
0.029389 0.006487 0.039927
0.035313 0.006326 0.034828
0.040051 0.006038 0.029317
0.010762 0.012652 0.047160
0.018090 0.013143 0.044721
0.013143 0.019460 0.044143
0.025336 0.013320 0.040996
0.020498 0.019980 0.040996
0.015251 0.025946 0.039928
0.031910 0.013143 0.036181
0.027500 0.019980 0.036668
0.022360 0.026286 0.036181
0.016928 0.031630 0.034828
0.037368 0.012652 0.030717
0.033604 0.019460 0.031497
0.028892 0.025946 0.031497
0.023580 0.031630 0.030717
0.018118 0.036225 0.029317
3 0 1 2
3 3 4 5
3 0 2 6
3 0 6 7
3 0 7 8
3 3 5 9
3 10 11 12
3 13 14 15
3 16 17 18
3 19 20 21
3 3 9 22
3 10 12 23
3 13 15 24
3 16 18 25
3 19 21 26
3 27 28 29
3 30 31 32
3 33 34 35
3 36 37 38
3 39 40 41
3 42 11 10
3 43 44 42
3 45 46 43
3 47 48 45
3 49 50 47
3 51 52 49
3 2 53 51
3 42 44 11
3 44 54 11
3 43 46 44
3 46 55 44
3 44 55 54
3 55 56 54
3 45 48 46
3 48 57 46
3 46 57 55
3 57 58 55
3 55 58 56
3 58 59 56
3 47 50 48
3 50 60 48
3 48 60 57
3 60 61 57
3 57 61 58
3 61 62 58
3 58 62 59
3 62 63 59
3 49 52 50
3 52 64 50
3 50 64 60
3 64 65 60
3 60 65 61
3 65 66 61
3 61 66 62
3 66 67 62
3 62 67 63
3 67 68 63
3 51 53 52
3 53 69 52
3 52 69 64
3 69 70 64
3 64 70 65
3 70 71 65
3 65 71 66
3 71 72 66
3 66 72 67
3 72 73 67
3 67 73 68
3 73 74 68
3 2 1 53
3 1 75 53
3 53 75 69
3 75 76 69
3 69 76 70
3 76 77 70
3 70 77 71
3 77 78 71
3 71 78 72
3 78 79 72
3 72 79 73
3 79 4 73
3 73 4 74
3 4 3 74
3 80 81 19
3 82 83 80
3 84 85 82
3 86 87 84
3 88 89 86
3 90 91 88
3 5 92 90
3 80 83 81
3 83 93 81
3 82 85 83
3 85 94 83
3 83 94 93
3 94 95 93
3 84 87 85
3 87 96 85
3 85 96 94
3 96 97 94
3 94 97 95
3 97 98 95
3 86 89 87
3 89 99 87
3 87 99 96
3 99 100 96
3 96 100 97
3 100 101 97
3 97 101 98
3 101 102 98
3 88 91 89
3 91 103 89
3 89 103 99
3 103 104 99
3 99 104 100
3 104 105 100
3 100 105 101
3 105 106 101
3 101 106 102
3 106 107 102
3 90 92 91
3 92 108 91
3 91 108 103
3 108 109 103
3 103 109 104
3 109 110 104
3 104 110 105
3 110 111 105
3 105 111 106
3 111 112 106
3 106 112 107
3 112 8 107
3 5 4 92
3 4 79 92
3 92 79 108
3 79 78 108
3 108 78 109
3 78 77 109
3 109 77 110
3 77 76 110
3 110 76 111
3 76 75 111
3 111 75 112
3 75 1 112
3 112 1 8
3 1 0 8
3 113 14 13
3 114 115 113
3 116 117 114
3 118 119 116
3 120 121 118
3 122 123 120
3 6 124 122
3 113 115 14
3 115 125 14
3 114 117 115
3 117 126 115
3 115 126 125
3 126 127 125
3 116 119 117
3 119 128 117
3 117 128 126
3 128 129 126
3 126 129 127
3 129 130 127
3 118 121 119
3 121 131 119
3 119 131 128
3 131 132 128
3 128 132 129
3 132 133 129
3 129 133 130
3 133 134 130
3 120 123 121
3 123 135 121
3 121 135 131
3 135 136 131
3 131 136 132
3 136 137 132
3 132 137 133
3 137 138 133
3 133 138 134
3 138 139 134
3 122 124 123
3 124 140 123
3 123 140 135
3 140 141 135
3 135 141 136
3 141 142 136
3 136 142 137
3 142 143 137
3 137 143 138
3 143 144 138
3 138 144 139
3 144 145 139
3 6 2 124
3 2 51 124
3 124 51 140
3 51 49 140
3 140 49 141
3 49 47 141
3 141 47 142
3 47 45 142
3 142 45 143
3 45 43 143
3 143 43 144
3 43 42 144
3 144 42 145
3 42 10 145
3 146 17 16
3 147 148 146
3 149 150 147
3 151 152 149
3 153 154 151
3 155 156 153
3 7 157 155
3 146 148 17
3 148 158 17
3 147 150 148
3 150 159 148
3 148 159 158
3 159 160 158
3 149 152 150
3 152 161 150
3 150 161 159
3 161 162 159
3 159 162 160
3 162 163 160
3 151 154 152
3 154 164 152
3 152 164 161
3 164 165 161
3 161 165 162
3 165 166 162
3 162 166 163
3 166 167 163
3 153 156 154
3 156 168 154
3 154 168 164
3 168 169 164
3 164 169 165
3 169 170 165
3 165 170 166
3 170 171 166
3 166 171 167
3 171 172 167
3 155 157 156
3 157 173 156
3 156 173 168
3 173 174 168
3 168 174 169
3 174 175 169
3 169 175 170
3 175 176 170
3 170 176 171
3 176 177 171
3 171 177 172
3 177 178 172
3 7 6 157
3 6 122 157
3 157 122 173
3 122 120 173
3 173 120 174
3 120 118 174
3 174 118 175
3 118 116 175
3 175 116 176
3 116 114 176
3 176 114 177
3 114 113 177
3 177 113 178
3 113 13 178
3 81 20 19
3 93 179 81
3 95 180 93
3 98 181 95
3 102 182 98
3 107 183 102
3 8 184 107
3 81 179 20
3 179 185 20
3 93 180 179
3 180 186 179
3 179 186 185
3 186 187 185
3 95 181 180
3 181 188 180
3 180 188 186
3 188 189 186
3 186 189 187
3 189 190 187
3 98 182 181
3 182 191 181
3 181 191 188
3 191 192 188
3 188 192 189
3 192 193 189
3 189 193 190
3 193 194 190
3 102 183 182
3 183 195 182
3 182 195 191
3 195 196 191
3 191 196 192
3 196 197 192
3 192 197 193
3 197 198 193
3 193 198 194
3 198 199 194
3 107 184 183
3 184 200 183
3 183 200 195
3 200 201 195
3 195 201 196
3 201 202 196
3 196 202 197
3 202 203 197
3 197 203 198
3 203 204 198
3 198 204 199
3 204 205 199
3 8 7 184
3 7 155 184
3 184 155 200
3 155 153 200
3 200 153 201
3 153 151 201
3 201 151 202
3 151 149 202
3 202 149 203
3 149 147 203
3 203 147 204
3 147 146 204
3 204 146 205
3 146 16 205
3 206 207 39
3 208 209 206
3 210 211 208
3 212 213 210
3 214 215 212
3 216 217 214
3 9 218 216
3 206 209 207
3 209 219 207
3 208 211 209
3 211 220 209
3 209 220 219
3 220 221 219
3 210 213 211
3 213 222 211
3 211 222 220
3 222 223 220
3 220 223 221
3 223 224 221
3 212 215 213
3 215 225 213
3 213 225 222
3 225 226 222
3 222 226 223
3 226 227 223
3 223 227 224
3 227 228 224
3 214 217 215
3 217 229 215
3 215 229 225
3 229 230 225
3 225 230 226
3 230 231 226
3 226 231 227
3 231 232 227
3 227 232 228
3 232 233 228
3 216 218 217
3 218 234 217
3 217 234 229
3 234 235 229
3 229 235 230
3 235 236 230
3 230 236 231
3 236 237 231
3 231 237 232
3 237 238 232
3 232 238 233
3 238 26 233
3 9 5 218
3 5 90 218
3 218 90 234
3 90 88 234
3 234 88 235
3 88 86 235
3 235 86 236
3 86 84 236
3 236 84 237
3 84 82 237
3 237 82 238
3 82 80 238
3 238 80 26
3 80 19 26
3 239 240 27
3 241 242 239
3 243 244 241
3 245 246 243
3 247 248 245
3 249 250 247
3 12 251 249
3 239 242 240
3 242 252 240
3 241 244 242
3 244 253 242
3 242 253 252
3 253 254 252
3 243 246 244
3 246 255 244
3 244 255 253
3 255 256 253
3 253 256 254
3 256 257 254
3 245 248 246
3 248 258 246
3 246 258 255
3 258 259 255
3 255 259 256
3 259 260 256
3 256 260 257
3 260 261 257
3 247 250 248
3 250 262 248
3 248 262 258
3 262 263 258
3 258 263 259
3 263 264 259
3 259 264 260
3 264 265 260
3 260 265 261
3 265 266 261
3 249 251 250
3 251 267 250
3 250 267 262
3 267 268 262
3 262 268 263
3 268 269 263
3 263 269 264
3 269 270 264
3 264 270 265
3 270 271 265
3 265 271 266
3 271 22 266
3 12 11 251
3 11 54 251
3 251 54 267
3 54 56 267
3 267 56 268
3 56 59 268
3 268 59 269
3 59 63 269
3 269 63 270
3 63 68 270
3 270 68 271
3 68 74 271
3 271 74 22
3 74 3 22
3 272 273 30
3 274 275 272
3 276 277 274
3 278 279 276
3 280 281 278
3 282 283 280
3 15 284 282
3 272 275 273
3 275 285 273
3 274 277 275
3 277 286 275
3 275 286 285
3 286 287 285
3 276 279 277
3 279 288 277
3 277 288 286
3 288 289 286
3 286 289 287
3 289 290 287
3 278 281 279
3 281 291 279
3 279 291 288
3 291 292 288
3 288 292 289
3 292 293 289
3 289 293 290
3 293 294 290
3 280 283 281
3 283 295 281
3 281 295 291
3 295 296 291
3 291 296 292
3 296 297 292
3 292 297 293
3 297 298 293
3 293 298 294
3 298 299 294
3 282 284 283
3 284 300 283
3 283 300 295
3 300 301 295
3 295 301 296
3 301 302 296
3 296 302 297
3 302 303 297
3 297 303 298
3 303 304 298
3 298 304 299
3 304 23 299
3 15 14 284
3 14 125 284
3 284 125 300
3 125 127 300
3 300 127 301
3 127 130 301
3 301 130 302
3 130 134 302
3 302 134 303
3 134 139 303
3 303 139 304
3 139 145 304
3 304 145 23
3 145 10 23
3 305 306 33
3 307 308 305
3 309 310 307
3 311 312 309
3 313 314 311
3 315 316 313
3 18 317 315
3 305 308 306
3 308 318 306
3 307 310 308
3 310 319 308
3 308 319 318
3 319 320 318
3 309 312 310
3 312 321 310
3 310 321 319
3 321 322 319
3 319 322 320
3 322 323 320
3 311 314 312
3 314 324 312
3 312 324 321
3 324 325 321
3 321 325 322
3 325 326 322
3 322 326 323
3 326 327 323
3 313 316 314
3 316 328 314
3 314 328 324
3 328 329 324
3 324 329 325
3 329 330 325
3 325 330 326
3 330 331 326
3 326 331 327
3 331 332 327
3 315 317 316
3 317 333 316
3 316 333 328
3 333 334 328
3 328 334 329
3 334 335 329
3 329 335 330
3 335 336 330
3 330 336 331
3 336 337 331
3 331 337 332
3 337 24 332
3 18 17 317
3 17 158 317
3 317 158 333
3 158 160 333
3 333 160 334
3 160 163 334
3 334 163 335
3 163 167 335
3 335 167 336
3 167 172 336
3 336 172 337
3 172 178 337
3 337 178 24
3 178 13 24
3 338 339 36
3 340 341 338
3 342 343 340
3 344 345 342
3 346 347 344
3 348 349 346
3 21 350 348
3 338 341 339
3 341 351 339
3 340 343 341
3 343 352 341
3 341 352 351
3 352 353 351
3 342 345 343
3 345 354 343
3 343 354 352
3 354 355 352
3 352 355 353
3 355 356 353
3 344 347 345
3 347 357 345
3 345 357 354
3 357 358 354
3 354 358 355
3 358 359 355
3 355 359 356
3 359 360 356
3 346 349 347
3 349 361 347
3 347 361 357
3 361 362 357
3 357 362 358
3 362 363 358
3 358 363 359
3 363 364 359
3 359 364 360
3 364 365 360
3 348 350 349
3 350 366 349
3 349 366 361
3 366 367 361
3 361 367 362
3 367 368 362
3 362 368 363
3 368 369 363
3 363 369 364
3 369 370 364
3 364 370 365
3 370 25 365
3 21 20 350
3 20 185 350
3 350 185 366
3 185 187 366
3 366 187 367
3 187 190 367
3 367 190 368
3 190 194 368
3 368 194 369
3 194 199 369
3 369 199 370
3 199 205 370
3 370 205 25
3 205 16 25
3 240 28 27
3 252 371 240
3 254 372 252
3 257 373 254
3 261 374 257
3 266 375 261
3 22 376 266
3 240 371 28
3 371 377 28
3 252 372 371
3 372 378 371
3 371 378 377
3 378 379 377
3 254 373 372
3 373 380 372
3 372 380 378
3 380 381 378
3 378 381 379
3 381 382 379
3 257 374 373
3 374 383 373
3 373 383 380
3 383 384 380
3 380 384 381
3 384 385 381
3 381 385 382
3 385 386 382
3 261 375 374
3 375 387 374
3 374 387 383
3 387 388 383
3 383 388 384
3 388 389 384
3 384 389 385
3 389 390 385
3 385 390 386
3 390 391 386
3 266 376 375
3 376 392 375
3 375 392 387
3 392 393 387
3 387 393 388
3 393 394 388
3 388 394 389
3 394 395 389
3 389 395 390
3 395 396 390
3 390 396 391
3 396 397 391
3 22 9 376
3 9 216 376
3 376 216 392
3 216 214 392
3 392 214 393
3 214 212 393
3 393 212 394
3 212 210 394
3 394 210 395
3 210 208 395
3 395 208 396
3 208 206 396
3 396 206 397
3 206 39 397
3 273 31 30
3 285 398 273
3 287 399 285
3 290 400 287
3 294 401 290
3 299 402 294
3 23 403 299
3 273 398 31
3 398 404 31
3 285 399 398
3 399 405 398
3 398 405 404
3 405 406 404
3 287 400 399
3 400 407 399
3 399 407 405
3 407 408 405
3 405 408 406
3 408 409 406
3 290 401 400
3 401 410 400
3 400 410 407
3 410 411 407
3 407 411 408
3 411 412 408
3 408 412 409
3 412 413 409
3 294 402 401
3 402 414 401
3 401 414 410
3 414 415 410
3 410 415 411
3 415 416 411
3 411 416 412
3 416 417 412
3 412 417 413
3 417 418 413
3 299 403 402
3 403 419 402
3 402 419 414
3 419 420 414
3 414 420 415
3 420 421 415
3 415 421 416
3 421 422 416
3 416 422 417
3 422 423 417
3 417 423 418
3 423 424 418
3 23 12 403
3 12 249 403
3 403 249 419
3 249 247 419
3 419 247 420
3 247 245 420
3 420 245 421
3 245 243 421
3 421 243 422
3 243 241 422
3 422 241 423
3 241 239 423
3 423 239 424
3 239 27 424
3 306 34 33
3 318 425 306
3 320 426 318
3 323 427 320
3 327 428 323
3 332 429 327
3 24 430 332
3 306 425 34
3 425 431 34
3 318 426 425
3 426 432 425
3 425 432 431
3 432 433 431
3 320 427 426
3 427 434 426
3 426 434 432
3 434 435 432
3 432 435 433
3 435 436 433
3 323 428 427
3 428 437 427
3 427 437 434
3 437 438 434
3 434 438 435
3 438 439 435
3 435 439 436
3 439 440 436
3 327 429 428
3 429 441 428
3 428 441 437
3 441 442 437
3 437 442 438
3 442 443 438
3 438 443 439
3 443 444 439
3 439 444 440
3 444 445 440
3 332 430 429
3 430 446 429
3 429 446 441
3 446 447 441
3 441 447 442
3 447 448 442
3 442 448 443
3 448 449 443
3 443 449 444
3 449 450 444
3 444 450 445
3 450 451 445
3 24 15 430
3 15 282 430
3 430 282 446
3 282 280 446
3 446 280 447
3 280 278 447
3 447 278 448
3 278 276 448
3 448 276 449
3 276 274 449
3 449 274 450
3 274 272 450
3 450 272 451
3 272 30 451
3 339 37 36
3 351 452 339
3 353 453 351
3 356 454 353
3 360 455 356
3 365 456 360
3 25 457 365
3 339 452 37
3 452 458 37
3 351 453 452
3 453 459 452
3 452 459 458
3 459 460 458
3 353 454 453
3 454 461 453
3 453 461 459
3 461 462 459
3 459 462 460
3 462 463 460
3 356 455 454
3 455 464 454
3 454 464 461
3 464 465 461
3 461 465 462
3 465 466 462
3 462 466 463
3 466 467 463
3 360 456 455
3 456 468 455
3 455 468 464
3 468 469 464
3 464 469 465
3 469 470 465
3 465 470 466
3 470 471 466
3 466 471 467
3 471 472 467
3 365 457 456
3 457 473 456
3 456 473 468
3 473 474 468
3 468 474 469
3 474 475 469
3 469 475 470
3 475 476 470
3 470 476 471
3 476 477 471
3 471 477 472
3 477 478 472
3 25 18 457
3 18 315 457
3 457 315 473
3 315 313 473
3 473 313 474
3 313 311 474
3 474 311 475
3 311 309 475
3 475 309 476
3 309 307 476
3 476 307 477
3 307 305 477
3 477 305 478
3 305 33 478
3 207 40 39
3 219 479 207
3 221 480 219
3 224 481 221
3 228 482 224
3 233 483 228
3 26 484 233
3 207 479 40
3 479 485 40
3 219 480 479
3 480 486 479
3 479 486 485
3 486 487 485
3 221 481 480
3 481 488 480
3 480 488 486
3 488 489 486
3 486 489 487
3 489 490 487
3 224 482 481
3 482 491 481
3 481 491 488
3 491 492 488
3 488 492 489
3 492 493 489
3 489 493 490
3 493 494 490
3 228 483 482
3 483 495 482
3 482 495 491
3 495 496 491
3 491 496 492
3 496 497 492
3 492 497 493
3 497 498 493
3 493 498 494
3 498 499 494
3 233 484 483
3 484 500 483
3 483 500 495
3 500 501 495
3 495 501 496
3 501 502 496
3 496 502 497
3 502 503 497
3 497 503 498
3 503 504 498
3 498 504 499
3 504 505 499
3 26 21 484
3 21 348 484
3 484 348 500
3 348 346 500
3 500 346 501
3 346 344 501
3 501 344 502
3 344 342 502
3 502 342 503
3 342 340 503
3 503 340 504
3 340 338 504
3 504 338 505
3 338 36 505
3 506 507 508
3 509 510 506
3 511 512 509
3 513 514 511
3 515 516 513
3 517 518 515
3 29 519 517
3 506 510 507
3 510 520 507
3 509 512 510
3 512 521 510
3 510 521 520
3 521 522 520
3 511 514 512
3 514 523 512
3 512 523 521
3 523 524 521
3 521 524 522
3 524 525 522
3 513 516 514
3 516 526 514
3 514 526 523
3 526 527 523
3 523 527 524
3 527 528 524
3 524 528 525
3 528 529 525
3 515 518 516
3 518 530 516
3 516 530 526
3 530 531 526
3 526 531 527
3 531 532 527
3 527 532 528
3 532 533 528
3 528 533 529
3 533 534 529
3 517 519 518
3 519 535 518
3 518 535 530
3 535 536 530
3 530 536 531
3 536 537 531
3 531 537 532
3 537 538 532
3 532 538 533
3 538 539 533
3 533 539 534
3 539 41 534
3 29 28 519
3 28 377 519
3 519 377 535
3 377 379 535
3 535 379 536
3 379 382 536
3 536 382 537
3 382 386 537
3 537 386 538
3 386 391 538
3 538 391 539
3 391 397 539
3 539 397 41
3 397 39 41
3 540 506 508
3 541 542 540
3 543 544 541
3 545 546 543
3 547 548 545
3 549 550 547
3 32 551 549
3 540 542 506
3 542 509 506
3 541 544 542
3 544 552 542
3 542 552 509
3 552 511 509
3 543 546 544
3 546 553 544
3 544 553 552
3 553 554 552
3 552 554 511
3 554 513 511
3 545 548 546
3 548 555 546
3 546 555 553
3 555 556 553
3 553 556 554
3 556 557 554
3 554 557 513
3 557 515 513
3 547 550 548
3 550 558 548
3 548 558 555
3 558 559 555
3 555 559 556
3 559 560 556
3 556 560 557
3 560 561 557
3 557 561 515
3 561 517 515
3 549 551 550
3 551 562 550
3 550 562 558
3 562 563 558
3 558 563 559
3 563 564 559
3 559 564 560
3 564 565 560
3 560 565 561
3 565 566 561
3 561 566 517
3 566 29 517
3 32 31 551
3 31 404 551
3 551 404 562
3 404 406 562
3 562 406 563
3 406 409 563
3 563 409 564
3 409 413 564
3 564 413 565
3 413 418 565
3 565 418 566
3 418 424 566
3 566 424 29
3 424 27 29
3 567 540 508
3 568 569 567
3 570 571 568
3 572 573 570
3 574 575 572
3 576 577 574
3 35 578 576
3 567 569 540
3 569 541 540
3 568 571 569
3 571 579 569
3 569 579 541
3 579 543 541
3 570 573 571
3 573 580 571
3 571 580 579
3 580 581 579
3 579 581 543
3 581 545 543
3 572 575 573
3 575 582 573
3 573 582 580
3 582 583 580
3 580 583 581
3 583 584 581
3 581 584 545
3 584 547 545
3 574 577 575
3 577 585 575
3 575 585 582
3 585 586 582
3 582 586 583
3 586 587 583
3 583 587 584
3 587 588 584
3 584 588 547
3 588 549 547
3 576 578 577
3 578 589 577
3 577 589 585
3 589 590 585
3 585 590 586
3 590 591 586
3 586 591 587
3 591 592 587
3 587 592 588
3 592 593 588
3 588 593 549
3 593 32 549
3 35 34 578
3 34 431 578
3 578 431 589
3 431 433 589
3 589 433 590
3 433 436 590
3 590 436 591
3 436 440 591
3 591 440 592
3 440 445 592
3 592 445 593
3 445 451 593
3 593 451 32
3 451 30 32
3 594 567 508
3 595 596 594
3 597 598 595
3 599 600 597
3 601 602 599
3 603 604 601
3 38 605 603
3 594 596 567
3 596 568 567
3 595 598 596
3 598 606 596
3 596 606 568
3 606 570 568
3 597 600 598
3 600 607 598
3 598 607 606
3 607 608 606
3 606 608 570
3 608 572 570
3 599 602 600
3 602 609 600
3 600 609 607
3 609 610 607
3 607 610 608
3 610 611 608
3 608 611 572
3 611 574 572
3 601 604 602
3 604 612 602
3 602 612 609
3 612 613 609
3 609 613 610
3 613 614 610
3 610 614 611
3 614 615 611
3 611 615 574
3 615 576 574
3 603 605 604
3 605 616 604
3 604 616 612
3 616 617 612
3 612 617 613
3 617 618 613
3 613 618 614
3 618 619 614
3 614 619 615
3 619 620 615
3 615 620 576
3 620 35 576
3 38 37 605
3 37 458 605
3 605 458 616
3 458 460 616
3 616 460 617
3 460 463 617
3 617 463 618
3 463 467 618
3 618 467 619
3 467 472 619
3 619 472 620
3 472 478 620
3 620 478 35
3 478 33 35
3 507 594 508
3 520 621 507
3 522 622 520
3 525 623 522
3 529 624 525
3 534 625 529
3 41 626 534
3 507 621 594
3 621 595 594
3 520 622 621
3 622 627 621
3 621 627 595
3 627 597 595
3 522 623 622
3 623 628 622
3 622 628 627
3 628 629 627
3 627 629 597
3 629 599 597
3 525 624 623
3 624 630 623
3 623 630 628
3 630 631 628
3 628 631 629
3 631 632 629
3 629 632 599
3 632 601 599
3 529 625 624
3 625 633 624
3 624 633 630
3 633 634 630
3 630 634 631
3 634 635 631
3 631 635 632
3 635 636 632
3 632 636 601
3 636 603 601
3 534 626 625
3 626 637 625
3 625 637 633
3 637 638 633
3 633 638 634
3 638 639 634
3 634 639 635
3 639 640 635
3 635 640 636
3 640 641 636
3 636 641 603
3 641 38 603
3 41 40 626
3 40 485 626
3 626 485 637
3 485 487 637
3 637 487 638
3 487 490 638
3 638 490 639
3 490 494 639
3 639 494 640
3 494 499 640
3 640 499 641
3 499 505 641
3 641 505 38
3 505 36 38
