ply
format ascii 1.0
comment Created by Blender 2.78 (sub 0) - www.blender.org, source file: ''
element vertex 204
property float x
property float y
property float z
property float nx
property float ny
property float nz
element face 128
property list uchar uint vertex_indices
end_header
-0.100000 0.000000 0.000000 -1.000000 0.000000 0.000000
-0.100000 0.000050 0.000000 -1.000000 0.000000 0.000000
-0.100000 0.000049 -0.000010 -1.000000 0.000000 0.000000
0.100000 0.000000 0.000000 1.000000 0.000000 0.000000
0.100000 0.000049 -0.000010 1.000000 0.000000 0.000000
0.100000 0.000050 0.000000 1.000000 0.000000 0.000000
0.100000 0.000050 0.000000 0.000000 0.995192 -0.097938
0.100000 0.000049 -0.000010 0.000000 0.995192 -0.097938
-0.100000 0.000049 -0.000010 0.000000 0.995192 -0.097938
-0.100000 0.000046 -0.000019 -1.000000 0.000000 0.000000
0.100000 0.000046 -0.000019 1.000000 0.000000 0.000000
0.100000 0.000049 -0.000010 0.000000 0.956951 -0.290248
0.100000 0.000046 -0.000019 0.000000 0.956951 -0.290248
-0.100000 0.000046 -0.000019 0.000000 0.956951 -0.290248
-0.100000 0.000042 -0.000028 -1.000000 0.000000 0.000000
0.100000 0.000042 -0.000028 1.000000 0.000000 0.000000
0.100000 0.000046 -0.000019 0.000000 0.881957 -0.471330
0.100000 0.000042 -0.000028 0.000000 0.881957 -0.471330
-0.100000 0.000042 -0.000028 0.000000 0.881957 -0.471330
-0.100000 0.000035 -0.000035 -1.000000 0.000000 0.000000
0.100000 0.000035 -0.000035 1.000000 0.000000 0.000000
0.100000 0.000042 -0.000028 0.000000 0.772842 -0.634598
0.100000 0.000035 -0.000035 0.000000 0.772842 -0.634598
-0.100000 0.000035 -0.000035 0.000000 0.772842 -0.634598
-0.100000 0.000028 -0.000042 -1.000000 0.000000 0.000000
0.100000 0.000028 -0.000042 1.000000 0.000000 0.000000
0.100000 0.000035 -0.000035 0.000000 0.634598 -0.772842
0.100000 0.000028 -0.000042 0.000000 0.634598 -0.772842
-0.100000 0.000028 -0.000042 0.000000 0.634598 -0.772842
-0.100000 0.000019 -0.000046 -1.000000 0.000000 0.000000
0.100000 0.000019 -0.000046 1.000000 0.000000 0.000000
0.100000 0.000028 -0.000042 0.000000 0.471330 -0.881957
0.100000 0.000019 -0.000046 0.000000 0.471330 -0.881957
-0.100000 0.000019 -0.000046 0.000000 0.471330 -0.881957
-0.100000 0.000010 -0.000049 -1.000000 0.000000 0.000000
0.100000 0.000010 -0.000049 1.000000 0.000000 0.000000
0.100000 0.000019 -0.000046 0.000000 0.290248 -0.956951
0.100000 0.000010 -0.000049 0.000000 0.290248 -0.956951
-0.100000 0.000010 -0.000049 0.000000 0.290248 -0.956951
-0.100000 0.000000 -0.000050 -1.000000 0.000000 0.000000
0.100000 0.000000 -0.000050 1.000000 0.000000 -0.000000
0.100000 0.000010 -0.000049 0.000000 0.097938 -0.995192
0.100000 0.000000 -0.000050 0.000000 0.097938 -0.995192
-0.100000 0.000000 -0.000050 0.000000 0.097938 -0.995192
-0.100000 -0.000010 -0.000049 -1.000000 0.000000 0.000000
0.100000 -0.000010 -0.000049 1.000000 0.000000 -0.000000
0.100000 0.000000 -0.000050 0.000000 -0.097938 -0.995192
0.100000 -0.000010 -0.000049 0.000000 -0.097938 -0.995192
-0.100000 -0.000010 -0.000049 0.000000 -0.097938 -0.995192
-0.100000 -0.000019 -0.000046 -1.000000 0.000000 0.000000
0.100000 -0.000019 -0.000046 1.000000 0.000000 -0.000000
0.100000 -0.000010 -0.000049 0.000000 -0.290248 -0.956951
0.100000 -0.000019 -0.000046 0.000000 -0.290248 -0.956951
-0.100000 -0.000019 -0.000046 0.000000 -0.290248 -0.956951
-0.100000 -0.000028 -0.000042 -1.000000 0.000000 0.000000
0.100000 -0.000028 -0.000042 1.000000 0.000000 -0.000000
0.100000 -0.000019 -0.000046 0.000000 -0.471330 -0.881957
0.100000 -0.000028 -0.000042 0.000000 -0.471330 -0.881957
-0.100000 -0.000028 -0.000042 0.000000 -0.471330 -0.881957
-0.100000 -0.000035 -0.000035 -1.000000 0.000000 0.000000
0.100000 -0.000035 -0.000035 1.000000 0.000000 -0.000000
0.100000 -0.000028 -0.000042 0.000000 -0.634598 -0.772842
0.100000 -0.000035 -0.000035 0.000000 -0.634598 -0.772842
-0.100000 -0.000035 -0.000035 0.000000 -0.634598 -0.772842
-0.100000 -0.000042 -0.000028 -1.000000 0.000000 0.000000
0.100000 -0.000042 -0.000028 1.000000 0.000000 -0.000000
0.100000 -0.000035 -0.000035 0.000000 -0.772842 -0.634598
0.100000 -0.000042 -0.000028 0.000000 -0.772842 -0.634598
-0.100000 -0.000042 -0.000028 0.000000 -0.772842 -0.634598
-0.100000 -0.000046 -0.000019 -1.000000 0.000000 0.000000
0.100000 -0.000046 -0.000019 1.000000 0.000000 -0.000000
0.100000 -0.000042 -0.000028 0.000000 -0.881957 -0.471330
0.100000 -0.000046 -0.000019 0.000000 -0.881957 -0.471330
-0.100000 -0.000046 -0.000019 0.000000 -0.881957 -0.471330
-0.100000 -0.000049 -0.000010 -1.000000 0.000000 0.000000
0.100000 -0.000049 -0.000010 1.000000 0.000000 -0.000000
0.100000 -0.000046 -0.000019 0.000000 -0.956951 -0.290248
0.100000 -0.000049 -0.000010 0.000000 -0.956951 -0.290248
-0.100000 -0.000049 -0.000010 0.000000 -0.956951 -0.290248
-0.100000 -0.000050 0.000000 -1.000000 0.000000 0.000000
0.100000 -0.000050 0.000000 1.000000 0.000000 -0.000000
0.100000 -0.000049 -0.000010 0.000000 -0.995192 -0.097938
0.100000 -0.000050 0.000000 0.000000 -0.995192 -0.097938
-0.100000 -0.000050 0.000000 0.000000 -0.995192 -0.097938
-0.100000 -0.000049 0.000010 -1.000000 0.000000 -0.000000
0.100000 -0.000049 0.000010 1.000000 -0.000000 0.000000
0.100000 -0.000050 0.000000 0.000000 -0.995192 0.097938
0.100000 -0.000049 0.000010 0.000000 -0.995192 0.097938
-0.100000 -0.000049 0.000010 0.000000 -0.995192 0.097938
-0.100000 -0.000046 0.000019 -1.000000 0.000000 -0.000000
0.100000 -0.000046 0.000019 1.000000 -0.000000 0.000000
0.100000 -0.000049 0.000010 0.000000 -0.956951 0.290248
0.100000 -0.000046 0.000019 0.000000 -0.956951 0.290248
-0.100000 -0.000046 0.000019 0.000000 -0.956951 0.290248
-0.100000 -0.000042 0.000028 -1.000000 0.000000 -0.000000
0.100000 -0.000042 0.000028 1.000000 -0.000000 0.000000
0.100000 -0.000046 0.000019 0.000000 -0.881957 0.471330
0.100000 -0.000042 0.000028 0.000000 -0.881957 0.471330
-0.100000 -0.000042 0.000028 0.000000 -0.881957 0.471330
-0.100000 -0.000035 0.000035 -1.000000 0.000000 -0.000000
0.100000 -0.000035 0.000035 1.000000 -0.000000 0.000000
0.100000 -0.000042 0.000028 0.000000 -0.772842 0.634598
0.100000 -0.000035 0.000035 0.000000 -0.772842 0.634598
-0.100000 -0.000035 0.000035 0.000000 -0.772842 0.634598
-0.100000 -0.000028 0.000042 -1.000000 0.000000 -0.000000
0.100000 -0.000028 0.000042 1.000000 -0.000000 0.000000
0.100000 -0.000035 0.000035 0.000000 -0.634598 0.772842
0.100000 -0.000028 0.000042 0.000000 -0.634598 0.772842
-0.100000 -0.000028 0.000042 0.000000 -0.634598 0.772842
-0.100000 -0.000019 0.000046 -1.000000 0.000000 -0.000000
0.100000 -0.000019 0.000046 1.000000 -0.000000 0.000000
0.100000 -0.000028 0.000042 0.000000 -0.471330 0.881957
0.100000 -0.000019 0.000046 0.000000 -0.471330 0.881957
-0.100000 -0.000019 0.000046 0.000000 -0.471330 0.881957
-0.100000 -0.000010 0.000049 -1.000000 0.000000 -0.000000
0.100000 -0.000010 0.000049 1.000000 -0.000000 0.000000
0.100000 -0.000019 0.000046 0.000000 -0.290248 0.956951
0.100000 -0.000010 0.000049 0.000000 -0.290248 0.956951
-0.100000 -0.000010 0.000049 0.000000 -0.290248 0.956951
-0.100000 0.000000 0.000050 -1.000000 0.000000 -0.000000
0.100000 0.000000 0.000050 1.000000 -0.000000 0.000000
0.100000 -0.000010 0.000049 0.000000 -0.097938 0.995192
0.100000 0.000000 0.000050 0.000000 -0.097938 0.995192
-0.100000 0.000000 0.000050 0.000000 -0.097938 0.995192
-0.100000 0.000010 0.000049 -1.000000 -0.000000 -0.000000
0.100000 0.000010 0.000049 1.000000 0.000000 0.000000
0.100000 0.000000 0.000050 -0.000000 0.097938 0.995192
0.100000 0.000010 0.000049 -0.000000 0.097938 0.995192
-0.100000 0.000010 0.000049 -0.000000 0.097938 0.995192
-0.100000 0.000019 0.000046 -1.000000 -0.000000 0.000000
0.100000 0.000019 0.000046 1.000000 0.000000 0.000000
0.100000 0.000010 0.000049 -0.000000 0.290248 0.956951
0.100000 0.000019 0.000046 -0.000000 0.290248 0.956951
-0.100000 0.000019 0.000046 -0.000000 0.290248 0.956951
-0.100000 0.000028 0.000042 -1.000000 -0.000000 0.000000
0.100000 0.000028 0.000042 1.000000 0.000000 0.000000
0.100000 0.000019 0.000046 -0.000000 0.471330 0.881957
0.100000 0.000028 0.000042 -0.000000 0.471330 0.881957
-0.100000 0.000028 0.000042 -0.000000 0.471330 0.881957
-0.100000 0.000035 0.000035 -1.000000 -0.000000 0.000000
0.100000 0.000035 0.000035 1.000000 0.000000 0.000000
0.100000 0.000028 0.000042 -0.000000 0.634598 0.772842
0.100000 0.000035 0.000035 -0.000000 0.634598 0.772842
-0.100000 0.000035 0.000035 -0.000000 0.634598 0.772842
-0.100000 0.000042 0.000028 -1.000000 -0.000000 0.000000
0.100000 0.000042 0.000028 1.000000 0.000000 0.000000
0.100000 0.000035 0.000035 -0.000000 0.772842 0.634598
0.100000 0.000042 0.000028 -0.000000 0.772842 0.634598
-0.100000 0.000042 0.000028 -0.000000 0.772842 0.634598
-0.100000 0.000046 0.000019 -1.000000 -0.000000 0.000000
0.100000 0.000046 0.000019 1.000000 0.000000 0.000000
0.100000 0.000042 0.000028 -0.000000 0.881957 0.471330
0.100000 0.000046 0.000019 -0.000000 0.881957 0.471330
-0.100000 0.000046 0.000019 -0.000000 0.881957 0.471330
-0.100000 0.000049 0.000010 -1.000000 -0.000000 0.000000
0.100000 0.000049 0.000010 1.000000 0.000000 0.000000
0.100000 0.000046 0.000019 -0.000000 0.956951 0.290248
0.100000 0.000049 0.000010 -0.000000 0.956951 0.290248
-0.100000 0.000049 0.000010 -0.000000 0.956951 0.290248
0.100000 0.000049 0.000010 -0.000000 0.995192 0.097938
0.100000 0.000050 0.000000 -0.000000 0.995192 0.097938
-0.100000 0.000050 0.000000 -0.000000 0.995192 0.097938
-0.100000 0.000050 0.000000 0.000000 0.995192 -0.097938
-0.100000 0.000049 -0.000010 0.000000 0.956951 -0.290248
-0.100000 0.000046 -0.000019 0.000000 0.881957 -0.471330
-0.100000 0.000042 -0.000028 0.000000 0.772842 -0.634598
-0.100000 0.000035 -0.000035 0.000000 0.634598 -0.772842
0.100000 0.000035 -0.000035 0.000000 0.634598 -0.772842
-0.100000 0.000028 -0.000042 0.000000 0.634598 -0.772842
-0.100000 0.000028 -0.000042 0.000000 0.471330 -0.881957
-0.100000 0.000019 -0.000046 0.000000 0.290248 -0.956951
-0.100000 0.000010 -0.000049 0.000000 0.097938 -0.995192
-0.100000 0.000000 -0.000050 -0.000000 -0.097938 -0.995192
-0.100000 -0.000010 -0.000049 -0.000000 -0.290248 -0.956951
-0.100000 -0.000019 -0.000046 -0.000000 -0.471330 -0.881957
-0.100000 -0.000028 -0.000042 -0.000000 -0.634598 -0.772842
0.100000 -0.000028 -0.000042 -0.000000 -0.634598 -0.772842
-0.100000 -0.000035 -0.000035 -0.000000 -0.634598 -0.772842
-0.100000 -0.000035 -0.000035 -0.000000 -0.772842 -0.634598
-0.100000 -0.000042 -0.000028 -0.000000 -0.881957 -0.471330
-0.100000 -0.000046 -0.000019 -0.000000 -0.956951 -0.290248
-0.100000 -0.000049 -0.000010 -0.000000 -0.995192 -0.097938
-0.100000 -0.000050 0.000000 0.000000 -0.995192 0.097938
-0.100000 -0.000049 0.000010 0.000000 -0.956951 0.290248
-0.100000 -0.000046 0.000019 0.000000 -0.881957 0.471330
-0.100000 -0.000042 0.000028 0.000000 -0.772842 0.634598
-0.100000 -0.000035 0.000035 0.000000 -0.634598 0.772842
0.100000 -0.000035 0.000035 0.000000 -0.634598 0.772842
-0.100000 -0.000028 0.000042 0.000000 -0.634598 0.772842
-0.100000 -0.000028 0.000042 0.000000 -0.471330 0.881957
-0.100000 -0.000019 0.000046 0.000000 -0.290248 0.956951
-0.100000 -0.000010 0.000049 0.000000 -0.097938 0.995192
-0.100000 0.000000 0.000050 0.000000 0.097938 0.995192
-0.100000 0.000010 0.000049 0.000000 0.290248 0.956951
-0.100000 0.000019 0.000046 0.000000 0.471330 0.881957
-0.100000 0.000028 0.000042 0.000000 0.634598 0.772842
0.100000 0.000028 0.000042 0.000000 0.634598 0.772842
-0.100000 0.000035 0.000035 0.000000 0.634598 0.772842
-0.100000 0.000035 0.000035 0.000000 0.772842 0.634598
-0.100000 0.000042 0.000028 0.000000 0.881957 0.471330
0.100000 0.000042 0.000028 0.000000 0.881957 0.471330
-0.100000 0.000046 0.000019 0.000000 0.881957 0.471330
-0.100000 0.000046 0.000019 0.000000 0.956951 0.290248
-0.100000 0.000049 0.000010 0.000000 0.995192 0.097938
3 0 1 2
3 3 4 5
3 6 7 8
3 0 2 9
3 3 10 4
3 11 12 13
3 0 9 14
3 3 15 10
3 16 17 18
3 0 14 19
3 3 20 15
3 21 22 23
3 0 19 24
3 3 25 20
3 26 27 28
3 0 24 29
3 3 30 25
3 31 32 33
3 0 29 34
3 3 35 30
3 36 37 38
3 0 34 39
3 3 40 35
3 41 42 43
3 0 39 44
3 3 45 40
3 46 47 48
3 0 44 49
3 3 50 45
3 51 52 53
3 0 49 54
3 3 55 50
3 56 57 58
3 0 54 59
3 3 60 55
3 61 62 63
3 0 59 64
3 3 65 60
3 66 67 68
3 0 64 69
3 3 70 65
3 71 72 73
3 0 69 74
3 3 75 70
3 76 77 78
3 0 74 79
3 3 80 75
3 81 82 83
3 0 79 84
3 3 85 80
3 86 87 88
3 0 84 89
3 3 90 85
3 91 92 93
3 0 89 94
3 3 95 90
3 96 97 98
3 0 94 99
3 3 100 95
3 101 102 103
3 0 99 104
3 3 105 100
3 106 107 108
3 0 104 109
3 3 110 105
3 111 112 113
3 0 109 114
3 3 115 110
3 116 117 118
3 0 114 119
3 3 120 115
3 121 122 123
3 0 119 124
3 3 125 120
3 126 127 128
3 0 124 129
3 3 130 125
3 131 132 133
3 0 129 134
3 3 135 130
3 136 137 138
3 0 134 139
3 3 140 135
3 141 142 143
3 0 139 144
3 3 145 140
3 146 147 148
3 0 144 149
3 3 150 145
3 151 152 153
3 0 149 154
3 3 155 150
3 156 157 158
3 0 154 1
3 3 5 155
3 159 160 161
3 162 6 8
3 163 11 13
3 164 16 18
3 165 21 23
3 166 167 168
3 169 31 33
3 170 36 38
3 171 41 43
3 172 46 48
3 173 51 53
3 174 56 58
3 175 176 177
3 178 66 68
3 179 71 73
3 180 76 78
3 181 81 83
3 182 86 88
3 183 91 93
3 184 96 98
3 185 101 103
3 186 187 188
3 189 111 113
3 190 116 118
3 191 121 123
3 192 126 128
3 193 131 133
3 194 136 138
3 195 196 197
3 198 146 148
3 199 200 201
3 202 156 158
3 203 159 161
