ply
format ascii 1.0
comment Created by Blender 2.69 (sub 0) - www.blender.org, source file: ''
element vertex 26
property float x
property float y
property float z
property float nx
property float ny
property float nz
element face 12
property uint nature
property list uchar uint vertex_indices
end_header
1.000000 1.000000 -1.000000 0.000000 0.000000 -1.000000
1.000000 -1.000000 -1.000000 0.000000 0.000000 -1.000000
-1.000000 -1.000000 -1.000000 0.000000 0.000000 -1.000000
1.000000 0.999999 1.000000 -0.000000 -0.000000 1.000000
-1.000000 1.000000 1.000000 -0.000000 -0.000000 1.000000
0.999999 -1.000001 1.000000 -0.000000 -0.000000 1.000000
1.000000 1.000000 -1.000000 1.000000 0.000000 -0.000000
1.000000 0.999999 1.000000 1.000000 0.000000 -0.000000
1.000000 -1.000000 -1.000000 1.000000 0.000000 -0.000000
1.000000 -1.000000 -1.000000 -0.000000 -1.000000 -0.000000
0.999999 -1.000001 1.000000 -0.000000 -1.000000 -0.000000
-1.000000 -1.000000 -1.000000 -0.000000 -1.000000 -0.000000
-1.000000 -1.000000 -1.000000 -1.000000 0.000000 -0.000000
-1.000000 -1.000000 1.000000 -1.000000 0.000000 -0.000000
-1.000000 1.000000 1.000000 -1.000000 0.000000 -0.000000
1.000000 0.999999 1.000000 0.000000 1.000000 0.000000
1.000000 1.000000 -1.000000 0.000000 1.000000 0.000000
-1.000000 1.000000 1.000000 0.000000 1.000000 0.000000
-1.000000 1.000000 -1.000000 0.000000 0.000000 -1.000000
1.000000 0.999999 1.000000 1.000000 -0.000001 0.000000
0.999999 -1.000001 1.000000 1.000000 -0.000001 0.000000
1.000000 -1.000000 -1.000000 1.000000 -0.000001 0.000000
-1.000000 1.000000 -1.000000 0.000000 1.000000 0.000000
-1.000000 -1.000000 1.000000 0.000000 -0.000000 1.000000
-1.000000 1.000000 -1.000000 -1.000000 0.000000 -0.000000
-1.000000 -1.000000 1.000000 -0.000000 -1.000000 0.000000
011 3 0 1 2
012 3 3 4 5
020 3 6 7 8
022 3 9 10 11
023 3 12 13 14
031 3 15 16 17
032 3 18 0 2
033 3 19 20 21
000 3 16 22 17
099 3 4 23 5
010 3 24 12 14
001 3 10 25 11
