ply
format ascii 1.0
comment TestData not really a mesh
element vertex 4
property float x
property float y
property float z
property float nx
property float ny
property float nz
element 2DElement 4
property list uchar uint vertex_indices
property int extra
end_header
1.000000 2.000000 3.000000 0.000000 0.000000 -1.000000
-2.000000 -3.000000 -4.000000 0.000000 0.000000 -1.000000
3.000000 4.000000 5.000000 0.000000 0.000000 -1.000000
-4.000000 -5.000000 -6.000000 0.000000 0.000000 -1.000000
1 0 0
2 1 2 -1
3 3 4 5 -2
4 6 7 8 9 -3
