ply
format ascii 1.0
comment Created by hand
element dimension 1
property uint x
property uint y
property uint z
element spacing 1
property double x
property double y
property double z
element bounds 1
property double xMin
property double xMax
property double yMin
property double yMax
property double zMin
property double zMax
element voxel 23
property double x
property double y
property double z
end_header
7 11 1
0.001 0.001 0.001
-0.00207699998282 0.00480100000277 -0.00532899983227 0.00532899983227 -0.000403999991249 0.000403999991249
-0.000576999982819 -0.00482899983227 9.60000087507e-05
0.000423000017181 -0.00482899983227 9.60000087507e-05
0.00142300001718 -0.00482899983227 9.60000087507e-05
0.00242300001718 -0.00482899983227 9.60000087507e-05
0.00342300001718 -0.00482899983227 9.60000087507e-05
-0.00157699998282 -0.00382899983227 9.60000087507e-05
0.00442300001718 -0.00382899983227 9.60000087507e-05
-0.00157699998282 -0.00282899983227 9.60000087507e-05
0.00442300001718 -0.00282899983227 9.60000087507e-05
-0.00157699998282 -0.00182899983227 9.60000087507e-05
0.00442300001718 -0.00182899983227 9.60000087507e-05
-0.00157699998282 -0.000828999832273 9.60000087507e-05
-0.00157699998282 0.000171000167727 9.60000087507e-05
-0.00157699998282 0.00117100016773 9.60000087507e-05
-0.00157699998282 0.00217100016773 9.60000087507e-05
0.00442300001718 0.00217100016773 9.60000087507e-05
-0.00157699998282 0.00317100016773 9.60000087507e-05
0.00442300001718 0.00317100016773 9.60000087507e-05
-0.00157699998282 0.00417100016773 9.60000087507e-05
0.00442300001718 0.00417100016773 9.60000087507e-05
0.000423000017181 0.00517100016773 9.60000087507e-05
0.00142300001718 0.00517100016773 9.60000087507e-05
0.00242300001718 0.00517100016773 9.60000087507e-05
