# Blender3D v249 OBJ File: scene.blend
# www.blender3d.org
mtllib table_extension.mtl
v 14.304354 22.522753 64.949295
v 16.629053 24.847555 64.949295
v 16.629053 22.522753 64.949295
v 16.629055 24.847553 4.343634
v 16.629055 22.522751 4.343634
v 14.304357 22.522751 4.343634
v 14.304357 24.847553 4.343634
v 14.304354 24.847555 64.949295
v 5.939255 36.250248 -3.653297
v 2.704759 -22.853151 22.909496
v 31.837355 21.914051 8.560334
v 2.565759 -23.052851 14.221195
v -35.232639 -22.896852 14.494893
v 30.669456 20.236252 0.318805
v -35.266342 -22.945251 23.258194
v 7.107255 37.928047 4.588233
v 16.629055 22.522751 4.343634
v 16.629055 22.522751 4.343634
v 16.629055 24.847553 4.343634
v 16.629055 24.847553 4.343634
v 16.629053 24.847555 64.949295
v 16.629053 24.847555 64.949295
v 16.629053 22.522753 64.949295
v 14.304354 24.847555 64.949295
v 14.304354 24.847555 64.949295
v 14.304354 22.522753 64.949295
v 14.304354 22.522753 64.949295
v 14.304357 22.522751 4.343634
v 16.629053 22.522753 64.949295
v 14.304357 24.847553 4.343634
v 2.704759 -22.853151 22.909496
v 2.704759 -22.853151 22.909496
v -35.266342 -22.945251 23.258194
v -35.266342 -22.945251 23.258194
v 7.107255 37.928047 4.588233
v 7.107255 37.928047 4.588233
v 5.939255 36.250248 -3.653297
v 5.939255 36.250248 -3.653297
v -35.232639 -22.896852 14.494893
v -35.232639 -22.896852 14.494893
v 2.565759 -23.052851 14.221195
v 30.669456 20.236252 0.318805
v 30.669456 20.236252 0.318805
v 2.565759 -23.052851 14.221195
v 31.837355 21.914051 8.560334
v 31.837355 21.914051 8.560334
v 14.304357 22.522751 4.343634
v 14.304357 24.847553 4.343634
vt 0.342950 -0.239952
vt 0.541133 -0.221667
vt 0.342950 1.290185
vt 0.541133 1.308470
vt 0.739317 0.177575
vt 0.798012 0.177574
vt 0.739316 0.236267
vt 0.798012 0.236267
vt 0.342950 1.308470
vt 0.144767 1.290185
vt 0.342950 -0.221667
vt 0.144767 -0.239952
vt 0.739317 0.294963
vt 0.798009 0.294963
vt 0.798009 0.236267
vt 0.144767 -0.221667
vt -0.053415 1.290185
vt -0.053415 -0.239952
vt 0.144767 1.308470
vt 0.541133 -0.239952
vt 0.739316 -0.221667
vt 0.541133 1.290185
vt 0.739316 1.308470
vt 1.856961 -0.471762
vt 1.856393 1.400821
vt 1.617996 -0.409974
vt 1.617997 1.405368
vt -0.077864 1.445106
vt -0.860434 0.918655
vt -0.077864 -0.454578
vt -0.816269 -0.454315
vt 0.805149 -0.151125
vt 1.017376 -0.100281
vt 0.804218 1.237492
vt 1.017376 1.241778
vt -0.836277 1.367620
vt -0.836277 -0.478916
vt -0.053415 0.848727
vt -0.097600 -0.478647
vt 1.325486 1.086423
vt 1.327282 0.132081
vt 1.546722 1.089287
vt 1.546720 0.130574
vt 1.267599 1.022704
vt 1.071309 0.995421
vt 1.267599 0.328865
vt 1.071309 0.301584
vn -1.000000 0.000000 0.000000
vn 0.000000 0.000000 1.000000
vn 1.000000 0.000000 0.000000
vn 0.000000 0.000000 -1.000000
vn 0.000000 -1.000000 0.000000
vn 0.000000 1.000000 0.000000
vn -0.820734 0.571307 0.000000
vn -0.820704 0.571307 0.000000
vn 0.008087 0.288034 0.957549
vn 0.019837 0.287210 0.957640
vn 0.031617 0.286355 0.957579
vn 0.838008 -0.545610 -0.000855
vn 0.837825 -0.545915 -0.004181
vn 0.837611 -0.546190 -0.007477
vn -0.008118 -0.288125 -0.957549
vn -0.019990 -0.287454 -0.957549
vn -0.031892 -0.286752 -0.957457
vn -0.004151 -0.999969 -0.005524
vn -0.000763 -0.999939 0.008698
vn 0.002625 -0.999725 0.022919
vn 0.554491 0.796594 -0.240730
usemtl stainless_mat_stainless_steel.png
s 1
f 7/1/1 6/2/1 8/3/1
f 6/2/1 1/4/1 8/3/1
f 25/5/2 27/6/2 2/7/2
f 27/6/2 3/8/2 2/7/2
f 22/9/3 23/10/3 4/11/3
f 23/10/3 5/12/3 4/11/3
f 20/13/4 18/7/4 48/14/4
f 18/7/4 47/15/4 48/14/4
f 17/16/5 26/17/5 28/18/5
f 29/19/5 26/17/5 17/16/5
f 19/20/6 30/21/6 21/22/6
f 30/21/6 24/23/6 21/22/6
f 15/24/7 16/25/7 13/26/7
f 16/25/7 9/27/8 13/26/7
f 34/28/9 10/29/10 36/30/10
f 10/29/10 11/31/11 36/30/10
f 31/32/12 12/33/13 46/34/13
f 12/33/13 14/35/14 46/34/13
f 40/36/15 38/37/16 44/38/16
f 38/37/16 43/39/17 44/38/16
f 39/40/18 41/41/19 33/42/19
f 41/41/19 32/43/20 33/42/19
f 37/44/21 35/45/21 42/46/21
f 35/45/21 45/47/21 42/46/21
