# Blender v2.63 (sub 0) OBJ File: 'stapler.blend'
# www.blender.org
v -0.004801 -0.000394 0.002520
v -0.004801 0.000394 0.002520
v -0.003882 -0.000000 0.000105
v -0.003892 -0.000391 0.003619
v -0.003892 0.000391 0.003619
v -0.003596 0.000404 0.004065
v -0.003596 -0.000404 0.004065
v -0.004153 -0.000404 0.004621
v -0.004153 0.000404 0.004621
v -0.004592 0.000391 0.003976
v -0.004592 -0.000391 0.003976
v -0.003154 0.000391 0.004379
v -0.003154 -0.000391 0.004379
v -0.004002 -0.000391 0.003100
v -0.004002 0.000391 0.003100
v -0.002671 0.000394 0.004518
v -0.002671 -0.000394 0.004518
v -0.003468 -0.000391 0.005101
v -0.003468 0.000391 0.005101
v -0.002757 -0.000394 0.005300
v -0.002757 0.000394 0.005300
v -0.004783 -0.000391 0.003198
v -0.004783 0.000391 0.003198
v -0.004013 -0.000394 0.002520
v -0.004013 0.000394 0.002520
v 0.001127 -0.000391 -0.003682
v 0.000813 -0.000404 -0.004125
v 0.001369 -0.000404 -0.004681
v 0.001850 -0.000391 -0.003996
v 0.000367 -0.000391 -0.004420
v 0.000725 -0.000391 -0.005121
v -0.000053 -0.000391 -0.005311
v -0.000152 -0.000391 -0.004530
v 0.000813 0.000404 -0.004125
v 0.000367 0.000391 -0.004420
v 0.000725 0.000391 -0.005121
v 0.001369 0.000404 -0.004681
v 0.001127 0.000391 -0.003682
v -0.000152 0.000391 -0.004530
v 0.001266 -0.000394 -0.003200
v 0.001266 0.000394 -0.003200
v 0.001850 0.000391 -0.003996
v 0.002048 -0.000394 -0.003285
v 0.002048 0.000394 -0.003285
v -0.000053 0.000391 -0.005311
v 0.002077 -0.000394 0.002660
v 0.002077 0.000394 0.002660
v 0.002048 0.000394 0.003285
v 0.002048 -0.000394 0.003285
v -0.000053 -0.000391 0.005311
v 0.000725 -0.000391 0.005121
v 0.000725 0.000391 0.005121
v -0.000053 0.000391 0.005311
v 0.001850 0.000391 0.003996
v 0.001850 -0.000391 0.003996
v 0.001369 0.000404 0.004681
v 0.001369 -0.000404 0.004681
v 0.001127 -0.000391 0.003682
v 0.001127 0.000391 0.003682
v 0.001266 0.000394 0.003200
v 0.001266 -0.000394 0.003200
v 0.001289 -0.000394 -0.002660
v 0.001289 -0.000394 0.002660
v 0.001289 0.000394 0.002660
v 0.001289 0.000394 -0.002660
v 0.002077 -0.000394 -0.002660
v 0.002077 0.000394 -0.002660
v -0.000152 -0.000391 0.004530
v -0.000152 0.000391 0.004530
v 0.000367 0.000391 0.004420
v 0.000367 -0.000391 0.004420
v 0.000813 -0.000404 0.004125
v 0.000813 0.000404 0.004125
v -0.003892 -0.000391 -0.003619
v -0.003596 -0.000404 -0.004065
v -0.003596 0.000404 -0.004065
v -0.003892 0.000391 -0.003619
v -0.004153 -0.000404 -0.004621
v -0.004592 -0.000391 -0.003976
v -0.004592 0.000391 -0.003976
v -0.004153 0.000404 -0.004621
v -0.003154 -0.000391 -0.004379
v -0.003154 0.000391 -0.004379
v -0.004002 -0.000391 -0.003100
v -0.004002 0.000391 -0.003100
v -0.002671 -0.000394 -0.004518
v -0.002671 0.000394 -0.004518
v -0.003468 -0.000391 -0.005101
v -0.003468 0.000391 -0.005101
v -0.002757 -0.000394 -0.005300
v -0.002757 0.000394 -0.005300
v -0.004783 -0.000391 -0.003198
v -0.004783 0.000391 -0.003198
v -0.000732 -0.000394 -0.004541
v -0.002132 -0.000394 -0.004541
v -0.002132 -0.000394 -0.005329
v -0.000732 -0.000394 -0.005329
v -0.000732 0.000394 -0.004541
v -0.002132 0.000394 -0.004541
v -0.000732 0.000394 -0.005329
v -0.002132 0.000394 -0.005329
v -0.002132 0.000394 0.004541
v -0.002132 -0.000394 0.004541
v -0.002132 -0.000394 0.005329
v -0.002132 0.000394 0.005329
v -0.000732 -0.000394 0.004541
v -0.000732 -0.000394 0.005329
v -0.000732 0.000394 0.004541
v -0.000732 0.000394 0.005329
v -0.004801 -0.000394 -0.002520
v -0.004801 0.000394 -0.002520
v -0.004013 -0.000394 -0.002520
v -0.003882 0.000000 -0.000105
v -0.004013 0.000394 -0.002520
vn -0.716483 -0.678610 -0.161473
vn -0.716483 0.678610 -0.161473
vn 0.205786 0.000000 -0.978576
vn 0.606952 -0.749962 -0.262886
vn 0.606952 0.749962 -0.262886
vn 0.470992 0.754357 -0.457228
vn 0.470992 -0.754357 -0.457228
vn -0.526444 -0.673696 0.518632
vn -0.526444 0.673696 0.518632
vn -0.683554 0.666280 0.297952
vn -0.683554 -0.666280 0.297952
vn 0.295236 0.744652 -0.598559
vn 0.295236 -0.744652 -0.598559
vn 0.680685 -0.728568 -0.076174
vn 0.680685 0.728568 -0.076174
vn 0.107608 0.735038 -0.669393
vn 0.107608 -0.735038 -0.669393
vn -0.314402 -0.668172 0.674276
vn -0.314402 0.668172 0.674276
vn -0.116825 -0.683004 0.720969
vn -0.116825 0.683004 0.720969
vn -0.723289 -0.683493 0.098239
vn -0.723289 0.683493 0.098239
vn 0.680715 -0.730949 -0.047823
vn 0.680715 0.730949 -0.047823
vn -0.598559 -0.744652 0.295236
vn -0.457228 -0.754357 0.470992
vn 0.518632 -0.673696 -0.526444
vn 0.674276 -0.668172 -0.314402
vn -0.262886 -0.749962 0.606952
vn 0.297952 -0.666280 -0.683554
vn 0.098239 -0.683493 -0.723289
vn -0.076174 -0.728568 0.680685
vn -0.457228 0.754357 0.470992
vn -0.262886 0.749962 0.606952
vn 0.297952 0.666280 -0.683554
vn 0.518632 0.673696 -0.526444
vn -0.598559 0.744652 0.295236
vn -0.076174 0.728568 0.680685
vn -0.669393 -0.735038 0.107608
vn -0.669393 0.735038 0.107608
vn 0.674276 0.668172 -0.314402
vn 0.720969 -0.683004 -0.116825
vn 0.720969 0.683004 -0.116825
vn 0.098239 0.683493 -0.723289
vn 0.712027 -0.701926 0.016480
vn 0.712027 0.701926 0.016480
vn 0.720969 0.683004 0.116825
vn 0.720969 -0.683004 0.116825
vn 0.098239 -0.683493 0.723289
vn 0.297952 -0.666280 0.683554
vn 0.297952 0.666280 0.683554
vn 0.098239 0.683493 0.723289
vn 0.674276 0.668172 0.314402
vn 0.674276 -0.668172 0.314402
vn 0.518632 0.673696 0.526444
vn 0.518632 -0.673696 0.526444
vn -0.598559 -0.744652 -0.295236
vn -0.598559 0.744652 -0.295236
vn -0.669393 0.735038 -0.107608
vn -0.669393 -0.735038 -0.107608
vn -0.701987 -0.711997 0.015198
vn -0.701987 -0.711997 -0.015198
vn -0.701987 0.711997 -0.015198
vn -0.701987 0.711997 0.015198
vn 0.712027 -0.701926 -0.016480
vn 0.712027 0.701926 -0.016480
vn -0.076174 -0.728568 -0.680685
vn -0.076174 0.728568 -0.680685
vn -0.262886 0.749962 -0.606952
vn -0.262886 -0.749962 -0.606952
vn -0.457228 -0.754357 -0.470992
vn -0.457228 0.754357 -0.470992
vn 0.606952 -0.749962 0.262886
vn 0.470992 -0.754357 0.457228
vn 0.470992 0.754357 0.457228
vn 0.606952 0.749962 0.262886
vn -0.526444 -0.673666 -0.518632
vn -0.683554 -0.666280 -0.297952
vn -0.683554 0.666280 -0.297952
vn -0.526444 0.673696 -0.518632
vn 0.295236 -0.744652 0.598559
vn 0.295236 0.744652 0.598559
vn 0.680685 -0.728568 0.076174
vn 0.680685 0.728568 0.076174
vn 0.107608 -0.735038 0.669393
vn 0.107608 0.735038 0.669393
vn -0.314402 -0.668172 -0.674276
vn -0.314402 0.668172 -0.674276
vn -0.116825 -0.683004 -0.720969
vn -0.116825 0.683004 -0.720969
vn -0.723289 -0.683493 -0.098239
vn -0.723289 0.683493 -0.098239
vn -0.005402 -0.709738 0.704428
vn 0.015198 -0.711997 0.701987
vn -0.016480 -0.701926 -0.712027
vn 0.010773 -0.704581 -0.709525
vn -0.005402 0.709738 0.704428
vn 0.015198 0.711997 0.701987
vn 0.010773 0.704581 -0.709525
vn -0.016480 0.701926 -0.712027
vn 0.015198 0.711997 -0.701987
vn 0.015198 -0.711997 -0.701987
vn -0.016480 -0.701926 0.712027
vn -0.016480 0.701926 0.712027
vn -0.005402 -0.709738 -0.704428
vn 0.010773 -0.704581 0.709525
vn -0.005402 0.709738 -0.704428
vn 0.010773 0.704581 0.709525
vn -0.716483 -0.678610 0.161473
vn -0.716483 0.678610 0.161473
vn 0.680715 -0.730949 0.047823
vn 0.205786 0.000000 0.978576
vn 0.680715 0.730949 0.047823
s 1
f 1//1 2//2 3//3
f 4//4 5//5 6//6
f 4//4 6//6 7//7
f 8//8 9//9 10//10
f 8//8 10//10 11//11
f 7//7 6//6 12//12
f 7//7 12//12 13//13
f 14//14 15//15 5//5
f 14//14 5//5 4//4
f 13//13 12//12 16//16
f 13//13 16//16 17//17
f 18//18 19//19 9//9
f 18//18 9//9 8//8
f 20//20 21//21 19//19
f 20//20 19//19 18//18
f 22//22 11//11 10//10
f 22//22 10//10 23//23
f 24//24 25//25 15//15
f 24//24 15//15 14//14
f 22//22 14//14 4//4
f 22//22 4//4 11//11
f 7//7 8//8 11//11
f 7//7 11//11 4//4
f 13//13 18//18 8//8
f 13//13 8//8 7//7
f 17//17 20//20 18//18
f 17//17 18//18 13//13
f 21//21 16//16 12//12
f 21//21 12//12 19//19
f 6//6 9//9 19//19
f 6//6 19//19 12//12
f 5//5 10//10 9//9
f 5//5 9//9 6//6
f 15//15 23//23 10//10
f 15//15 10//10 5//5
f 26//26 27//27 28//28
f 26//26 28//28 29//29
f 27//27 30//30 31//31
f 27//27 31//31 28//28
f 32//32 31//31 30//30
f 32//32 30//30 33//33
f 30//30 27//27 34//34
f 30//30 34//34 35//35
f 28//28 31//31 36//36
f 28//28 36//36 37//37
f 27//27 26//26 38//38
f 27//27 38//38 34//34
f 33//33 30//30 35//35
f 33//33 35//35 39//39
f 26//26 40//40 41//41
f 26//26 41//41 38//38
f 29//29 28//28 37//37
f 29//29 37//37 42//42
f 43//43 29//29 42//42
f 43//43 42//42 44//44
f 32//32 45//45 36//36
f 32//32 36//36 31//31
f 40//40 26//26 29//29
f 40//40 29//29 43//43
f 44//44 42//42 38//38
f 44//44 38//38 41//41
f 34//34 38//38 42//42
f 34//34 42//42 37//37
f 35//35 34//34 37//37
f 35//35 37//37 36//36
f 39//39 35//35 36//36
f 39//39 36//36 45//45
f 46//46 47//47 48//48
f 46//46 48//48 49//49
f 50//50 51//51 52//52
f 50//50 52//52 53//53
f 49//49 48//48 54//54
f 49//49 54//54 55//55
f 55//55 54//54 56//56
f 55//55 56//56 57//57
f 58//58 59//59 60//60
f 58//58 60//60 61//61
f 62//62 63//63 64//64
f 62//62 64//64 65//65
f 46//46 66//66 67//67
f 46//46 67//67 47//47
f 65//65 64//64 47//47
f 65//65 47//47 67//67
f 66//66 46//46 63//63
f 66//66 63//63 62//62
f 68//68 69//69 70//70
f 68//68 70//70 71//71
f 72//72 73//73 59//59
f 72//72 59//59 58//58
f 57//57 56//56 52//52
f 57//57 52//52 51//51
f 71//71 70//70 73//73
f 71//71 73//73 72//72
f 61//61 60//60 64//64
f 61//61 64//64 63//63
f 50//50 68//68 71//71
f 50//50 71//71 51//51
f 72//72 57//57 51//51
f 72//72 51//51 71//71
f 58//58 55//55 57//57
f 58//58 57//57 72//72
f 61//61 49//49 55//55
f 61//61 55//55 58//58
f 61//61 63//63 46//46
f 61//61 46//46 49//49
f 48//48 47//47 64//64
f 48//48 64//64 60//60
f 48//48 60//60 59//59
f 48//48 59//59 54//54
f 73//73 56//56 54//54
f 73//73 54//54 59//59
f 70//70 52//52 56//56
f 70//70 56//56 73//73
f 69//69 53//53 52//52
f 69//69 52//52 70//70
f 40//40 62//62 65//65
f 40//40 65//65 41//41
f 40//40 43//43 66//66
f 40//40 66//66 62//62
f 44//44 41//41 65//65
f 44//44 65//65 67//67
f 66//66 43//43 44//44
f 66//66 44//44 67//67
f 74//74 75//75 76//76
f 74//74 76//76 77//77
f 78//78 79//79 80//80
f 78//78 80//80 81//81
f 75//75 82//82 83//83
f 75//75 83//83 76//76
f 84//84 74//74 77//77
f 84//84 77//77 85//85
f 82//82 86//86 87//87
f 82//82 87//87 83//83
f 88//88 78//78 81//81
f 88//88 81//81 89//89
f 90//90 88//88 89//89
f 90//90 89//89 91//91
f 92//92 93//93 80//80
f 92//92 80//80 79//79
f 92//92 79//79 74//74
f 92//92 74//74 84//84
f 75//75 74//74 79//79
f 75//75 79//79 78//78
f 82//82 75//75 78//78
f 82//82 78//78 88//88
f 86//86 82//82 88//88
f 86//86 88//88 90//90
f 91//91 89//89 83//83
f 91//91 83//83 87//87
f 76//76 83//83 89//89
f 76//76 89//89 81//81
f 77//77 76//76 81//81
f 77//77 81//81 80//80
f 85//85 77//77 80//80
f 85//85 80//80 93//93
f 94//94 95//95 96//96
f 94//94 96//96 97//97
f 95//95 94//94 98//98
f 95//95 98//98 99//99
f 99//99 98//98 100//100
f 99//99 100//100 101//101
f 97//97 96//96 101//101
f 97//97 101//101 100//100
f 24//24 1//1 3//3
f 3//3 25//25 24//24
f 3//3 2//2 25//25
f 17//17 16//16 102//102
f 17//17 102//102 103//103
f 1//1 22//22 23//23
f 1//1 23//23 2//2
f 104//104 105//105 21//21
f 104//104 21//21 20//20
f 1//1 24//24 14//14
f 1//1 14//14 22//22
f 17//17 103//103 104//104
f 17//17 104//104 20//20
f 21//21 105//105 102//102
f 21//21 102//102 16//16
f 25//25 2//2 23//23
f 25//25 23//23 15//15
f 106//106 107//107 104//104
f 106//106 104//104 103//103
f 103//103 102//102 108//108
f 103//103 108//108 106//106
f 102//102 105//105 109//109
f 102//102 109//109 108//108
f 107//107 109//109 105//105
f 107//107 105//105 104//104
f 94//94 33//33 39//39
f 94//94 39//39 98//98
f 33//33 94//94 97//97
f 33//33 97//97 32//32
f 97//97 100//100 45//45
f 97//97 45//45 32//32
f 45//45 100//100 98//98
f 45//45 98//98 39//39
f 106//106 108//108 69//69
f 106//106 69//69 68//68
f 107//107 50//50 53//53
f 107//107 53//53 109//109
f 68//68 50//50 107//107
f 68//68 107//107 106//106
f 53//53 69//69 108//108
f 53//53 108//108 109//109
f 86//86 95//95 99//99
f 86//86 99//99 87//87
f 110//110 111//111 93//93
f 110//110 93//93 92//92
f 96//96 90//90 91//91
f 96//96 91//91 101//101
f 84//84 112//112 110//110
f 84//84 110//110 92//92
f 86//86 90//90 96//96
f 86//86 96//96 95//95
f 91//91 87//87 99//99
f 91//91 99//99 101//101
f 113//113 110//110 112//112
f 113//113 112//112 114//114
f 114//114 111//111 113//113
f 111//111 110//110 113//113
f 112//112 84//84 85//85
f 112//112 85//85 114//114
f 93//93 111//111 114//114
f 93//93 114//114 85//85
