ply
format ascii 1.0
comment This file is a part of the OpenSurgSim project.
comment Copyright 2013, SimQuest Solutions Inc.
comment 
comment Licensed under the Apache License, Version 2.0 (the "License");
comment you may not use this file except in compliance with the License.
comment You may obtain a copy of the License at
comment 
comment     http://www.apache.org/licenses/LICENSE-2.0
comment 
comment Unless required by applicable law or agreed to in writing, software
comment distributed under the License is distributed on an "AS IS" BASIS,
comment WITHOUT WARRANTIES OR CONDITIONS OF ANY KIND, either express or implied.
comment See the License for the specific language governing permissions and
comment limitations under the License.
comment
comment This file provides the geometry which describes a tetrahedral mesh in an
comment arm containing a wound.
comment
element vertex 391
property float x
property float y
property float z
element face 407
property list uint uint vertex_indices
end_header
-0.017638 0.001427 -0.012363
-0.018984 0.002069 -0.016867
-0.014913 -0.001358 -0.015090
-0.018090 -0.001832 -0.017359
0.012643 -0.002455 0.001226
0.009376 -0.006324 0.003409
0.015479 -0.002289 0.003265
0.014119 -0.002367 0.007046
-0.000236 -0.006438 -0.015323
-0.003732 -0.004010 -0.013609
0.002155 -0.000546 -0.013612
0.001262 -0.001523 -0.018049
0.019667 -0.017785 0.008674
0.029299 -0.005262 0.004546
0.046990 -0.020879 0.007375
0.037332 -0.020768 -0.005328
0.033586 -0.016523 0.018450
0.034101 -0.002031 0.016309
0.033392 -0.002474 0.009623
0.025349 -0.003774 0.014192
0.019145 0.004850 0.012264
0.020216 0.004879 0.011113
0.020968 0.001399 0.010219
0.018687 0.001314 0.008476
-0.007352 0.001018 0.005860
-0.007333 -0.005722 0.014291
-0.013652 -0.000173 0.002866
-0.007113 -0.008223 -0.002577
-0.006477 -0.004144 -0.015932
-0.010957 -0.004967 -0.018490
-0.007629 -0.006377 -0.018801
-0.009906 -0.007928 -0.014976
0.014105 -0.020914 -0.009294
0.009112 -0.006286 -0.008604
0.006268 -0.009189 -0.014543
0.002300 -0.008261 -0.009596
0.006635 0.000026 -0.006193
0.010115 -0.000309 -0.007852
0.005102 -0.004418 -0.008996
-0.006609 0.001420 -0.025080
-0.011057 -0.007486 -0.026293
-0.008811 0.000184 -0.034044
-0.005338 -0.005470 -0.024596
0.001259 0.002603 0.004418
0.000123 0.002377 -0.000362
0.002998 0.002713 0.001375
0.002769 -0.002124 0.003090
-0.020005 -0.002711 -0.020006
-0.021803 0.001971 -0.019803
-0.021059 0.001058 -0.014582
0.014631 0.000524 0.027783
0.022184 -0.002620 0.021520
0.018739 -0.011699 0.030717
0.015337 -0.003630 0.015467
0.016049 0.003671 -0.002811
0.018898 0.003898 -0.000351
0.014287 0.000683 -0.000350
0.019319 -0.000205 -0.003032
0.046990 -0.007619 0.007375
0.040075 -0.002131 -0.002012
0.037332 -0.007509 -0.005328
-0.011140 0.001039 -0.002776
-0.014033 -0.006140 -0.001762
-0.016684 0.000633 -0.005670
-0.011809 -0.002190 -0.009170
0.024204 0.005929 0.015670
0.026606 0.006410 0.017058
0.023576 0.006924 0.019679
0.024566 0.001831 0.017759
0.013743 0.004124 0.008547
0.011935 0.004109 0.005502
0.014670 0.004333 0.007344
0.012704 0.000753 0.008033
-0.003034 -0.009956 -0.020825
-0.006038 -0.007999 -0.012282
0.014736 0.003042 -0.006304
0.014286 -0.003192 -0.009813
0.014065 0.002151 -0.010793
0.019818 -0.002939 -0.008113
0.036755 0.006575 0.019271
0.036907 0.001084 0.018946
0.033263 0.001097 0.023070
0.033376 0.002597 0.017918
0.022543 0.001069 0.006601
0.020245 -0.001947 0.007184
0.019727 0.001041 0.004292
0.023642 -0.002413 0.005541
0.029219 0.001517 -0.003210
0.022506 -0.007309 -0.002980
0.013584 0.001132 0.004599
0.015737 0.001218 0.006218
0.015374 -0.005687 -0.005108
0.019027 -0.006775 -0.014839
0.030475 0.001257 0.015552
0.027297 -0.001544 0.019319
-0.006877 -0.002740 -0.012407
-0.009683 -0.005474 -0.007552
-0.008963 -0.000571 -0.011342
-0.009123 -0.005772 -0.011405
0.006753 0.004254 0.022359
0.010408 0.004267 0.016270
0.015903 0.005679 0.020105
0.017492 0.000471 0.018668
-0.018916 -0.006283 -0.013171
-0.013552 -0.004660 -0.011679
-0.015191 -0.008193 -0.008642
-0.014454 -0.008852 -0.015804
0.016241 0.004334 0.010184
0.017210 0.004543 0.009049
0.012207 0.000507 -0.002006
0.015357 0.000245 -0.003791
0.007154 -0.001854 0.005752
0.011373 -0.002515 0.009976
0.009600 -0.002702 0.003200
0.022251 -0.002063 0.015960
0.021468 -0.001789 0.012242
0.017030 0.000365 0.013057
0.020308 0.001792 0.013974
0.013639 -0.003166 -0.002562
0.011924 -0.003711 -0.006304
-0.014146 -0.020429 -0.047689
-0.014146 -0.007170 -0.047689
-0.024140 -0.017967 -0.040188
-0.012259 -0.006676 -0.033836
0.002537 -0.008403 -0.037874
-0.001499 -0.000057 -0.029561
-0.000610 -0.002936 -0.039936
0.031048 0.003384 0.005728
0.031021 0.004616 0.009841
0.029058 -0.002228 0.009819
-0.017817 -0.005609 -0.020805
-0.021077 -0.009144 -0.020053
-0.019782 -0.005521 -0.017072
-0.021431 -0.005952 -0.022335
0.028581 0.004545 0.037841
0.022848 0.002598 0.033651
0.026518 0.008415 0.028378
-0.008942 -0.024739 -0.008176
-0.020167 -0.001455 -0.000035
-0.019937 -0.006669 -0.033633
-0.011533 -0.022757 -0.029013
0.025681 0.001454 0.013298
0.021352 0.005330 0.013823
0.022555 0.005159 0.012575
-0.018697 -0.003565 -0.023866
-0.003741 -0.007976 -0.007476
-0.004960 -0.004029 -0.006795
0.035352 0.005531 0.016102
0.033038 0.004995 0.012719
0.036201 0.003833 0.011247
-0.014781 0.002213 -0.020373
-0.016880 -0.002824 -0.021921
-0.016398 0.001977 -0.024375
-0.013707 -0.002037 -0.021513
-0.001967 0.002359 -0.017593
-0.005030 0.002252 -0.019030
-0.000406 0.001476 -0.021158
-0.003015 -0.003057 -0.018944
0.005527 0.000425 -0.000868
0.005663 0.003045 0.003152
0.003921 0.003399 0.000160
-0.015527 -0.005152 -0.022539
-0.015560 -0.006666 -0.026900
-0.014996 -0.002896 -0.024296
-0.013917 -0.007956 -0.024021
0.004887 -0.021029 0.001820
0.002057 -0.006870 -0.003212
0.022552 -0.001675 0.009108
-0.024489 0.000741 -0.016918
-0.024391 0.001936 -0.022406
-0.024601 -0.004739 -0.018778
0.006850 -0.006797 -0.004277
0.004032 -0.004089 -0.000551
0.012333 0.004106 0.011509
0.005130 0.003275 0.012820
0.007317 0.003436 0.008224
-0.004058 0.001878 0.001264
-0.014203 0.001575 -0.029189
-0.010570 -0.002455 -0.021860
-0.012199 0.002106 -0.022621
-0.025827 -0.009187 -0.021112
-0.021601 -0.004637 -0.026044
-0.017290 -0.008529 -0.023047
-0.013967 -0.002130 -0.018341
-0.014398 -0.004396 -0.019489
-0.016250 -0.002623 -0.019238
0.002921 -0.006003 -0.021793
0.009600 0.002834 -0.010048
0.012195 0.002939 -0.008156
0.014492 -0.021349 -0.029300
0.026117 -0.020765 -0.017965
0.014492 -0.008090 -0.029300
0.002621 -0.007830 -0.029082
0.008423 0.000639 0.001153
0.030678 0.007333 0.019744
0.026656 0.007758 0.022058
0.020949 0.007122 0.023900
0.024451 0.002704 0.023354
-0.023157 -0.024020 -0.019768
0.029177 0.003608 0.018712
0.012003 0.005360 0.025917
0.004293 -0.015189 0.020860
0.002537 -0.021663 -0.037874
0.017564 -0.002515 -0.026912
0.011421 -0.002833 -0.031689
0.011215 0.000322 -0.020415
0.002635 0.003021 -0.012333
0.001235 0.002490 -0.015739
0.004272 0.002632 -0.013690
-0.002997 0.002057 -0.002458
-0.002614 -0.004314 -0.002919
0.003125 -0.022994 -0.021280
-0.005395 -0.000823 -0.013764
-0.008954 -0.001258 -0.015629
-0.003834 0.002652 -0.016057
-0.007047 -0.000971 -0.018908
0.010433 -0.002408 -0.000327
0.007502 -0.002301 -0.002415
0.009372 0.000321 -0.004108
0.025152 0.001195 0.009053
0.016960 0.000956 0.001995
0.019875 -0.003369 -0.000014
0.030751 0.008190 0.022981
0.006170 -0.006701 0.007879
0.004293 -0.001930 0.020860
-0.000653 -0.004919 0.008637
-0.014173 -0.021266 0.011121
-0.017277 -0.006019 -0.017796
0.023544 -0.000939 0.002037
-0.009768 -0.009134 -0.022027
-0.009580 -0.002948 -0.014062
-0.011797 -0.001691 -0.017176
-0.010204 0.002309 -0.009891
-0.011598 0.001574 -0.008061
-0.008708 0.001627 -0.006285
0.034635 0.001794 0.002947
0.039472 0.002062 0.008665
-0.015907 -0.007981 -0.018944
-0.020598 0.001813 -0.025718
-0.045621 -0.006163 -0.019740
-0.040582 -0.008149 -0.025424
-0.042936 -0.004004 -0.023210
-0.038274 -0.003561 -0.017712
-0.025030 -0.004697 -0.013625
-0.023215 -0.000003 -0.009663
-0.021118 -0.002997 -0.014161
-0.004112 0.000695 0.015891
-0.016389 -0.004557 -0.019826
-0.003547 -0.002715 -0.010257
-0.001840 -0.000524 -0.011726
-0.000903 -0.002832 -0.008443
-0.001161 -0.006198 -0.011121
0.026165 -0.000632 0.016453
0.025651 0.005503 0.014190
-0.045621 -0.011579 -0.019740
-0.040582 -0.021408 -0.025424
-0.032217 -0.008366 -0.016728
0.000124 -0.006312 0.001727
0.017517 -0.002166 0.004909
0.011949 -0.006639 -0.000263
0.023286 0.001530 0.011808
-0.013427 -0.006320 -0.020900
0.005159 0.001722 -0.017378
0.006008 -0.003221 -0.013176
0.044680 -0.002154 0.004195
-0.000907 0.002148 0.009167
0.018182 0.005343 0.015586
0.043927 0.001725 0.025605
-0.012854 0.002261 -0.012050
-0.014517 0.001574 -0.010230
-0.011668 -0.001006 -0.012914
-0.008316 0.002150 -0.020675
-0.010664 0.002390 -0.018678
-0.021013 -0.010291 0.007951
-0.014146 -0.001754 -0.047689
-0.008422 -0.002312 -0.044596
-0.015684 0.000035 -0.039467
-0.034331 -0.001228 -0.022520
-0.031662 -0.007124 -0.023091
-0.031224 -0.014703 0.002956
-0.022628 -0.011995 -0.002126
-0.025924 -0.004114 -0.023568
0.027872 -0.000761 0.013734
-0.034591 -0.000064 -0.031338
-0.029145 0.000494 -0.024321
-0.028017 -0.005001 -0.028032
0.027902 0.001681 0.011326
0.025087 -0.001165 0.011230
-0.021752 0.000419 -0.042010
-0.026528 0.000997 -0.038365
-0.024140 -0.004708 -0.040188
-0.020978 0.001288 -0.033343
-0.040551 -0.026143 -0.010199
-0.023197 -0.010713 -0.012877
-0.040551 -0.012883 -0.010199
0.004485 -0.000007 -0.025484
0.010626 0.000849 0.002651
-0.028255 0.000295 -0.019377
0.013332 0.003514 -0.005048
0.012798 0.000333 -0.005951
-0.015803 0.002187 -0.014369
-0.013341 -0.003209 -0.016395
0.004675 -0.002400 -0.004481
0.002779 0.000374 -0.003048
0.026117 -0.007505 -0.017965
0.028859 -0.001994 -0.015040
-0.018952 -0.009957 -0.016014
-0.017184 -0.003861 -0.014796
0.020301 0.003439 -0.001538
0.046716 -0.013576 0.023724
0.055055 -0.021059 0.018567
0.055055 -0.007800 0.018567
-0.007396 0.002390 -0.007873
0.001875 -0.002670 -0.006494
0.038019 -0.008659 0.029998
-0.008029 -0.002626 -0.003881
-0.005500 -0.000144 -0.009081
-0.016373 -0.003539 -0.018074
-0.010554 -0.001307 0.012690
0.049300 -0.002253 0.010554
0.038759 -0.002166 0.014632
0.005684 -0.003039 -0.035812
0.038019 0.004600 0.029998
0.038019 0.010016 0.029998
-0.026286 -0.002491 -0.003954
0.017414 0.003222 -0.004081
0.044485 0.002423 0.015009
0.040181 0.004389 0.016007
-0.000017 0.000235 -0.005153
-0.033970 -0.003806 -0.010656
0.009082 0.001920 -0.014465
0.017757 0.000902 -0.014705
-0.030192 -0.001153 -0.014581
0.025315 0.003889 0.003730
0.024009 0.004399 0.004815
-0.000443 0.002808 -0.014194
0.005274 0.003135 -0.010676
0.006826 0.002728 -0.011961
0.008126 0.003261 -0.008819
0.003879 -0.000228 -0.008173
0.032342 0.006310 0.016942
0.023610 0.001317 -0.009141
0.028043 0.004252 0.006706
0.028016 -0.000536 0.005381
0.017259 0.006519 0.029649
-0.032441 -0.018179 -0.033098
0.022512 0.003646 0.000819
0.027741 0.001325 0.014450
0.028451 0.005830 0.015287
-0.017863 -0.003577 0.009446
0.021215 0.004148 0.001990
0.025358 0.002875 -0.000357
-0.025580 0.001252 -0.027579
-0.032441 -0.004919 -0.033098
-0.038228 -0.001462 -0.027638
-0.019666 0.002058 -0.021535
0.028581 -0.008715 0.037841
0.010757 0.003389 -0.006914
0.019618 0.002475 -0.006065
-0.031224 -0.009287 0.002956
-0.031224 -0.027962 0.002956
0.034589 -0.002055 -0.008644
-0.002831 -0.000029 -0.007070
-0.005830 0.001763 -0.004361
-0.038103 -0.007971 -0.006212
0.031060 0.005869 0.013961
-0.030292 0.001057 -0.034857
-0.024162 -0.006173 0.006457
-0.042999 -0.006964 -0.014187
0.001834 0.002718 0.019362
0.049505 -0.002359 0.021843
0.011040 0.003784 0.006750
-0.001834 0.002801 -0.003863
0.001083 0.003102 -0.001764
0.022848 0.008014 0.033651
0.023375 -0.002185 -0.020891
0.028581 0.009961 0.037841
0.006652 0.003669 0.002024
0.009164 0.003881 0.003676
0.008207 0.003356 0.004901
0.049505 0.003057 0.021843
0.055055 -0.002384 0.018567
0.001013 -0.000353 -0.009972
0.029329 0.005348 0.010717
-0.004550 0.002514 -0.005831
-0.007071 0.002482 -0.017312
0.046366 0.005522 0.023902
-0.045621 -0.024839 -0.019740
0.041488 0.008760 0.027307
0.033206 0.010046 0.034162
0.026563 0.004882 0.007661
3 43 45 44
3 65 67 66
3 69 71 70
3 99 101 100
3 61 63 138
3 65 143 142
3 147 149 148
3 154 156 155
3 159 160 45
3 168 48 169
3 173 175 174
3 43 44 176
3 187 188 77
3 67 196 195
3 66 67 195
3 150 179 152
3 203 204 205
3 206 208 207
3 176 44 209
3 232 233 234
3 235 127 236
3 48 49 1
3 239 242 241
3 253 143 65
3 87 235 59
3 152 179 177
3 41 39 125
3 179 272 271
3 274 276 275
3 283 277 284
3 266 107 173
3 288 289 291
3 48 168 49
3 208 262 207
3 156 262 295
3 297 169 284
3 142 67 65
3 188 298 75
3 268 300 269
3 300 0 269
3 312 232 234
3 1 49 0
3 236 127 149
3 233 63 61
3 265 24 318
3 319 264 236
3 321 126 125
3 79 222 323
3 276 288 291
3 107 71 69
3 149 327 326
3 269 63 233
3 49 244 0
3 77 331 330
3 332 168 297
3 268 269 233
3 142 20 266
3 325 54 55
3 262 330 205
3 0 244 63
3 195 136 222
3 336 338 337
3 79 340 194
3 246 174 265
3 195 222 194
3 26 138 349
3 333 346 350
3 351 333 127
3 169 352 284
3 325 55 308
3 244 332 324
3 241 242 277
3 354 241 277
3 39 271 155
3 59 235 264
3 169 355 238
3 205 204 295
3 20 108 107
3 335 154 214
3 87 341 358
3 358 351 87
3 107 69 173
3 359 324 329
3 41 177 39
3 326 319 236
3 100 173 174
3 359 329 364
3 214 154 155
3 154 335 207
3 283 354 277
3 142 143 21
3 289 366 291
3 348 253 66
3 138 367 349
3 368 329 242
3 361 305 341
3 77 341 331
3 232 268 233
3 338 187 337
3 174 369 100
3 100 369 99
3 43 265 174
3 265 43 176
3 127 333 342
3 154 207 156
3 196 200 344
3 188 187 357
3 188 75 77
3 173 371 175
3 340 348 194
3 372 44 373
3 147 340 79
3 333 350 334
3 126 41 125
3 330 262 208
3 291 366 352
3 374 376 136
3 351 346 333
3 377 379 378
3 331 375 205
3 355 152 238
3 380 381 326
3 234 233 61
3 367 324 359
3 196 101 200
3 342 128 127
3 188 357 298
3 379 371 378
3 358 325 308
3 383 148 128
3 177 291 238
3 138 324 367
3 136 344 374
3 173 101 266
3 168 169 297
3 149 326 236
3 209 372 384
3 108 71 107
3 337 187 330
3 149 127 128
3 357 187 338
3 373 45 160
3 173 100 101
3 265 318 246
3 101 99 200
3 21 108 20
3 24 265 176
3 55 346 308
3 371 70 378
3 152 177 238
3 351 127 235
3 168 244 49
3 26 61 138
3 305 375 331
3 266 101 196
3 156 295 125
3 168 332 244
3 308 346 351
3 366 283 284
3 329 332 242
3 244 138 63
3 177 179 39
3 136 196 344
3 361 87 59
3 77 358 341
3 373 44 45
3 327 79 386
3 207 262 156
3 148 149 128
3 55 350 346
3 222 79 194
3 332 297 277
3 39 155 156
3 147 148 365
3 242 332 277
3 187 77 330
3 1 0 300
3 372 209 44
3 246 369 174
3 26 349 318
3 26 318 24
3 332 329 324
3 155 271 385
3 156 125 39
3 271 272 385
3 364 329 368
3 175 379 159
3 348 66 194
3 383 365 148
3 136 389 222
3 342 390 383
3 326 327 386
3 126 275 41
3 323 222 389
3 277 297 284
3 142 266 67
3 173 69 371
3 75 298 54
3 380 326 386
3 381 319 326
3 388 79 323
3 308 351 358
3 352 169 238
3 386 79 388
3 136 376 389
3 239 368 242
3 208 337 330
3 358 75 325
3 77 75 358
3 253 65 66
3 0 63 269
3 361 341 87
3 204 321 295
3 266 20 107
3 147 365 340
3 43 174 175
3 75 54 325
3 128 342 383
3 150 272 179
3 266 196 67
3 175 159 43
3 312 363 384
3 351 235 87
3 355 150 152
3 206 336 208
3 214 155 385
3 147 79 327
3 208 336 337
3 291 177 41
3 363 234 61
3 363 312 234
3 371 69 70
3 274 288 276
3 159 377 160
3 66 195 194
3 330 331 205
3 321 125 295
3 342 334 390
3 176 363 61
3 26 176 61
3 375 203 205
3 379 175 371
3 341 305 331
3 291 41 276
3 24 176 26
3 262 205 295
3 209 363 176
3 276 41 275
3 159 45 43
3 335 206 207
3 20 142 21
3 366 284 352
3 147 327 149
3 39 179 271
3 209 384 363
3 379 377 159
3 264 235 236
3 333 334 342
3 195 196 136
3 244 324 138
3 291 352 238
3 1 2 3
3 21 22 23
3 47 48 3
3 108 23 90
3 48 1 3
3 253 141 143
3 268 270 2
3 2 300 268
3 97 232 312
3 97 312 316
3 23 22 167
3 48 47 169
3 6 90 258
3 317 47 3
3 193 4 216
3 95 97 316
3 4 193 296
3 4 89 6
3 282 347 93
3 348 347 253
3 316 250 248
3 89 90 6
3 372 373 303
3 2 230 301
3 143 141 260
3 70 89 296
3 377 378 296
3 301 317 2
3 282 141 347
3 328 302 313
3 141 253 347
3 71 90 89
3 328 384 372
3 108 90 71
3 328 303 302
3 217 158 216
3 373 160 158
3 21 23 108
3 378 70 296
3 22 287 167
3 312 362 316
3 89 4 296
3 143 260 21
3 328 313 362
3 1 300 2
3 270 268 232
3 22 260 287
3 316 362 250
3 84 90 23
3 71 89 70
3 141 282 287
3 230 2 270
3 193 216 158
3 362 313 250
3 270 232 97
3 348 340 93
3 84 258 90
3 312 384 362
3 377 296 193
3 193 158 160
3 373 158 303
3 377 193 160
3 317 3 2
3 95 230 97
3 230 270 97
3 372 303 328
3 217 303 158
3 328 362 384
3 248 95 316
3 217 302 303
3 84 23 167
3 260 22 21
3 260 141 287
3 347 348 93
3 54 56 55
3 83 85 84
3 56 54 109
3 212 214 213
3 216 218 217
3 219 83 167
3 230 213 231
3 248 250 249
3 56 220 55
3 286 219 287
3 85 220 258
3 185 317 183
3 150 183 272
3 83 334 85
3 336 339 338
3 301 230 231
3 95 248 212
3 183 301 231
3 109 216 4
3 282 286 287
3 169 47 355
3 338 339 36
3 335 214 212
3 4 220 56
3 339 313 302
3 85 334 350
3 47 317 185
3 357 36 218
3 382 206 335
3 250 313 382
3 334 83 219
3 231 213 272
3 218 36 217
3 219 286 383
3 220 4 6
3 286 282 93
3 183 317 301
3 213 214 385
3 167 83 84
3 357 109 298
3 36 357 338
3 272 213 385
3 55 85 350
3 85 258 84
3 336 382 339
3 336 206 382
3 249 250 382
3 230 95 213
3 47 185 355
3 340 365 93
3 248 249 212
3 383 286 365
3 219 383 390
3 249 382 335
3 218 216 109
3 219 167 287
3 286 93 365
3 217 36 302
3 54 298 109
3 357 218 109
3 185 150 355
3 183 231 272
3 36 339 302
3 313 339 382
3 334 219 390
3 185 183 150
3 85 55 220
3 213 95 212
3 258 220 6
3 56 109 4
3 335 212 249
3 14 310 309
