ply
format ascii 1.0
comment Created by Blender 2.69 (sub 0) - www.blender.org, source file: ''
element vertex 47
property float x
property float y
property float z
element face 90
property list uchar uint vertex_indices
end_header
0.047435 0.013055 -0.068225
0.084014 0.012815 -0.069053
0.051680 0.012967 -0.081963
0.087618 0.012815 -0.078007
0.087252 0.012815 -0.072855
0.093381 0.009168 -0.075029
0.053247 0.000274 -0.095488
0.053158 0.012618 -0.095489
0.053770 0.012553 -0.171623
0.040193 -0.002075 -0.003943
0.040181 0.002438 -0.003942
0.031077 0.012547 -0.002857
0.042150 0.013145 -0.055658
0.041773 -0.012553 -0.200249
0.053914 0.000315 -0.171623
0.041773 0.012553 -0.200249
0.041857 -0.012671 -0.055498
0.001383 -0.012973 0.001003
0.041745 -0.006777 -0.055505
0.093407 -0.008919 -0.075029
0.093225 -0.008919 -0.072915
0.087259 -0.012815 -0.072864
0.097007 -0.002114 -0.074745
0.096695 -0.002115 -0.072931
0.096663 0.002390 -0.072653
0.096975 0.002390 -0.074467
0.047135 0.000183 -0.068208
0.051432 0.000232 -0.081950
0.051441 -0.012684 -0.082047
0.087618 -0.012815 -0.078007
0.087273 0.012815 -0.208561
0.087126 -0.012545 -0.208806
0.053770 -0.012553 -0.171623
0.047180 -0.012760 -0.068216
0.001677 0.005132 0.001007
0.001677 -0.004864 0.001007
0.084028 -0.012815 -0.069070
0.001383 0.012973 0.001003
0.041745 0.007044 -0.055505
0.053158 -0.012618 -0.095489
0.031072 -0.012547 -0.002857
0.036794 -0.008797 -0.003539
0.096317 -0.002055 -0.208811
0.092877 -0.008646 -0.208810
0.093182 0.009169 -0.072891
0.036639 0.008986 -0.003521
0.093242 0.009116 -0.208561
3 0 1 2
3 3 4 5
3 6 7 8
3 9 10 11
3 0 12 1
3 13 14 15
3 16 17 18
3 19 20 21
3 19 22 23
3 24 25 5
3 24 23 25
3 26 0 27
3 21 28 29
3 30 8 3
3 31 29 32
3 30 15 8
3 26 27 33
3 11 34 35
3 21 36 28
3 13 32 14
3 6 27 7
3 4 3 2
3 30 31 15
3 37 12 38
3 26 18 38
3 31 32 13
3 27 6 39
3 17 35 18
3 26 33 18
3 14 32 6
3 14 8 15
3 36 16 33
3 40 35 17
3 11 37 34
3 36 40 16
3 37 11 12
3 38 0 26
3 1 4 2
3 20 19 23
3 14 6 8
3 40 9 11
3 38 18 35
3 9 40 41
3 42 43 31
3 23 22 25
3 4 44 5
3 44 24 5
3 29 19 21
3 27 0 2
3 28 39 29
3 8 7 3
3 29 39 32
3 27 28 33
3 40 11 35
3 10 45 11
3 31 30 42
3 36 33 28
3 27 2 7
3 3 7 2
3 31 13 15
3 34 37 38
3 28 27 39
3 33 16 18
3 32 39 6
3 40 17 16
3 11 1 12
3 12 0 38
3 34 38 35
3 1 44 4
3 20 36 21
3 1 24 44
3 23 36 20
3 24 36 23
3 1 36 24
3 41 36 9
3 45 10 1
3 10 9 1
3 11 45 1
3 36 1 9
3 36 41 40
3 22 19 3
3 3 5 22
3 30 3 46
3 5 25 22
3 46 3 42
3 30 46 42
3 19 29 3
3 29 43 42
3 3 29 42
3 31 43 29
