ply
format ascii 1.0
comment Created by Blender 2.69 (sub 0) - www.blender.org, source file: ''
element vertex 26
property float x
property float y
property float z
property float nx
property float ny
property float nz
property float s
property float t
element face 12
property list uchar uint vertex_indices
end_header
1.000000 1.000000 -1.000000 0.000000 0.000000 -1.000000 0.000000 0.500000
1.000000 -1.000000 -1.000000 0.000000 0.000000 -1.000000 0.010000 0.510000
-1.000000 -1.000000 -1.000000 0.000000 0.000000 -1.000000 0.020000 0.520000
1.000000 0.999999 1.000000 -0.000000 -0.000000 1.000000 0.030000 0.530000
-1.000000 1.000000 1.000000 -0.000000 -0.000000 1.000000 0.040000 0.540000
0.999999 -1.000001 1.000000 -0.000000 -0.000000 1.000000 0.050000 0.550000
1.000000 1.000000 -1.000000 1.000000 0.000000 -0.000000 0.060000 0.560000
1.000000 0.999999 1.000000 1.000000 0.000000 -0.000000 0.070000 0.570000
1.000000 -1.000000 -1.000000 1.000000 0.000000 -0.000000 0.080000 0.580000
1.000000 -1.000000 -1.000000 -0.000000 -1.000000 -0.000000 0.090000 0.590000
0.999999 -1.000001 1.000000 -0.000000 -1.000000 -0.000000 0.100000 0.600000
-1.000000 -1.000000 -1.000000 -0.000000 -1.000000 -0.000000 0.110000 0.610000
-1.000000 -1.000000 -1.000000 -1.000000 0.000000 -0.000000 0.120000 0.620000
-1.000000 -1.000000 1.000000 -1.000000 0.000000 -0.000000 0.130000 0.630000
-1.000000 1.000000 1.000000 -1.000000 0.000000 -0.000000 0.140000 0.640000
1.000000 0.999999 1.000000 0.000000 1.000000 0.000000 0.150000 0.650000
1.000000 1.000000 -1.000000 0.000000 1.000000 0.000000 0.160000 0.660000
-1.000000 1.000000 1.000000 0.000000 1.000000 0.000000 0.170000 0.670000
-1.000000 1.000000 -1.000000 0.000000 0.000000 -1.000000 0.180000 0.680000
1.000000 0.999999 1.000000 1.000000 -0.000001 0.000000 0.190000 0.690000
0.999999 -1.000001 1.000000 1.000000 -0.000001 0.000000 0.200000 0.700000
1.000000 -1.000000 -1.000000 1.000000 -0.000001 0.000000 0.210000 0.710000
-1.000000 1.000000 -1.000000 0.000000 1.000000 0.000000 0.220000 0.720000
-1.000000 -1.000000 1.000000 0.000000 -0.000000 1.000000 0.230000 0.730000
-1.000000 1.000000 -1.000000 -1.000000 0.000000 -0.000000 0.240000 0.740000
-1.000000 -1.000000 1.000000 -0.000000 -1.000000 0.000000 0.250000 0.750000
3 0 1 2
3 3 4 5
3 6 7 8
3 9 10 11
3 12 13 14
3 15 16 17
3 18 0 2
3 19 20 21
3 16 22 17
3 4 23 5
3 24 12 14
3 10 25 11
