ply
format ascii 1.0
comment Created by Blender 2.71 (sub 0) - www.blender.org, source file: ''
element vertex 25
property float x
property float y
property float z
property float nx
property float ny
property float nz
element face 32
property list uchar uint vertex_indices
end_header
1.000000 0.000000 0.000000 -0.000000 0.000000 1.000000
1.000000 0.500000 0.000000 -0.000000 0.000000 1.000000
0.500000 0.500000 0.000000 -0.000000 0.000000 1.000000
0.000000 0.000000 0.000000 -0.000000 0.000000 1.000000
0.000000 0.500000 0.000000 -0.000000 0.000000 1.000000
-0.500000 0.500000 0.000000 -0.000000 0.000000 1.000000
0.000000 -1.000000 0.000000 -0.000000 0.000000 1.000000
0.000000 -0.500000 0.000000 -0.000000 0.000000 1.000000
-0.500000 -0.500000 0.000000 -0.000000 0.000000 1.000000
1.000000 -1.000000 0.000000 -0.000000 0.000000 1.000000
1.000000 -0.500000 0.000000 -0.000000 0.000000 1.000000
0.500000 -0.500000 0.000000 -0.000000 0.000000 1.000000
0.500000 0.000000 0.000000 0.000000 0.000000 1.000000
-1.000000 0.000000 0.000000 0.000000 0.000000 1.000000
-0.500000 0.000000 0.000000 0.000000 0.000000 1.000000
-1.000000 0.500000 0.000000 0.000000 0.000000 1.000000
-1.000000 -1.000000 0.000000 0.000000 0.000000 1.000000
-0.500000 -1.000000 0.000000 0.000000 0.000000 1.000000
-1.000000 -0.500000 0.000000 0.000000 0.000000 1.000000
0.500000 -1.000000 0.000000 0.000000 0.000000 1.000000
0.500000 1.000000 0.000000 -0.000000 0.000000 1.000000
0.000000 1.000000 0.000000 -0.000000 0.000000 1.000000
1.000000 1.000000 0.000000 -0.000000 0.000000 1.000000
-0.500000 1.000000 0.000000 -0.000000 0.000000 1.000000
-1.000000 1.000000 0.000000 -0.000000 0.000000 1.000000
3 0 1 2
3 3 4 5
3 6 7 8
3 9 10 11
3 3 12 4
3 13 14 15
3 16 17 18
3 6 19 7
3 2 20 21
3 2 1 20
3 1 22 20
3 5 23 24
3 5 4 23
3 4 21 23
3 8 14 13
3 8 7 14
3 7 3 14
3 11 12 3
3 11 10 12
3 10 0 12
3 4 2 21
3 4 12 2
3 12 0 2
3 15 5 24
3 15 14 5
3 14 3 5
3 18 8 13
3 18 17 8
3 17 6 8
3 7 11 3
3 7 19 11
3 19 9 11
