ply
format ascii 1.0
comment Created by Blender 2.69 (sub 0) - www.blender.org, source file: ''
element vertex 490
property float x
property float y
property float z
property float nx
property float ny
property float nz
element face 176
property list uchar uint vertex_indices
end_header
-0.047435 0.068225 -0.013055 -0.006463 0.004409 -0.999969
-0.084014 0.069053 -0.012815 -0.006463 0.004409 -0.999969
-0.051680 0.081963 -0.012967 -0.006463 0.004409 -0.999969
-0.090172 0.076305 -0.011796 -0.633821 0.000961 -0.773479
-0.093381 0.075029 -0.009168 -0.633821 0.000961 -0.773479
-0.093242 0.208561 -0.009116 -0.633821 0.000961 -0.773479
-0.037628 0.055414 -0.005132 0.819461 0.573135 -0.000001
-0.000021 0.001644 -0.005132 0.819461 0.573135 -0.000001
-0.000021 0.001644 -0.012973 0.819461 0.573135 -0.000001
-0.096996 0.074745 -0.002479 -0.985645 -0.168814 -0.002360
-0.096686 0.072935 -0.002479 -0.985645 -0.168814 -0.002360
-0.097007 0.074745 0.002114 -0.985645 -0.168814 -0.002360
-0.095624 0.072915 0.005665 -0.944198 -0.166653 0.284106
-0.095947 0.074745 0.005665 -0.944198 -0.166653 0.284106
-0.096695 0.072931 0.002115 -0.944198 -0.166653 0.284106
-0.000021 -0.001946 -0.012973 -0.000001 0.000000 -1.000000
-0.000906 -0.002426 -0.012973 -0.000001 0.000000 -1.000000
-0.001383 -0.001003 -0.012973 -0.000001 0.000000 -1.000000
-0.053247 0.095488 -0.000274 0.999942 0.008032 0.007209
-0.053158 0.095489 -0.012618 0.999942 0.008032 0.007209
-0.053770 0.171623 -0.012553 0.999942 0.008032 0.007209
-0.096317 0.208811 0.002055 0.000680 1.000000 -0.000203
-0.095269 0.208811 0.005558 0.000680 1.000000 -0.000203
-0.092877 0.208810 0.008646 0.000680 1.000000 -0.000203
-0.000021 0.001644 0.004864 1.000000 0.000000 -0.000001
-0.000021 0.001644 0.012973 1.000000 0.000000 -0.000001
-0.000021 -0.001946 0.012973 1.000000 0.000000 -0.000001
-0.041745 0.055505 0.006777 0.019748 0.999804 0.001563
-0.041857 0.055498 0.012671 0.019748 0.999804 0.001563
-0.037628 0.055414 0.012973 0.019748 0.999804 0.001563
-0.040193 0.003943 0.002075 -0.118445 -0.992961 -0.000095
-0.040181 0.003942 -0.002438 -0.118445 -0.992961 -0.000095
-0.031077 0.002857 -0.012547 -0.118445 -0.992961 -0.000095
-0.089963 0.208561 -0.011666 -0.392806 0.001038 -0.919621
-0.087273 0.208561 -0.012815 -0.392806 0.001038 -0.919621
-0.087618 0.078007 -0.012815 -0.392806 0.001038 -0.919621
-0.000021 -0.001946 0.012973 0.000001 -0.000000 1.000000
-0.001383 -0.001003 0.012973 0.000001 -0.000000 1.000000
-0.000906 -0.002426 0.012973 0.000001 -0.000000 1.000000
-0.000021 -0.001946 -0.005132 0.476763 -0.879032 -0.000001
-0.000906 -0.002426 -0.005132 0.476763 -0.879032 -0.000001
-0.000906 -0.002426 -0.012973 0.476763 -0.879032 -0.000001
-0.002554 0.000370 -0.005132 0.843460 0.537193 -0.000001
-0.002554 0.000370 0.004864 0.843460 0.537193 -0.000001
-0.001677 -0.001007 0.004864 0.843460 0.537193 -0.000001
-0.047435 0.068225 -0.013055 -0.006462 0.004444 -0.999969
-0.042150 0.055658 -0.013145 -0.006462 0.004444 -0.999969
-0.084014 0.069053 -0.012815 -0.006462 0.004444 -0.999969
-0.041773 0.200249 0.012553 0.920621 -0.390458 -0.000001
-0.053914 0.171623 -0.000315 0.920621 -0.390458 -0.000001
-0.041773 0.200249 -0.012553 0.920621 -0.390458 -0.000001
-0.000021 0.001644 0.004864 0.819461 0.573135 -0.000001
-0.037628 0.055414 0.004864 0.819461 0.573135 -0.000001
-0.037628 0.055414 0.012973 0.819461 0.573135 -0.000001
-0.000021 -0.001946 0.004864 -0.000001 -0.000000 -1.000000
-0.000906 -0.002426 0.004864 -0.000001 -0.000000 -1.000000
-0.001677 -0.001007 0.004864 -0.000001 -0.000000 -1.000000
-0.000021 -0.001946 -0.005132 0.000001 0.000000 1.000000
-0.001677 -0.001007 -0.005132 0.000001 0.000000 1.000000
-0.000906 -0.002426 -0.005132 0.000001 0.000000 1.000000
-0.000021 -0.001946 0.012973 0.476763 -0.879032 -0.000001
-0.000906 -0.002426 0.012973 0.476763 -0.879032 -0.000001
-0.000906 -0.002426 0.004864 0.476763 -0.879032 -0.000001
-0.041745 0.055505 0.006777 0.022098 0.999756 -0.000000
-0.037628 0.055414 0.004864 0.022098 0.999756 -0.000000
-0.041745 0.055505 -0.007044 0.022098 0.999756 -0.000000
-0.031072 0.002857 0.012547 -0.115579 -0.993289 -0.004287
-0.033488 0.003143 0.011418 -0.115579 -0.993289 -0.004287
-0.036794 0.003539 0.008797 -0.115579 -0.993289 -0.004287
-0.040193 0.003943 0.002075 -0.119150 -0.992876 0.000576
-0.036794 0.003539 0.008797 -0.119150 -0.992876 0.000576
-0.039168 0.003822 0.005534 -0.119150 -0.992876 0.000576
-0.092877 0.208810 0.008646 -0.000436 0.999998 0.001671
-0.089739 0.208807 0.011257 -0.000436 0.999998 0.001671
-0.087126 0.208806 0.012545 -0.000436 0.999998 0.001671
-0.039181 0.003824 -0.005801 -0.119055 -0.992887 -0.000563
-0.036639 0.003521 -0.008986 -0.119055 -0.992887 -0.000563
-0.040181 0.003942 -0.002438 -0.119055 -0.992887 -0.000563
-0.093381 0.075029 -0.009168 -0.782036 0.001951 -0.623230
-0.095959 0.074745 -0.005934 -0.782036 0.001951 -0.623230
-0.095606 0.208561 -0.005958 -0.782036 0.001951 -0.623230
-0.090172 0.076305 -0.011796 -0.617603 -0.061639 -0.784071
-0.089830 0.072891 -0.011797 -0.617603 -0.061639 -0.784071
-0.093381 0.075029 -0.009168 -0.617603 -0.061639 -0.784071
-0.093225 0.072915 0.008919 -0.802974 -0.069129 0.591992
-0.093407 0.075029 0.008919 -0.802974 -0.069129 0.591992
-0.095624 0.072915 0.005665 -0.802974 -0.069129 0.591992
-0.092240 0.071213 0.008919 -0.728036 -0.421338 0.540775
-0.093225 0.072915 0.008919 -0.728036 -0.421338 0.540775
-0.094701 0.071289 0.005665 -0.728036 -0.421338 0.540775
-0.094701 0.071289 0.005665 -0.841292 -0.477560 0.253306
-0.095624 0.072915 0.005665 -0.841292 -0.477560 0.253306
-0.095792 0.071328 0.002115 -0.841292 -0.477560 0.253306
-0.096686 0.072935 -0.002479 -0.871226 -0.490877 -0.002170
-0.095780 0.071327 -0.002479 -0.871226 -0.490877 -0.002170
-0.095792 0.071328 0.002115 -0.871226 -0.490877 -0.002170
-0.089830 0.072891 -0.011797 -0.577254 -0.341760 -0.741605
-0.088766 0.071096 -0.011798 -0.577254 -0.341760 -0.741605
-0.092211 0.071210 -0.009169 -0.577254 -0.341760 -0.741605
-0.087259 0.072864 0.012815 -0.415129 -0.028977 0.909301
-0.087618 0.078007 0.012815 -0.415129 -0.028977 0.909301
-0.090235 0.076305 0.011566 -0.415129 -0.028977 0.909301
-0.084028 0.069070 0.012815 -0.358101 -0.304962 0.882475
-0.087259 0.072864 0.012815 -0.358101 -0.304962 0.882475
-0.088845 0.071115 0.011567 -0.358101 -0.304962 0.882475
-0.088766 0.071096 -0.011798 -0.361377 -0.213704 -0.907600
-0.089830 0.072891 -0.011797 -0.361377 -0.213704 -0.907600
-0.087252 0.072855 -0.012815 -0.361377 -0.213704 -0.907600
-0.089830 0.072891 -0.011797 -0.367478 -0.036540 -0.929314
-0.090172 0.076305 -0.011796 -0.367478 -0.036540 -0.929314
-0.087252 0.072855 -0.012815 -0.367478 -0.036540 -0.929314
-0.095647 0.072931 -0.005934 -0.769381 -0.132330 -0.624934
-0.095959 0.074745 -0.005934 -0.769381 -0.132330 -0.624934
-0.093381 0.075029 -0.009168 -0.769381 -0.132330 -0.624934
-0.094712 0.071288 -0.005934 -0.726665 -0.413532 -0.548588
-0.095647 0.072931 -0.005934 -0.726665 -0.413532 -0.548588
-0.093182 0.072891 -0.009169 -0.726665 -0.413532 -0.548588
-0.095959 0.074745 -0.005934 -0.944955 -0.162528 -0.283979
-0.095647 0.072931 -0.005934 -0.944955 -0.162528 -0.283979
-0.096686 0.072935 -0.002479 -0.944955 -0.162528 -0.283979
-0.095647 0.072931 -0.005934 -0.840521 -0.478325 -0.254419
-0.094712 0.071288 -0.005934 -0.840521 -0.478325 -0.254419
-0.095780 0.071327 -0.002479 -0.840521 -0.478325 -0.254419
-0.093225 0.072915 0.008919 -0.586744 -0.339568 0.735136
-0.092240 0.071213 0.008919 -0.586744 -0.339568 0.735136
-0.089894 0.072892 0.011567 -0.586744 -0.339568 0.735136
-0.093407 0.075029 0.008919 -0.621618 -0.053516 0.781490
-0.093225 0.072915 0.008919 -0.621618 -0.053516 0.781490
-0.089894 0.072892 0.011567 -0.621618 -0.053516 0.781490
-0.000021 0.001644 -0.005132 1.000000 0.000000 -0.000001
-0.000021 -0.001946 -0.005132 1.000000 0.000000 -0.000001
-0.000021 -0.001946 -0.012973 1.000000 0.000000 -0.000001
-0.000021 0.001644 0.004864 -0.000001 0.000000 -1.000000
-0.002554 0.000370 -0.005132 0.000001 0.000000 1.000000
-0.000021 0.001644 -0.005132 0.000001 0.000000 1.000000
-0.000021 0.001644 0.012973 0.000001 0.000000 1.000000
-0.047135 0.068208 -0.000183 0.954222 0.298299 -0.021847
-0.047435 0.068225 -0.013055 0.954222 0.298299 -0.021847
-0.051432 0.081950 -0.000232 0.954222 0.298299 -0.021847
-0.088845 0.071115 0.011567 -0.353471 -0.289821 0.889417
-0.033488 0.003143 0.011418 -0.353471 -0.289821 0.889417
-0.084028 0.069070 0.012815 -0.353471 -0.289821 0.889417
-0.087259 0.072864 0.012815 0.003594 0.000251 0.999994
-0.051441 0.082047 0.012684 0.003594 0.000251 0.999994
-0.087618 0.078007 0.012815 0.003594 0.000251 0.999994
-0.087273 0.208561 -0.012815 0.007796 -0.000021 -0.999970
-0.053770 0.171623 -0.012553 0.007796 -0.000021 -0.999970
-0.087618 0.078007 -0.012815 0.007796 -0.000021 -0.999970
-0.087126 0.208806 0.012545 0.002054 0.002056 0.999996
-0.087618 0.078007 0.012815 0.002054 0.002056 0.999996
-0.053770 0.171623 0.012553 0.002054 0.002056 0.999996
-0.089739 0.208807 0.011257 -0.432689 0.003722 0.901535
-0.090235 0.076305 0.011566 -0.432689 0.003722 0.901535
-0.087618 0.078007 0.012815 -0.432689 0.003722 0.901535
-0.087273 0.208561 -0.012815 0.005347 -0.002242 -0.999983
-0.041773 0.200249 -0.012553 0.005347 -0.002242 -0.999983
-0.053770 0.171623 -0.012553 0.005347 -0.002242 -0.999983
-0.097007 0.074745 0.002114 -0.958206 0.005057 0.286034
-0.095947 0.074745 0.005665 -0.958206 0.005057 0.286034
-0.096317 0.208811 0.002055 -0.958206 0.005057 0.286034
-0.047135 0.068208 -0.000183 0.954420 0.298450 0.003133
-0.051432 0.081950 -0.000232 0.954420 0.298450 0.003133
-0.047180 0.068216 0.012760 0.954420 0.298450 0.003133
-0.088766 0.071096 -0.011798 -0.302794 -0.245934 -0.920778
-0.084014 0.069053 -0.012815 -0.302794 -0.245934 -0.920778
-0.033735 0.003342 -0.011798 -0.302794 -0.245934 -0.920778
-0.040193 0.003943 0.002075 -0.755943 -0.622619 0.202228
-0.039168 0.003822 0.005534 -0.755943 -0.622619 0.202228
-0.094701 0.071289 0.005665 -0.755943 -0.622619 0.202228
-0.031077 0.002857 -0.012547 -0.130308 -0.991474 0.000000
-0.001677 -0.001007 -0.005132 -0.130308 -0.991474 0.000000
-0.001677 -0.001007 0.004864 -0.130308 -0.991474 0.000000
-0.095959 0.074745 -0.005934 -0.957786 0.002475 -0.287473
-0.096996 0.074745 -0.002479 -0.957786 0.002475 -0.287473
-0.095606 0.208561 -0.005958 -0.957786 0.002475 -0.287473
-0.001677 -0.001007 0.004864 -0.878223 -0.477174 0.032077
-0.000906 -0.002426 0.004864 -0.878223 -0.477174 0.032077
-0.001383 -0.001003 0.012973 -0.878223 -0.477174 0.032077
-0.001383 -0.001003 -0.012973 -0.948149 -0.317826 0.000001
-0.000906 -0.002426 -0.012973 -0.948149 -0.317826 0.000001
-0.000906 -0.002426 -0.005132 -0.948149 -0.317826 0.000001
-0.095780 0.071327 -0.002479 -0.751442 -0.620148 -0.225282
-0.094712 0.071288 -0.005934 -0.751442 -0.620148 -0.225282
-0.040181 0.003942 -0.002438 -0.751442 -0.620148 -0.225282
-0.096996 0.074745 -0.002479 -0.999984 0.005146 -0.002394
-0.097007 0.074745 0.002114 -0.999984 0.005146 -0.002394
-0.096317 0.208811 0.002055 -0.999984 0.005146 -0.002394
-0.036794 0.003539 0.008797 -0.581021 -0.474638 0.661161
-0.033488 0.003143 0.011418 -0.581021 -0.474638 0.661161
-0.088845 0.071115 0.011567 -0.581021 -0.474638 0.661161
-0.036639 0.003521 -0.008986 -0.222806 -0.960106 -0.168978
-0.033735 0.003342 -0.011798 -0.222806 -0.960106 -0.168978
-0.031077 0.002857 -0.012547 -0.222806 -0.960106 -0.168978
-0.039168 0.003822 0.005534 -0.689399 -0.565648 0.452516
-0.036794 0.003539 0.008797 -0.689399 -0.565648 0.452516
-0.092240 0.071213 0.008919 -0.689399 -0.565648 0.452516
-0.087273 0.208561 -0.012815 0.027754 0.999615 0.000074
-0.096305 0.208811 -0.002418 0.027754 0.999615 0.000074
-0.096317 0.208811 0.002055 0.027754 0.999615 0.000074
-0.093242 0.208561 -0.009116 -0.126530 0.987430 -0.094717
-0.095606 0.208561 -0.005958 -0.126530 0.987430 -0.094717
-0.096305 0.208811 -0.002418 -0.126530 0.987430 -0.094717
-0.095792 0.071328 0.002115 -0.771337 -0.636425 -0.001877
-0.095780 0.071327 -0.002479 -0.771337 -0.636425 -0.001877
-0.040193 0.003943 0.002075 -0.771337 -0.636425 -0.001877
-0.087259 0.072864 0.012815 0.003003 0.002556 0.999992
-0.084028 0.069070 0.012815 0.003003 0.002556 0.999992
-0.051441 0.082047 0.012684 0.003003 0.002556 0.999992
-0.041773 0.200249 0.012553 0.922231 -0.386502 -0.010322
-0.053770 0.171623 0.012553 0.922231 -0.386502 -0.010322
-0.053914 0.171623 -0.000315 0.922231 -0.386502 -0.010322
-0.053247 0.095488 -0.000274 0.991104 0.132897 0.007155
-0.051432 0.081950 -0.000232 0.991104 0.132897 0.007155
-0.053158 0.095489 -0.012618 0.991104 0.132897 0.007155
-0.087252 0.072855 -0.012815 -0.004198 -0.000298 -0.999991
-0.087618 0.078007 -0.012815 -0.004198 -0.000298 -0.999991
-0.051680 0.081963 -0.012967 -0.004198 -0.000298 -0.999991
-0.087273 0.208561 -0.012815 0.179756 0.983655 -0.010545
-0.087126 0.208806 0.012545 0.179756 0.983655 -0.010545
-0.041773 0.200249 -0.012553 0.179756 0.983655 -0.010545
-0.041745 0.055505 -0.007044 0.022098 0.999756 -0.000000
-0.037628 0.055414 -0.005132 0.022098 0.999756 -0.000000
-0.037628 0.055414 -0.012973 0.022098 0.999756 -0.000000
-0.047135 0.068208 -0.000183 0.920560 0.390602 -0.000001
-0.041745 0.055505 0.006777 0.920560 0.390602 -0.000001
-0.041745 0.055505 -0.007044 0.920560 0.390602 -0.000001
-0.087126 0.208806 0.012545 -0.000162 0.000069 1.000000
-0.053770 0.171623 0.012553 -0.000162 0.000069 1.000000
-0.041773 0.200249 0.012553 -0.000162 0.000069 1.000000
-0.051432 0.081950 -0.000232 0.991112 0.132854 -0.006854
-0.053247 0.095488 -0.000274 0.991112 0.132854 -0.006854
-0.053158 0.095489 0.012618 0.991112 0.132854 -0.006854
-0.033735 0.003342 -0.011798 -0.617557 -0.501590 -0.605831
-0.036639 0.003521 -0.008986 -0.617557 -0.501590 -0.605831
-0.088766 0.071096 -0.011798 -0.617557 -0.501590 -0.605831
-0.042150 0.055658 -0.013145 0.039357 0.025286 -0.998905
-0.037628 0.055414 -0.012973 0.039357 0.025286 -0.998905
-0.001383 -0.001003 -0.012973 0.039357 0.025286 -0.998905
-0.000021 0.001644 -0.012973 -0.000001 0.000000 -1.000000
-0.002554 0.000370 -0.005132 0.843342 0.537377 -0.000001
-0.037628 0.055414 -0.005132 0.843342 0.537377 -0.000001
-0.037628 0.055414 0.004864 0.843342 0.537377 -0.000001
-0.002554 0.000370 0.004864 -0.000001 0.000000 -1.000000
-0.037628 0.055414 0.004864 -0.000001 0.000000 -1.000000
-0.037628 0.055414 -0.005132 0.000001 -0.000000 1.000000
-0.047135 0.068208 -0.000183 0.919972 0.391972 0.002955
-0.047180 0.068216 0.012760 0.919972 0.391972 0.002955
-0.041745 0.055505 0.006777 0.919972 0.391972 0.002955
-0.053914 0.171623 -0.000315 0.999899 0.008754 -0.011191
-0.053770 0.171623 0.012553 0.999899 0.008754 -0.011191
-0.053247 0.095488 -0.000274 0.999899 0.008754 -0.011191
-0.095947 0.074745 0.005665 -0.788462 0.004478 0.615067
-0.093407 0.075029 0.008919 -0.788462 0.004478 0.615067
-0.095269 0.208811 0.005558 -0.788462 0.004478 0.615067
-0.053914 0.171623 -0.000315 0.922226 -0.386500 0.010850
-0.053770 0.171623 -0.012553 0.922226 -0.386500 0.010850
-0.041773 0.200249 -0.012553 0.922226 -0.386500 0.010850
-0.084028 0.069070 0.012815 0.001345 -0.006436 0.999978
-0.041857 0.055498 0.012671 0.001345 -0.006436 0.999978
-0.047180 0.068216 0.012760 0.001345 -0.006436 0.999978
-0.087273 0.208561 -0.012815 0.000000 1.000000 0.000000
-0.089963 0.208561 -0.011666 0.000000 1.000000 0.000000
-0.093242 0.208561 -0.009116 0.000000 1.000000 0.000000
-0.031072 0.002857 0.012547 -0.129001 -0.991631 0.005166
-0.001677 -0.001007 0.004864 -0.129001 -0.991631 0.005166
-0.001383 -0.001003 0.012973 -0.129001 -0.991631 0.005166
-0.031077 0.002857 -0.012547 -0.128982 -0.991633 -0.005342
-0.001383 -0.001003 -0.012973 -0.128982 -0.991633 -0.005342
-0.001677 -0.001007 -0.005132 -0.128982 -0.991633 -0.005342
-0.093407 0.075029 0.008919 -0.641676 0.004107 0.766965
-0.090235 0.076305 0.011566 -0.641676 0.004107 0.766965
-0.092877 0.208810 0.008646 -0.641676 0.004107 0.766965
-0.036639 0.003521 -0.008986 -0.674910 -0.555408 -0.485818
-0.039181 0.003824 -0.005801 -0.674910 -0.555408 -0.485818
-0.092211 0.071210 -0.009169 -0.674910 -0.555408 -0.485818
-0.084028 0.069070 0.012815 0.002845 -0.001773 0.999994
-0.031072 0.002857 0.012547 0.002845 -0.001773 0.999994
-0.041857 0.055498 0.012671 0.002845 -0.001773 0.999994
-0.001383 -0.001003 -0.012973 -0.016259 -0.014732 -0.999759
-0.031077 0.002857 -0.012547 -0.016259 -0.014732 -0.999759
-0.042150 0.055658 -0.013145 -0.016259 -0.014732 -0.999759
-0.041745 0.055505 -0.007044 0.916266 0.400029 -0.020828
-0.047435 0.068225 -0.013055 0.916266 0.400029 -0.020828
-0.047135 0.068208 -0.000183 0.916266 0.400029 -0.020828
-0.037628 0.055414 0.012973 0.000001 0.000000 1.000000
-0.084014 0.069053 -0.012815 -0.003509 -0.002988 -0.999989
-0.087252 0.072855 -0.012815 -0.003509 -0.002988 -0.999989
-0.051680 0.081963 -0.012967 -0.003509 -0.002988 -0.999989
-0.089963 0.208561 -0.011666 -0.613890 0.001746 -0.789389
-0.090172 0.076305 -0.011796 -0.613890 0.001746 -0.789389
-0.093242 0.208561 -0.009116 -0.613890 0.001746 -0.789389
-0.037628 0.055414 -0.012973 0.819461 0.573135 -0.000001
-0.096686 0.072935 -0.002479 -0.985527 -0.169508 -0.002078
-0.096695 0.072931 0.002115 -0.985527 -0.169508 -0.002078
-0.097007 0.074745 0.002114 -0.985527 -0.169508 -0.002078
-0.095947 0.074745 0.005665 -0.945488 -0.162464 0.282238
-0.097007 0.074745 0.002114 -0.945488 -0.162464 0.282238
-0.096695 0.072931 0.002115 -0.945488 -0.162464 0.282238
-0.053914 0.171623 -0.000315 0.999892 0.008766 0.011764
-0.053247 0.095488 -0.000274 0.999892 0.008766 0.011764
-0.053770 0.171623 -0.012553 0.999892 0.008766 0.011764
-0.000021 -0.001946 0.004864 1.000000 0.000000 -0.000001
-0.037628 0.055414 0.012973 0.022098 0.999756 -0.000000
-0.031072 0.002857 0.012547 -0.118257 -0.992983 0.000024
-0.040193 0.003943 0.002075 -0.118257 -0.992983 0.000024
-0.031077 0.002857 -0.012547 -0.118257 -0.992983 0.000024
-0.090172 0.076305 -0.011796 -0.371438 0.001500 -0.928457
-0.089963 0.208561 -0.011666 -0.371438 0.001500 -0.928457
-0.087618 0.078007 -0.012815 -0.371438 0.001500 -0.928457
-0.000021 -0.001946 -0.012973 0.476763 -0.879032 -0.000001
-0.001677 -0.001007 -0.005132 0.843460 0.537193 -0.000001
-0.000021 0.001644 0.012973 0.819461 0.573135 -0.000001
-0.000021 -0.001946 0.004864 0.476763 -0.879032 -0.000001
-0.037628 0.055414 0.004864 0.022098 0.999756 -0.000000
-0.040193 0.003943 0.002075 -0.118512 -0.992953 0.000248
-0.031072 0.002857 0.012547 -0.118512 -0.992953 0.000248
-0.036794 0.003539 0.008797 -0.118512 -0.992953 0.000248
-0.096317 0.208811 0.002055 0.000920 1.000000 -0.000329
-0.092877 0.208810 0.008646 0.000920 1.000000 -0.000329
-0.087126 0.208806 0.012545 0.000920 1.000000 -0.000329
-0.093242 0.208561 -0.009116 -0.800548 0.001067 -0.599268
-0.093381 0.075029 -0.009168 -0.800548 0.001067 -0.599268
-0.095606 0.208561 -0.005958 -0.800548 0.001067 -0.599268
-0.089830 0.072891 -0.011797 -0.615991 -0.056968 -0.785691
-0.093182 0.072891 -0.009169 -0.615991 -0.056968 -0.785691
-0.093381 0.075029 -0.009168 -0.615991 -0.056968 -0.785691
-0.093407 0.075029 0.008919 -0.775043 -0.136797 0.616923
-0.095947 0.074745 0.005665 -0.775043 -0.136797 0.616923
-0.095624 0.072915 0.005665 -0.775043 -0.136797 0.616923
-0.093225 0.072915 0.008919 -0.732102 -0.415579 0.539741
-0.095624 0.072915 0.005665 -0.732102 -0.415579 0.539741
-0.094701 0.071289 0.005665 -0.732102 -0.415579 0.539741
-0.095624 0.072915 0.005665 -0.843104 -0.474934 0.252218
-0.096695 0.072931 0.002115 -0.843104 -0.474934 0.252218
-0.095792 0.071328 0.002115 -0.843104 -0.474934 0.252218
-0.096695 0.072931 0.002115 -0.871270 -0.490800 -0.002134
-0.096686 0.072935 -0.002479 -0.871270 -0.490800 -0.002134
-0.095792 0.071328 0.002115 -0.871270 -0.490800 -0.002134
-0.093182 0.072891 -0.009169 -0.581186 -0.335710 -0.741297
-0.089830 0.072891 -0.011797 -0.581186 -0.335710 -0.741297
-0.092211 0.071210 -0.009169 -0.581186 -0.335710 -0.741297
-0.089894 0.072892 0.011567 -0.428024 -0.042501 0.902768
-0.087259 0.072864 0.012815 -0.428024 -0.042501 0.902768
-0.090235 0.076305 0.011566 -0.428024 -0.042501 0.902768
-0.087259 0.072864 0.012815 -0.417005 -0.246167 0.874934
-0.089894 0.072892 0.011567 -0.417005 -0.246167 0.874934
-0.088845 0.071115 0.011567 -0.417005 -0.246167 0.874934
-0.084014 0.069053 -0.012815 -0.308650 -0.262863 -0.914132
-0.088766 0.071096 -0.011798 -0.308650 -0.262863 -0.914132
-0.087252 0.072855 -0.012815 -0.308650 -0.262863 -0.914132
-0.090172 0.076305 -0.011796 -0.355878 -0.025282 -0.934190
-0.087618 0.078007 -0.012815 -0.355878 -0.025282 -0.934190
-0.087252 0.072855 -0.012815 -0.355878 -0.025282 -0.934190
-0.093182 0.072891 -0.009169 -0.793686 -0.073593 -0.603860
-0.095647 0.072931 -0.005934 -0.793686 -0.073593 -0.603860
-0.093381 0.075029 -0.009168 -0.793686 -0.073593 -0.603860
-0.092211 0.071210 -0.009169 -0.723574 -0.417958 -0.549319
-0.094712 0.071288 -0.005934 -0.723574 -0.417958 -0.549319
-0.093182 0.072891 -0.009169 -0.723574 -0.417958 -0.549319
-0.096996 0.074745 -0.002479 -0.945156 -0.161879 -0.283682
-0.095959 0.074745 -0.005934 -0.945156 -0.161879 -0.283682
-0.096686 0.072935 -0.002479 -0.945156 -0.161879 -0.283682
-0.096686 0.072935 -0.002479 -0.842901 -0.474917 -0.252928
-0.095647 0.072931 -0.005934 -0.842901 -0.474917 -0.252928
-0.095780 0.071327 -0.002479 -0.842901 -0.474917 -0.252928
-0.092240 0.071213 0.008919 -0.583538 -0.344474 0.735406
-0.088845 0.071115 0.011567 -0.583538 -0.344474 0.735406
-0.089894 0.072892 0.011567 -0.583538 -0.344474 0.735406
-0.090235 0.076305 0.011566 -0.624605 -0.062178 0.778462
-0.093407 0.075029 0.008919 -0.624605 -0.062178 0.778462
-0.089894 0.072892 0.011567 -0.624605 -0.062178 0.778462
-0.000021 0.001644 -0.012973 1.000000 0.000000 -0.000001
-0.051432 0.081950 -0.000232 0.955235 0.295282 -0.018302
-0.047435 0.068225 -0.013055 0.955235 0.295282 -0.018302
-0.051680 0.081963 -0.012967 0.955235 0.295282 -0.018302
-0.033488 0.003143 0.011418 -0.430415 -0.347611 0.833012
-0.031072 0.002857 0.012547 -0.430415 -0.347611 0.833012
-0.084028 0.069070 0.012815 -0.430415 -0.347611 0.833012
-0.051441 0.082047 0.012684 0.003031 0.005297 0.999981
-0.053158 0.095489 0.012618 0.003031 0.005297 0.999981
-0.087618 0.078007 0.012815 0.003031 0.005297 0.999981
-0.053770 0.171623 -0.012553 0.005261 0.000896 -0.999986
-0.053158 0.095489 -0.012618 0.005261 0.000896 -0.999986
-0.087618 0.078007 -0.012815 0.005261 0.000896 -0.999986
-0.087618 0.078007 0.012815 0.005263 0.000896 0.999986
-0.053158 0.095489 0.012618 0.005263 0.000896 0.999986
-0.053770 0.171623 0.012553 0.005263 0.000896 0.999986
-0.087126 0.208806 0.012545 -0.442121 0.003515 0.896948
-0.089739 0.208807 0.011257 -0.442121 0.003515 0.896948
-0.087618 0.078007 0.012815 -0.442121 0.003515 0.896948
-0.095947 0.074745 0.005665 -0.958031 0.005074 0.286618
-0.095269 0.208811 0.005558 -0.958031 0.005074 0.286618
-0.096317 0.208811 0.002055 -0.958031 0.005074 0.286618
-0.051432 0.081950 -0.000232 0.955677 0.294413 -0.001546
-0.051441 0.082047 0.012684 0.955677 0.294413 -0.001546
-0.047180 0.068216 0.012760 0.955677 0.294413 -0.001546
-0.084014 0.069053 -0.012815 -0.304325 -0.247093 -0.919963
-0.031077 0.002857 -0.012547 -0.304325 -0.247093 -0.919963
-0.033735 0.003342 -0.011798 -0.304325 -0.247093 -0.919963
-0.095792 0.071328 0.002115 -0.751639 -0.620306 0.224186
-0.040193 0.003943 0.002075 -0.751639 -0.620306 0.224186
-0.094701 0.071289 0.005665 -0.751639 -0.620306 0.224186
-0.031072 0.002857 0.012547 -0.130323 -0.991472 0.000026
-0.031077 0.002857 -0.012547 -0.130323 -0.991472 0.000026
-0.001677 -0.001007 0.004864 -0.130323 -0.991472 0.000026
-0.096996 0.074745 -0.002479 -0.980976 0.005144 -0.194062
-0.096305 0.208811 -0.002418 -0.980976 0.005144 -0.194062
-0.095606 0.208561 -0.005958 -0.980976 0.005144 -0.194062
-0.000906 -0.002426 0.004864 -0.948149 -0.317826 0.000001
-0.000906 -0.002426 0.012973 -0.948149 -0.317826 0.000001
-0.001383 -0.001003 0.012973 -0.948149 -0.317826 0.000001
-0.001677 -0.001007 -0.005132 -0.878192 -0.477157 -0.033170
-0.001383 -0.001003 -0.012973 -0.878192 -0.477157 -0.033170
-0.000906 -0.002426 -0.005132 -0.878192 -0.477157 -0.033170
-0.094712 0.071288 -0.005934 -0.755829 -0.622538 -0.202904
-0.039181 0.003824 -0.005801 -0.755829 -0.622538 -0.202904
-0.040181 0.003942 -0.002438 -0.755829 -0.622538 -0.202904
-0.096305 0.208811 -0.002418 -0.999983 0.005155 -0.002683
-0.096996 0.074745 -0.002479 -0.999983 0.005155 -0.002683
-0.096317 0.208811 0.002055 -0.999983 0.005155 -0.002683
-0.092240 0.071213 0.008919 -0.555408 -0.456306 0.695203
-0.036794 0.003539 0.008797 -0.555408 -0.456306 0.695203
-0.088845 0.071115 0.011567 -0.555408 -0.456306 0.695203
-0.040181 0.003942 -0.002438 -0.118811 -0.992917 -0.000429
-0.036639 0.003521 -0.008986 -0.118811 -0.992917 -0.000429
-0.031077 0.002857 -0.012547 -0.118811 -0.992917 -0.000429
-0.094701 0.071289 0.005665 -0.670687 -0.553011 0.494326
-0.039168 0.003822 0.005534 -0.670687 -0.553011 0.494326
-0.092240 0.071213 0.008919 -0.670687 -0.553011 0.494326
-0.087126 0.208806 0.012545 0.011646 0.999885 -0.009727
-0.087273 0.208561 -0.012815 0.011646 0.999885 -0.009727
-0.096317 0.208811 0.002055 0.011646 0.999885 -0.009727
-0.095780 0.071327 -0.002479 -0.771336 -0.636426 -0.001909
-0.040181 0.003942 -0.002438 -0.771336 -0.636426 -0.001909
-0.040193 0.003943 0.002075 -0.771336 -0.636426 -0.001909
-0.084028 0.069070 0.012815 0.001633 0.005997 0.999981
-0.047180 0.068216 0.012760 0.001633 0.005997 0.999981
-0.051441 0.082047 0.012684 0.001633 0.005997 0.999981
-0.051432 0.081950 -0.000232 0.993845 0.109095 -0.019244
-0.051680 0.081963 -0.012967 0.993845 0.109095 -0.019244
-0.053158 0.095489 -0.012618 0.993845 0.109095 -0.019244
-0.087618 0.078007 -0.012815 -0.006985 0.025030 -0.999662
-0.053158 0.095489 -0.012618 -0.006985 0.025030 -0.999662
-0.051680 0.081963 -0.012967 -0.006985 0.025030 -0.999662
-0.087126 0.208806 0.012545 0.185404 0.982662 -0.000000
-0.041773 0.200249 0.012553 0.185404 0.982662 -0.000000
-0.041773 0.200249 -0.012553 0.185404 0.982662 -0.000000
-0.042150 0.055658 -0.013145 0.053052 0.998360 0.021515
-0.041745 0.055505 -0.007044 0.053052 0.998360 0.021515
-0.037628 0.055414 -0.012973 0.053052 0.998360 0.021515
-0.051441 0.082047 0.012684 0.991941 0.126703 -0.000262
-0.051432 0.081950 -0.000232 0.991941 0.126703 -0.000262
-0.053158 0.095489 0.012618 0.991941 0.126703 -0.000262
-0.036639 0.003521 -0.008986 -0.550116 -0.453535 -0.701197
-0.092211 0.071210 -0.009169 -0.550116 -0.453535 -0.701197
-0.088766 0.071096 -0.011798 -0.550116 -0.453535 -0.701197
-0.037628 0.055414 -0.012973 -0.000001 -0.000000 -1.000000
-0.002554 0.000370 0.004864 0.843342 0.537377 -0.000001
-0.002554 0.000370 -0.005132 0.843342 0.537377 -0.000001
-0.037628 0.055414 0.004864 0.843342 0.537377 -0.000001
-0.047180 0.068216 0.012760 0.922358 0.385918 0.017984
-0.041857 0.055498 0.012671 0.922358 0.385918 0.017984
-0.041745 0.055505 0.006777 0.922358 0.385918 0.017984
-0.053770 0.171623 0.012553 0.999944 0.008032 -0.006905
-0.053158 0.095489 0.012618 0.999944 0.008032 -0.006905
-0.053247 0.095488 -0.000274 0.999944 0.008032 -0.006905
-0.093407 0.075029 0.008919 -0.790554 0.004382 0.612377
-0.092877 0.208810 0.008646 -0.790554 0.004382 0.612377
-0.095269 0.208811 0.005558 -0.790554 0.004382 0.612377
-0.096305 0.208811 -0.002418 -0.032216 0.998128 -0.051987
-0.087273 0.208561 -0.012815 -0.032216 0.998128 -0.051987
-0.093242 0.208561 -0.009116 -0.032216 0.998128 -0.051987
-0.090235 0.076305 0.011566 -0.639598 0.004187 0.768699
-0.089739 0.208807 0.011257 -0.639598 0.004187 0.768699
-0.092877 0.208810 0.008646 -0.639598 0.004187 0.768699
-0.039181 0.003824 -0.005801 -0.667065 -0.550065 -0.502447
-0.094712 0.071288 -0.005934 -0.667065 -0.550065 -0.502447
-0.092211 0.071210 -0.009169 -0.667065 -0.550065 -0.502447
-0.031072 0.002857 0.012547 -0.015053 -0.005440 0.999872
-0.001383 -0.001003 0.012973 -0.015053 -0.005440 0.999872
-0.041857 0.055498 0.012671 -0.015053 -0.005440 0.999872
-0.031077 0.002857 -0.012547 -0.012333 -0.013910 -0.999827
-0.084014 0.069053 -0.012815 -0.012333 -0.013910 -0.999827
-0.042150 0.055658 -0.013145 -0.012333 -0.013910 -0.999827
-0.042150 0.055658 -0.013145 0.920453 0.387461 -0.051386
-0.047435 0.068225 -0.013055 0.920453 0.387461 -0.051386
-0.041745 0.055505 -0.007044 0.920453 0.387461 -0.051386
-0.041857 0.055498 0.012671 -0.072067 -0.046300 0.996325
-0.001383 -0.001003 0.012973 -0.072067 -0.046300 0.996325
-0.037628 0.055414 0.012973 -0.072067 -0.046300 0.996325
3 0 1 2
3 3 4 5
3 6 7 8
3 9 10 11
3 12 13 14
3 15 16 17
3 18 19 20
3 21 22 23
3 24 25 26
3 27 28 29
3 30 31 32
3 33 34 35
3 36 37 38
3 39 40 41
3 42 43 44
3 45 46 47
3 48 49 50
3 51 52 53
3 54 55 56
3 57 58 59
3 60 61 62
3 63 64 65
3 66 67 68
3 69 70 71
3 72 73 74
3 75 76 77
3 78 79 80
3 81 82 83
3 84 85 86
3 87 88 89
3 90 91 92
3 93 94 95
3 96 97 98
3 99 100 101
3 102 103 104
3 105 106 107
3 108 109 110
3 111 112 113
3 114 115 116
3 117 118 119
3 120 121 122
3 123 124 125
3 126 127 128
3 129 130 131
3 54 56 132
3 133 58 134
3 36 135 37
3 136 137 138
3 139 140 141
3 142 143 144
3 145 146 147
3 148 149 150
3 151 152 153
3 154 155 156
3 157 158 159
3 160 161 162
3 163 164 165
3 166 167 168
3 169 170 171
3 172 173 174
3 175 176 177
3 178 179 180
3 181 182 183
3 184 185 186
3 187 188 189
3 190 191 192
3 193 194 195
3 196 197 198
3 199 200 201
3 202 203 204
3 205 206 207
3 208 209 210
3 211 212 213
3 214 215 216
3 217 218 219
3 220 221 222
3 223 224 225
3 226 227 228
3 229 230 231
3 232 233 234
3 235 236 237
3 17 238 15
3 239 240 241
3 242 243 132
3 133 134 244
3 245 246 247
3 248 249 250
3 251 252 253
3 254 255 256
3 257 258 259
3 260 261 262
3 263 264 265
3 266 267 268
3 269 270 271
3 272 273 274
3 275 276 277
3 278 279 280
3 281 282 283
3 37 135 284
3 285 286 287
3 288 289 290
3 291 6 8
3 292 293 294
3 295 296 297
3 298 299 300
3 301 24 26
3 64 63 302
3 303 304 305
3 306 307 308
3 309 39 41
3 310 42 44
3 311 51 53
3 312 60 62
3 313 221 220
3 314 315 316
3 317 318 319
3 320 321 322
3 323 324 325
3 326 327 328
3 329 330 331
3 332 333 334
3 335 336 337
3 338 339 340
3 341 342 343
3 344 345 346
3 347 348 349
3 350 351 352
3 353 354 355
3 356 357 358
3 359 360 361
3 362 363 364
3 365 366 367
3 368 369 370
3 371 129 131
3 56 242 132
3 58 57 134
3 372 373 374
3 375 376 377
3 378 379 380
3 381 382 383
3 384 385 386
3 387 388 389
3 390 391 392
3 393 394 395
3 396 397 398
3 399 400 401
3 402 403 404
3 405 406 407
3 408 409 410
3 411 412 413
3 414 415 416
3 417 418 419
3 420 421 422
3 423 424 425
3 426 427 428
3 429 430 431
3 432 433 434
3 435 436 437
3 438 439 440
3 441 442 443
3 444 445 446
3 447 448 449
3 450 451 452
3 453 454 455
3 456 238 17
3 457 458 459
3 460 461 462
3 463 464 465
3 466 467 468
3 469 470 471
3 472 473 474
3 475 476 477
3 478 479 480
3 481 482 483
3 484 485 486
3 487 488 489
