ply
format ascii 1.0
comment Created by Blender 2.73 (sub 0) - www.blender.org, source file: ''
element vertex 228
property float x
property float y
property float z
element face 96
property list uchar uint vertex_indices
end_header
0.004801 0.000394 0.002520
0.004801 -0.000394 0.002520
0.003882 0.000000 0.000105
0.004153 0.000404 0.004621
0.004153 -0.000404 0.004621
0.002132 -0.000394 0.005329
0.000732 -0.000394 -0.005329
0.000732 -0.000394 -0.004541
-0.000813 -0.000404 -0.004125
0.000732 -0.000394 -0.005329
-0.001369 -0.000404 -0.004681
-0.001369 0.000404 -0.004681
-0.000813 -0.000404 -0.004125
-0.001289 -0.000394 -0.002660
-0.002077 -0.000394 -0.002660
-0.000813 -0.000404 -0.004125
-0.000813 0.000404 -0.004125
-0.001289 0.000394 -0.002660
-0.000813 0.000404 -0.004125
-0.001369 0.000404 -0.004681
-0.002077 0.000394 -0.002660
-0.000813 -0.000404 0.004125
-0.001289 -0.000394 0.002660
-0.000813 0.000404 0.004125
-0.001289 0.000394 0.002660
-0.001289 0.000394 -0.002660
-0.001289 0.000394 0.002660
-0.001289 -0.000394 0.002660
-0.001289 -0.000394 -0.002660
-0.002077 0.000394 0.002660
-0.002077 0.000394 -0.002660
-0.002077 -0.000394 -0.002660
-0.002077 -0.000394 0.002660
-0.001289 -0.000394 -0.002660
-0.001289 -0.000394 0.002660
-0.002077 -0.000394 0.002660
-0.002077 -0.000394 -0.002660
-0.002077 0.000394 -0.002660
-0.002077 0.000394 0.002660
-0.001289 0.000394 0.002660
-0.001289 0.000394 -0.002660
-0.002077 -0.000394 0.002660
-0.001289 -0.000394 0.002660
-0.000813 -0.000404 0.004125
-0.001369 0.000404 0.004681
-0.000813 0.000404 0.004125
-0.001289 0.000394 0.002660
-0.002077 0.000394 0.002660
-0.001369 0.000404 0.004681
-0.001289 0.000394 0.002660
-0.001369 -0.000404 0.004681
-0.001369 0.000404 0.004681
-0.002077 0.000394 0.002660
-0.002077 -0.000394 0.002660
-0.000813 -0.000404 0.004125
-0.001369 -0.000404 0.004681
-0.002077 -0.000394 0.002660
-0.002077 -0.000394 -0.002660
-0.002077 0.000394 -0.002660
-0.001369 0.000404 -0.004681
0.000732 0.000394 -0.004541
0.002132 0.000394 -0.004541
0.002132 0.000394 -0.005329
0.000732 0.000394 -0.005329
0.002132 0.000394 -0.004541
0.000732 0.000394 -0.004541
0.000732 -0.000394 -0.004541
0.002132 -0.000394 -0.004541
0.002132 -0.000394 -0.004541
0.000732 -0.000394 -0.004541
0.000732 -0.000394 -0.005329
0.002132 -0.000394 -0.005329
0.000732 0.000394 -0.005329
0.002132 0.000394 -0.005329
0.002132 -0.000394 -0.005329
0.000732 -0.000394 -0.005329
0.004013 0.000394 0.002520
0.004801 0.000394 0.002520
0.003882 0.000000 0.000105
0.003882 0.000000 0.000105
0.004013 -0.000394 0.002520
0.004013 0.000394 0.002520
0.003882 0.000000 0.000105
0.004801 -0.000394 0.002520
0.004013 -0.000394 0.002520
0.004801 -0.000394 0.002520
0.004153 -0.000404 0.004621
0.003596 -0.000404 0.004065
0.003596 -0.000404 0.004065
0.004153 -0.000404 0.004621
0.002132 -0.000394 0.005329
0.002132 0.000394 0.005329
0.004801 0.000394 0.002520
0.004013 0.000394 0.002520
0.003596 0.000404 0.004065
0.004013 -0.000394 0.002520
0.003596 -0.000404 0.004065
0.003596 0.000404 0.004065
0.002132 0.000394 0.005329
0.004153 0.000404 0.004621
0.003596 0.000404 0.004065
0.003596 0.000404 0.004065
0.003596 -0.000404 0.004065
0.002132 -0.000394 0.004541
0.000732 0.000394 0.004541
0.000732 0.000394 0.005329
0.002132 0.000394 0.005329
0.002132 0.000394 0.004541
0.002132 0.000394 0.004541
0.002132 -0.000394 0.004541
0.000732 -0.000394 0.004541
0.000732 0.000394 0.004541
0.002132 -0.000394 0.004541
0.002132 -0.000394 0.005329
0.000732 -0.000394 0.005329
0.000732 -0.000394 0.004541
0.000732 0.000394 0.005329
0.000732 -0.000394 0.005329
0.002132 -0.000394 0.005329
0.002132 0.000394 0.005329
0.000732 -0.000394 -0.004541
0.000732 0.000394 -0.004541
-0.000813 0.000404 -0.004125
-0.000813 0.000404 -0.004125
0.000732 0.000394 -0.004541
0.000732 0.000394 -0.005329
0.000732 0.000394 0.005329
-0.001369 0.000404 0.004681
-0.001369 -0.000404 0.004681
0.002132 -0.000394 -0.005329
0.004153 -0.000404 -0.004621
0.003596 -0.000404 -0.004065
0.002132 -0.000394 -0.005329
0.002132 0.000394 -0.005329
0.004153 0.000404 -0.004621
0.004801 -0.000394 -0.002520
0.004013 -0.000394 -0.002520
0.003596 -0.000404 -0.004065
0.004801 0.000394 -0.002520
0.004801 -0.000394 -0.002520
0.004153 -0.000404 -0.004621
0.003596 -0.000404 -0.004065
0.003596 0.000404 -0.004065
0.002132 0.000394 -0.004541
0.002132 0.000394 -0.005329
0.002132 0.000394 -0.004541
0.003596 0.000404 -0.004065
0.003882 0.000000 -0.000105
0.004801 0.000394 -0.002520
0.004013 0.000394 -0.002520
0.003882 0.000000 -0.000105
0.004013 0.000394 -0.002520
0.004013 -0.000394 -0.002520
0.004013 -0.000394 -0.002520
0.004801 -0.000394 -0.002520
0.003882 0.000000 -0.000105
0.004801 -0.000394 -0.002520
0.004801 0.000394 -0.002520
0.003882 0.000000 -0.000105
0.004013 -0.000394 -0.002520
0.004013 0.000394 -0.002520
0.003596 0.000404 -0.004065
0.003596 0.000404 -0.004065
0.004013 0.000394 -0.002520
0.004801 0.000394 -0.002520
0.000732 0.000394 0.005329
0.000732 0.000394 0.004541
-0.000813 0.000404 0.004125
-0.000813 -0.000404 0.004125
-0.000813 0.000404 0.004125
0.000732 0.000394 0.004541
0.000732 -0.000394 0.005329
-0.001369 -0.000404 0.004681
-0.000813 -0.000404 0.004125
-0.001369 -0.000404 -0.004681
0.000732 -0.000394 -0.005329
-0.000813 -0.000404 -0.004125
0.000732 0.000394 -0.005329
-0.001369 -0.000404 -0.004681
-0.000813 -0.000404 -0.004125
-0.002077 -0.000394 -0.002660
-0.001289 -0.000394 -0.002660
-0.001289 0.000394 -0.002660
-0.000813 0.000404 -0.004125
-0.002077 0.000394 -0.002660
-0.001369 -0.000404 -0.004681
0.004013 -0.000394 0.002520
0.004801 -0.000394 0.002520
0.003596 -0.000404 0.004065
0.002132 -0.000394 0.004541
0.003596 -0.000404 0.004065
0.002132 -0.000394 0.005329
0.004153 0.000404 0.004621
0.004801 0.000394 0.002520
0.003596 0.000404 0.004065
0.004013 0.000394 0.002520
0.002132 0.000394 0.004541
0.002132 0.000394 0.005329
0.003596 0.000404 0.004065
0.002132 0.000394 0.004541
-0.000813 -0.000404 -0.004125
-0.001369 0.000404 -0.004681
-0.000813 0.000404 -0.004125
0.000732 0.000394 -0.005329
0.000732 -0.000394 0.005329
0.002132 -0.000394 -0.004541
0.002132 -0.000394 -0.005329
0.003596 -0.000404 -0.004065
0.004153 -0.000404 -0.004621
0.004153 -0.000404 -0.004621
0.004801 -0.000394 -0.002520
0.003596 -0.000404 -0.004065
0.004153 0.000404 -0.004621
0.002132 -0.000394 -0.004541
0.004153 0.000404 -0.004621
0.002132 0.000394 -0.005329
0.003596 0.000404 -0.004065
0.003596 -0.000404 -0.004065
0.004153 0.000404 -0.004621
0.003596 0.000404 -0.004065
0.004801 0.000394 -0.002520
-0.001369 0.000404 0.004681
0.000732 0.000394 0.005329
-0.000813 0.000404 0.004125
0.000732 -0.000394 0.004541
0.000732 -0.000394 0.004541
0.000732 -0.000394 0.005329
-0.000813 -0.000404 0.004125
3 0 1 2
3 3 4 5
3 6 7 8
3 9 10 11
3 12 13 14
3 15 16 17
3 18 19 20
3 21 22 23
3 22 24 23
3 25 26 27
3 25 27 28
3 29 30 31
3 29 31 32
3 33 34 35
3 33 35 36
3 37 38 39
3 37 39 40
3 41 42 43
3 44 45 46
3 47 48 49
3 50 51 52
3 52 53 50
3 54 55 56
3 57 58 59
3 60 61 62
3 60 62 63
3 64 65 66
3 64 66 67
3 68 69 70
3 68 70 71
3 72 73 74
3 72 74 75
3 76 77 78
3 79 80 81
3 82 83 84
3 85 86 87
3 88 89 90
3 3 5 91
3 92 93 94
3 95 96 97
3 98 99 100
3 101 102 103
3 104 105 106
3 104 106 107
3 108 109 110
3 108 110 111
3 112 113 114
3 112 114 115
3 116 117 118
3 116 118 119
3 120 121 122
3 123 124 125
3 126 127 128
3 129 130 131
3 132 133 134
3 135 136 137
3 138 139 140
3 141 142 143
3 144 145 146
3 147 148 149
3 150 151 152
3 153 154 155
3 156 157 158
3 159 160 161
3 162 163 164
3 165 166 167
3 168 169 170
3 171 172 173
3 174 175 176
3 177 9 11
3 178 179 180
3 181 15 17
3 182 183 184
3 185 57 59
3 186 187 188
3 189 190 191
3 192 193 194
3 195 95 97
3 196 197 198
3 199 101 103
3 200 120 122
3 201 202 203
3 204 126 128
3 205 206 207
3 208 132 134
3 209 210 211
3 212 138 140
3 213 141 143
3 214 215 216
3 217 159 161
3 218 219 220
3 221 222 223
3 224 168 170
3 225 226 227
3 187 193 192
3 192 89 187
