ply
format ascii 1.0
comment Created by Blender 2.73 (sub 0) - www.blender.org, source file: ''
element vertex 48
property float x
property float y
property float z
property float nx
property float ny
property float nz
element face 28
property list uchar uint vertex_indices
end_header
-0.005330 -0.000467 0.000380 0.000000 1.000000 -0.000000
0.005330 -0.000467 0.000380 0.000000 1.000000 -0.000000
0.005330 -0.000467 -0.000380 0.000000 1.000000 -0.000000
-0.004354 -0.001476 0.000380 -0.000000 -0.000000 1.000000
0.004414 -0.001476 0.000380 -0.000000 -0.000000 1.000000
-0.005330 -0.000467 0.000380 -0.000000 -0.000000 1.000000
0.004414 -0.001476 -0.000380 -1.000000 0.000172 0.000000
0.004413 -0.007307 0.000380 -1.000000 0.000172 0.000000
0.004414 -0.001476 0.000380 -1.000000 0.000172 0.000000
0.004414 -0.001476 -0.000380 0.000000 0.000000 -1.000000
-0.004354 -0.001476 -0.000380 0.000000 0.000000 -1.000000
-0.005330 -0.000467 -0.000380 0.000000 0.000000 -1.000000
0.005330 -0.000467 0.000380 1.000000 0.000000 0.000000
0.005330 -0.007307 0.000380 1.000000 0.000000 0.000000
0.005330 -0.007307 -0.000380 1.000000 0.000000 0.000000
-0.005330 -0.007307 0.000380 -1.000000 0.000000 0.000000
-0.005330 -0.000467 0.000380 -1.000000 0.000000 0.000000
-0.005330 -0.000467 -0.000380 -1.000000 0.000000 0.000000
-0.005330 -0.000467 -0.000380 0.000000 1.000000 0.000000
-0.005330 -0.007307 0.000380 -0.000000 0.000000 1.000000
-0.004355 -0.007307 0.000380 -0.000000 0.000000 1.000000
0.004413 -0.007307 0.000380 -0.000000 0.000000 1.000000
0.005330 -0.000467 0.000380 -0.000000 0.000000 1.000000
0.005330 -0.007307 0.000380 -0.000000 0.000000 1.000000
-0.004355 -0.007307 0.000380 -0.000000 -1.000000 0.000000
-0.005330 -0.007307 0.000380 -0.000000 -1.000000 0.000000
-0.005330 -0.007307 -0.000380 -0.000000 -1.000000 0.000000
0.005330 -0.007307 0.000380 -0.000001 -1.000000 0.000000
0.004413 -0.007307 0.000380 -0.000001 -1.000000 0.000000
0.004413 -0.007307 -0.000380 -0.000001 -1.000000 0.000000
0.005330 -0.007307 -0.000380 -0.000001 -1.000000 -0.000000
-0.004354 -0.001476 0.000380 -0.000000 -1.000000 0.000000
-0.004354 -0.001476 -0.000380 -0.000000 -1.000000 0.000000
0.004414 -0.001476 0.000380 -0.000000 -1.000000 0.000000
-0.004355 -0.007307 -0.000380 -0.000000 -1.000000 -0.000000
-0.004354 -0.001476 -0.000380 1.000000 -0.000171 0.000000
-0.004354 -0.001476 0.000380 1.000000 -0.000171 0.000000
-0.004355 -0.007307 -0.000380 1.000000 -0.000171 0.000000
0.005330 -0.007307 -0.000380 0.000000 0.000000 -1.000000
0.004413 -0.007307 -0.000380 0.000000 0.000000 -1.000000
0.005330 -0.000467 -0.000380 0.000000 0.000000 -1.000000
-0.004355 -0.007307 -0.000380 0.000000 0.000000 -1.000000
-0.005330 -0.007307 -0.000380 0.000000 0.000000 -1.000000
-0.004355 -0.007307 0.000380 1.000000 -0.000171 0.000000
0.004414 -0.001476 -0.000380 -0.000000 -1.000000 -0.000000
0.004413 -0.007307 -0.000380 -1.000000 0.000172 0.000000
-0.005330 -0.007307 -0.000380 -1.000000 -0.000000 -0.000000
0.005330 -0.000467 -0.000380 1.000000 -0.000000 0.000000
3 0 1 2
3 3 4 5
3 6 7 8
3 9 10 11
3 12 13 14
3 15 16 17
3 18 0 2
3 19 20 5
3 21 22 4
3 21 23 22
3 5 20 3
3 4 22 5
3 24 25 26
3 27 28 29
3 29 30 27
3 31 32 33
3 26 34 24
3 35 36 37
3 38 39 40
3 41 42 11
3 37 36 43
3 32 44 33
3 7 6 45
3 46 15 17
3 10 41 11
3 47 12 14
3 40 9 11
3 40 39 9
