ply
format ascii 1.0
comment Created by Blender 2.73 (sub 0) - www.blender.org, source file: ''
element vertex 68
property float x
property float y
property float z
property float nx
property float ny
property float nz
property float s
property float t
element face 62
property list uchar uint vertex_indices
end_header
0.012671 0.041563 0.055764 0.869045 -0.292367 0.399060 0.760403 0.420814
0.012815 0.083721 0.069318 0.887631 0.381451 -0.257973 0.646638 0.382617
0.012890 0.053147 0.095754 0.740287 -0.665334 0.096316 0.730101 0.311621
0.012671 0.041563 0.055764 0.869045 -0.292367 0.399060 0.276636 0.417984
0.012890 0.053147 0.095754 0.740287 -0.665334 0.096316 0.913287 0.861695
-0.012890 0.053147 0.095754 -0.740287 -0.665334 0.096316 0.331435 0.722468
0.012547 0.030784 0.003123 0.695517 0.239662 -0.677328 0.465064 0.878069
0.012815 0.087325 0.078273 0.902036 0.424543 -0.077853 0.637115 0.359015
-0.012671 0.041563 0.055764 -0.869015 -0.291910 0.399487 0.351952 0.417984
0.012815 0.053763 0.171888 0.755272 -0.643055 -0.126499 0.911522 0.643584
0.012815 0.001384 -0.000742 0.620563 -0.103732 -0.777245 0.463157 0.562295
0.002438 0.039888 0.004207 0.207251 0.525590 -0.825098 0.574940 0.977033
0.012815 0.053763 0.171888 0.755272 -0.643055 -0.126499 0.728506 0.104245
0.002479 0.095487 0.071593 0.346171 0.824274 -0.447981 0.932155 0.479901
-0.012671 0.041563 0.055764 -0.869015 -0.291910 0.399487 0.466904 0.422514
-0.012890 0.053147 0.095754 -0.740287 -0.665334 0.096316 0.497963 0.312956
-0.012815 0.083735 0.069335 -0.883724 0.387982 -0.261605 0.582067 0.385618
-0.012815 0.053763 0.171888 -0.755272 -0.643055 -0.126499 0.331221 0.504357
-0.012547 0.030779 0.003122 -0.693381 0.244942 -0.677633 0.737825 0.878016
-0.002075 0.039900 0.004208 -0.199805 0.526200 -0.826533 0.623998 0.977157
0.012815 0.086980 0.208826 0.656728 0.181677 0.731895 0.638042 0.003639
0.002479 0.096702 0.075010 0.357158 0.919462 -0.164312 0.932992 0.470240
-0.012815 0.087325 0.078273 -0.897214 0.435011 -0.075747 0.591922 0.361101
-0.012815 0.053763 0.171888 -0.755272 -0.643055 -0.126499 0.499837 0.103549
0.012815 0.041634 0.200830 0.568072 -0.720145 0.398328 0.336946 0.422496
-0.012973 0.001365 -0.000742 -0.644917 -0.136265 -0.751976 0.741376 0.563953
0.005958 0.095313 0.208826 0.405438 0.585009 0.702384 0.608012 0.003617
0.012815 0.041634 0.200830 0.568072 -0.720145 0.398328 0.761562 0.025421
-0.002115 0.095499 0.071593 -0.336619 0.827387 -0.449538 0.920619 0.477720
-0.012815 0.086980 0.208826 -0.680776 0.267556 0.681845 0.591203 0.001992
-0.012815 0.041634 0.200830 -0.566546 -0.723258 0.394818 0.331220 0.421444
0.012815 0.086980 0.208826 0.656728 0.181677 0.731895 0.271824 0.481349
0.005958 0.095313 0.208826 0.405438 0.585009 0.702384 0.199605 0.569115
0.012815 0.041634 0.200830 0.568072 -0.720145 0.398328 0.271824 0.003757
-0.002114 0.096714 0.075010 -0.348888 0.923002 -0.162175 0.921440 0.469966
0.002459 0.096366 0.208826 0.103946 0.680258 0.725547 0.937830 0.132105
-0.012815 0.041634 0.200830 -0.566546 -0.723258 0.394818 0.466458 0.023905
-0.002095 0.096377 0.208826 -0.259194 0.686758 0.679098 0.926317 0.131941
-0.012815 0.041634 0.200830 -0.566546 -0.723258 0.394818 0.336946 0.495920
-0.012815 0.086980 0.208826 -0.680776 0.267556 0.681845 0.001890 0.481349
0.002459 0.096366 0.208826 0.103946 0.680258 0.725547 0.162756 0.580197
-0.002095 0.096377 0.208826 -0.259194 0.686758 0.679098 0.114793 0.580318
0.012973 -0.000272 0.001909 0.625843 -0.773034 0.103427 0.532759 0.921817
0.012973 0.037335 0.055679 0.648823 -0.343425 0.679006 0.532759 0.001992
-0.012973 -0.000272 0.001909 -0.617634 -0.778924 0.108341 0.646438 0.921817
0.012973 -0.000272 0.001909 0.625843 -0.773034 0.103427 0.754527 0.001992
-0.012973 -0.000272 0.001909 -0.617634 -0.778924 0.108341 0.754527 0.115671
0.012931 0.000481 -0.000262 0.649831 -0.553117 -0.521287 0.713313 0.001992
0.012973 0.037335 0.055679 0.648823 -0.343425 0.679006 0.338288 0.001992
0.012973 -0.000272 0.001909 0.625843 -0.773034 0.103427 0.337710 0.921817
0.012931 0.000481 -0.000262 0.649831 -0.553117 -0.521287 0.308846 0.963032
-0.012973 0.037335 0.055679 -0.647816 -0.343425 0.679952 0.646438 0.001992
-0.012973 0.000481 -0.000262 -0.634022 -0.589587 -0.500351 0.713313 0.115671
0.012815 0.001384 -0.000742 0.620563 -0.103732 -0.777245 0.294823 0.961438
-0.012973 0.000481 -0.000262 -0.634022 -0.589587 -0.500351 0.031299 0.998008
-0.012973 -0.000272 0.001909 -0.617634 -0.778924 0.108341 0.002435 0.956794
-0.012973 0.037335 0.055679 -0.647816 -0.343425 0.679952 0.001857 0.036968
0.012671 0.041563 0.055764 0.869045 -0.292367 0.399060 0.000000 0.976721
-0.012973 0.037335 0.055679 -0.647816 -0.343425 0.679952 0.233583 0.000000
0.012973 0.037335 0.055679 0.648823 -0.343425 0.679006 0.162176 1.000000
-0.012973 0.000481 -0.000262 -0.634022 -0.589587 -0.500351 0.760731 0.001992
0.012815 0.001384 -0.000742 0.620563 -0.103732 -0.777245 0.774755 0.115671
0.012931 0.000481 -0.000262 0.649831 -0.553117 -0.521287 0.760731 0.115671
0.012671 0.041563 0.055764 0.869045 -0.292367 0.399060 0.298378 0.916070
-0.012973 0.001365 -0.000742 -0.644917 -0.136265 -0.751976 0.045322 0.996414
-0.012671 0.041563 0.055764 -0.869015 -0.291910 0.399487 0.069742 0.000000
-0.012973 0.001365 -0.000742 -0.644917 -0.136265 -0.751976 0.774755 0.001992
-0.012671 0.041563 0.055764 -0.869015 -0.291910 0.399487 0.049733 0.001992
3 0 1 2
3 3 4 5
3 0 6 1
3 2 1 7
3 8 3 5
3 4 9 5
3 6 0 10
3 6 11 1
3 7 12 2
3 13 7 1
3 14 15 16
3 5 9 17
3 6 10 18
3 11 6 19
3 1 11 13
3 20 12 7
3 21 7 13
3 16 18 14
3 16 15 22
3 23 22 15
3 9 24 17
3 19 6 18
3 18 10 25
3 19 13 11
3 26 20 7
3 20 27 12
3 28 21 13
3 21 26 7
3 18 16 19
3 14 18 25
3 22 28 16
3 29 22 23
3 24 30 17
3 28 13 19
3 31 32 33
3 34 21 28
3 35 26 21
3 19 16 28
3 34 28 22
3 29 23 36
3 37 22 29
3 38 33 39
3 40 33 32
3 21 34 35
3 34 22 37
3 39 33 41
3 41 33 40
3 35 34 37
3 42 43 44
3 45 46 47
3 48 49 50
3 44 43 51
3 47 46 52
3 53 48 50
3 54 55 56
3 57 58 59
3 60 61 62
3 63 48 53
3 64 54 56
3 58 57 65
3 66 61 60
3 67 64 56
