ply
format ascii 1.0
comment This file is a part of the OpenSurgSim project.
comment Copyright 2013, SimQuest Solutions Inc.
comment 
comment Licensed under the Apache License, Version 2.0 (the "License");
comment you may not use this file except in compliance with the License.
comment You may obtain a copy of the License at
comment 
comment     http://www.apache.org/licenses/LICENSE-2.0
comment 
comment Unless required by applicable law or agreed to in writing, software
comment distributed under the License is distributed on an "AS IS" BASIS,
comment WITHOUT WARRANTIES OR CONDITIONS OF ANY KIND, either express or implied.
comment See the License for the specific language governing permissions and
comment limitations under the License.
comment
element vertex 3
property double x
property double y
property double z
element face 1
property list uint uint vertex_indices
end_header
0.00005 0.000855 -0.00531
0.00005 -0.000855 -0.00531
0.003871 0.0 -0.00533
3 0 1 2
