ply
format ascii 1.0
comment Created by Blender 2.69 (sub 0) - www.blender.org, source file: ''
element vertex 504
property float x
property float y
property float z
property float nx
property float ny
property float nz
element face 224
property list uchar uint vertex_indices
end_header
0.004801 0.000394 0.002520 0.934616 0.000000 -0.355657
0.004801 -0.000394 0.002520 0.934616 0.000000 -0.355657
0.003882 0.000000 0.000105 0.934616 0.000000 -0.355657
0.003892 0.000391 0.003619 -0.833198 0.000000 -0.552975
0.003892 -0.000391 0.003619 -0.833198 0.000000 -0.552975
0.003596 -0.000404 0.004065 -0.833198 0.000000 -0.552975
0.003596 0.000404 0.004065 -0.833198 -0.000000 -0.552975
0.004153 0.000404 0.004621 0.826688 -0.000000 0.562660
0.004153 -0.000404 0.004621 0.826688 -0.000000 0.562660
0.004592 -0.000391 0.003976 0.826688 -0.000000 0.562660
0.004592 0.000391 0.003976 0.826688 0.000000 0.562660
0.003596 0.000404 0.004065 -0.579143 0.000000 -0.815226
0.003596 -0.000404 0.004065 -0.579143 0.000000 -0.815226
0.003154 -0.000391 0.004379 -0.579143 0.000000 -0.815226
0.003154 0.000391 0.004379 -0.579143 -0.000000 -0.815226
0.004002 0.000391 0.003100 -0.978269 0.000000 -0.207340
0.004002 -0.000391 0.003100 -0.978269 0.000000 -0.207340
0.003892 -0.000391 0.003619 -0.978269 0.000000 -0.207340
0.003892 0.000391 0.003619 -0.978269 -0.000000 -0.207340
0.003154 0.000391 0.004379 -0.276560 0.000000 -0.960997
0.003154 -0.000391 0.004379 -0.276560 0.000000 -0.960997
0.002671 -0.000394 0.004518 -0.276560 0.000000 -0.960997
0.002671 0.000394 0.004518 -0.276560 -0.000000 -0.960997
0.003468 0.000391 0.005101 0.573863 -0.000000 0.818951
0.003468 -0.000391 0.005101 0.573863 -0.000000 0.818951
0.004153 -0.000404 0.004621 0.573863 -0.000000 0.818951
0.004153 0.000404 0.004621 0.573863 0.000000 0.818951
0.002757 0.000394 0.005300 0.269529 -0.000000 0.962992
0.002757 -0.000394 0.005300 0.269529 -0.000000 0.962992
0.003468 -0.000391 0.005101 0.269529 -0.000000 0.962992
0.003468 0.000391 0.005101 0.269529 0.000000 0.962992
0.004783 0.000391 0.003198 0.971162 -0.000000 0.238421
0.004592 0.000391 0.003976 0.971162 -0.000000 0.238421
0.004592 -0.000391 0.003976 0.971162 -0.000000 0.238421
0.004783 -0.000391 0.003198 0.971162 0.000000 0.238421
0.004013 0.000394 0.002520 -0.999820 0.000000 -0.018962
0.004013 -0.000394 0.002520 -0.999820 0.000000 -0.018962
0.004002 -0.000391 0.003100 -0.999820 0.000000 -0.018962
0.004002 0.000391 0.003100 -0.999820 -0.000000 -0.018962
0.004783 0.000391 0.003198 -0.000000 1.000000 0.000000
0.004002 0.000391 0.003100 -0.000000 1.000000 0.000000
0.003892 0.000391 0.003619 -0.000000 1.000000 0.000000
0.004592 0.000391 0.003976 0.000000 1.000000 0.000000
0.003596 0.000404 0.004065 0.011978 0.999856 -0.012000
0.004153 0.000404 0.004621 0.011978 0.999856 -0.012000
0.004592 0.000391 0.003976 0.011978 0.999856 -0.012000
0.003596 0.000404 0.004065 0.011103 0.999701 -0.021770
0.004592 0.000391 0.003976 0.011103 0.999701 -0.021770
0.003892 0.000391 0.003619 0.011103 0.999701 -0.021770
0.003154 0.000391 0.004379 -0.014544 0.999874 0.006325
0.003468 0.000391 0.005101 -0.014544 0.999874 0.006325
0.004153 0.000404 0.004621 -0.014544 0.999874 0.006325
0.003154 0.000391 0.004379 -0.017178 0.999704 0.017209
0.004153 0.000404 0.004621 -0.017178 0.999704 0.017209
0.003596 0.000404 0.004065 -0.017178 0.999704 0.017209
0.002671 0.000394 0.004518 0.004093 0.999992 -0.000450
0.002757 0.000394 0.005300 0.004093 0.999992 -0.000450
0.003468 0.000391 0.005101 0.004093 0.999992 -0.000450
0.002671 0.000394 0.004518 0.005520 0.999982 -0.002401
0.003468 0.000391 0.005101 0.005520 0.999982 -0.002401
0.003154 0.000391 0.004379 0.005520 0.999982 -0.002401
0.002757 -0.000394 0.005300 0.006021 -0.999982 -0.000662
0.002671 -0.000394 0.004518 0.006021 -0.999982 -0.000662
0.003154 -0.000391 0.004379 0.006021 -0.999982 -0.000662
0.002757 -0.000394 0.005300 0.003762 -0.999992 -0.001636
0.003154 -0.000391 0.004379 0.003762 -0.999992 -0.001636
0.003468 -0.000391 0.005101 0.003762 -0.999992 -0.001636
0.003596 -0.000404 0.004065 -0.011149 -0.999875 0.011169
0.004153 -0.000404 0.004621 -0.011149 -0.999875 0.011169
0.003468 -0.000391 0.005101 -0.011149 -0.999875 0.011169
0.003596 -0.000404 0.004065 -0.022463 -0.999700 0.009769
0.003468 -0.000391 0.005101 -0.022463 -0.999700 0.009769
0.003154 -0.000391 0.004379 -0.022463 -0.999700 0.009769
0.003892 -0.000391 0.003619 0.007629 -0.999859 -0.014959
0.004592 -0.000391 0.003976 0.007629 -0.999859 -0.014959
0.004153 -0.000404 0.004621 0.007629 -0.999859 -0.014959
0.003892 -0.000391 0.003619 0.017496 -0.999693 -0.017527
0.004153 -0.000404 0.004621 0.017496 -0.999693 -0.017527
0.003596 -0.000404 0.004065 0.017496 -0.999693 -0.017527
0.004002 -0.000391 0.003100 0.000000 -1.000000 -0.000000
0.004783 -0.000391 0.003198 0.000000 -1.000000 -0.000000
0.004592 -0.000391 0.003976 0.000000 -1.000000 -0.000000
0.003892 -0.000391 0.003619 0.000000 -1.000000 -0.000000
-0.001127 0.000391 -0.003682 -0.017168 0.999705 0.017168
-0.000813 0.000404 -0.004125 -0.017168 0.999705 0.017168
-0.001369 0.000404 -0.004681 -0.017168 0.999705 0.017168
-0.001127 0.000391 -0.003682 -0.006315 0.999874 0.014541
-0.001369 0.000404 -0.004681 -0.006315 0.999874 0.014541
-0.001850 0.000391 -0.003996 -0.006315 0.999874 0.014541
-0.000813 0.000404 -0.004125 0.021782 0.999701 -0.011124
-0.000367 0.000391 -0.004420 0.021782 0.999701 -0.011124
-0.000725 0.000391 -0.005121 0.021782 0.999701 -0.011124
-0.000813 0.000404 -0.004125 0.011991 0.999856 -0.011991
-0.000725 0.000391 -0.005121 0.011991 0.999856 -0.011991
-0.001369 0.000404 -0.004681 0.011991 0.999856 -0.011991
0.000053 0.000391 -0.005311 0.000000 1.000000 0.000000
-0.000725 0.000391 -0.005121 0.000000 1.000000 0.000000
-0.000367 0.000391 -0.004420 0.000000 1.000000 0.000000
0.000152 0.000391 -0.004530 0.000000 1.000000 0.000000
-0.000367 0.000391 -0.004420 0.551676 -0.000000 0.834059
-0.000813 0.000404 -0.004125 0.551676 -0.000000 0.834059
-0.000813 -0.000404 -0.004125 0.551676 -0.000000 0.834059
-0.000367 -0.000391 -0.004420 0.551676 0.000000 0.834059
-0.001369 0.000404 -0.004681 -0.564132 0.000000 -0.825684
-0.000725 0.000391 -0.005121 -0.564132 0.000000 -0.825684
-0.000725 -0.000391 -0.005121 -0.564132 0.000000 -0.825684
-0.001369 -0.000404 -0.004681 -0.564132 0.000000 -0.825684
-0.000813 0.000404 -0.004125 0.815843 -0.000000 0.578273
-0.001127 0.000391 -0.003682 0.815843 -0.000000 0.578273
-0.001127 -0.000391 -0.003682 0.815843 -0.000000 0.578273
-0.000813 -0.000404 -0.004125 0.815843 0.000000 0.578273
0.000152 0.000391 -0.004530 0.207340 -0.000000 0.978269
-0.000367 0.000391 -0.004420 0.207340 -0.000000 0.978269
-0.000367 -0.000391 -0.004420 0.207340 -0.000000 0.978269
0.000152 -0.000391 -0.004530 0.207340 0.000000 0.978269
-0.001127 0.000391 -0.003682 0.960844 -0.000000 0.277090
-0.001266 0.000394 -0.003200 0.960844 -0.000000 0.277090
-0.001266 -0.000394 -0.003200 0.960844 -0.000000 0.277090
-0.001127 -0.000391 -0.003682 0.960844 0.000000 0.277090
-0.001850 0.000391 -0.003996 -0.818389 0.000000 -0.574665
-0.001369 0.000404 -0.004681 -0.818389 0.000000 -0.574665
-0.001369 -0.000404 -0.004681 -0.818389 0.000000 -0.574665
-0.001850 -0.000391 -0.003996 -0.818389 0.000000 -0.574665
-0.002048 0.000394 -0.003285 -0.963343 0.000000 -0.268273
-0.001850 0.000391 -0.003996 -0.963343 0.000000 -0.268273
-0.001850 -0.000391 -0.003996 -0.963343 0.000000 -0.268273
-0.002048 -0.000394 -0.003285 -0.963343 0.000000 -0.268273
0.000053 0.000391 -0.005311 -0.237244 0.000000 -0.971450
0.000053 -0.000391 -0.005311 -0.237244 0.000000 -0.971450
-0.000725 -0.000391 -0.005121 -0.237244 0.000000 -0.971450
-0.000725 0.000391 -0.005121 -0.237244 -0.000000 -0.971450
-0.001266 0.000394 -0.003200 0.002402 0.999982 -0.005531
-0.001127 0.000391 -0.003682 0.002402 0.999982 -0.005531
-0.001850 0.000391 -0.003996 0.002402 0.999982 -0.005531
-0.001266 0.000394 -0.003200 0.000445 0.999992 -0.004095
-0.001850 0.000391 -0.003996 0.000445 0.999992 -0.004095
-0.002048 0.000394 -0.003285 0.000445 0.999992 -0.004095
-0.002048 -0.000394 -0.003285 0.001635 -0.999992 -0.003764
-0.001850 -0.000391 -0.003996 0.001635 -0.999992 -0.003764
-0.001127 -0.000391 -0.003682 0.001635 -0.999992 -0.003764
-0.002048 -0.000394 -0.003285 0.000656 -0.999982 -0.006035
-0.001127 -0.000391 -0.003682 0.000656 -0.999982 -0.006035
-0.001266 -0.000394 -0.003200 0.000656 -0.999982 -0.006035
-0.000813 -0.000404 -0.004125 -0.009742 -0.999701 0.022431
-0.001127 -0.000391 -0.003682 -0.009742 -0.999701 0.022431
-0.001850 -0.000391 -0.003996 -0.009742 -0.999701 0.022431
-0.000813 -0.000404 -0.004125 -0.011148 -0.999876 0.011148
-0.001850 -0.000391 -0.003996 -0.011148 -0.999876 0.011148
-0.001369 -0.000404 -0.004681 -0.011148 -0.999876 0.011148
-0.000367 -0.000391 -0.004420 0.017538 -0.999692 -0.017538
-0.000813 -0.000404 -0.004125 0.017538 -0.999692 -0.017538
-0.001369 -0.000404 -0.004681 0.017538 -0.999692 -0.017538
-0.000367 -0.000391 -0.004420 0.014963 -0.999859 -0.007641
-0.001369 -0.000404 -0.004681 0.014963 -0.999859 -0.007641
-0.000725 -0.000391 -0.005121 0.014963 -0.999859 -0.007641
0.000152 -0.000391 -0.004530 0.000000 -1.000000 0.000000
-0.000367 -0.000391 -0.004420 0.000000 -1.000000 0.000000
-0.000725 -0.000391 -0.005121 0.000000 -1.000000 0.000000
0.000053 -0.000391 -0.005311 0.000000 -1.000000 0.000000
-0.002077 0.000394 0.002660 -0.998925 0.000000 0.046350
-0.002077 -0.000394 0.002660 -0.998925 0.000000 0.046350
-0.002048 -0.000394 0.003285 -0.998925 0.000000 0.046350
-0.002048 0.000394 0.003285 -0.998925 0.000000 0.046350
0.000053 0.000391 0.005311 -0.237244 0.000000 0.971450
-0.000725 0.000391 0.005121 -0.237244 0.000000 0.971450
-0.000725 -0.000391 0.005121 -0.237244 0.000000 0.971450
0.000053 -0.000391 0.005311 -0.237244 0.000000 0.971450
-0.002048 0.000394 0.003285 -0.963343 0.000000 0.268273
-0.002048 -0.000394 0.003285 -0.963343 0.000000 0.268273
-0.001850 -0.000391 0.003996 -0.963343 0.000000 0.268273
-0.001850 0.000391 0.003996 -0.963343 0.000000 0.268273
-0.001850 0.000391 0.003996 -0.818389 0.000000 0.574665
-0.001850 -0.000391 0.003996 -0.818389 0.000000 0.574665
-0.001369 -0.000404 0.004681 -0.818389 0.000000 0.574665
-0.001369 0.000404 0.004681 -0.818389 0.000000 0.574665
-0.001127 0.000391 0.003682 0.960844 0.000000 -0.277090
-0.001127 -0.000391 0.003682 0.960844 0.000000 -0.277090
-0.001266 -0.000394 0.003200 0.960844 0.000000 -0.277090
-0.001266 0.000394 0.003200 0.960844 0.000000 -0.277090
-0.001289 0.000394 -0.002660 1.000000 -0.000000 0.000000
-0.001289 0.000394 0.002660 1.000000 -0.000000 0.000000
-0.001289 -0.000394 0.002660 1.000000 -0.000000 0.000000
-0.001289 -0.000394 -0.002660 1.000000 -0.000000 0.000000
-0.002077 0.000394 0.002660 -1.000000 0.000000 0.000000
-0.002077 0.000394 -0.002660 -1.000000 0.000000 0.000000
-0.002077 -0.000394 -0.002660 -1.000000 0.000000 0.000000
-0.002077 -0.000394 0.002660 -1.000000 0.000000 0.000000
-0.001289 -0.000394 -0.002660 0.000000 -1.000000 0.000000
-0.001289 -0.000394 0.002660 0.000000 -1.000000 0.000000
-0.002077 -0.000394 0.002660 0.000000 -1.000000 0.000000
-0.002077 -0.000394 -0.002660 0.000000 -1.000000 0.000000
-0.002077 0.000394 -0.002660 0.000000 1.000000 0.000000
-0.002077 0.000394 0.002660 0.000000 1.000000 0.000000
-0.001289 0.000394 0.002660 0.000000 1.000000 0.000000
-0.001289 0.000394 -0.002660 0.000000 1.000000 -0.000000
0.000152 0.000391 0.004530 0.207340 0.000000 -0.978269
0.000152 -0.000391 0.004530 0.207340 0.000000 -0.978269
-0.000367 -0.000391 0.004420 0.207340 0.000000 -0.978269
-0.000367 0.000391 0.004420 0.207340 0.000000 -0.978269
-0.000813 0.000404 0.004125 0.815843 0.000000 -0.578273
-0.000813 -0.000404 0.004125 0.815843 0.000000 -0.578273
-0.001127 -0.000391 0.003682 0.815843 0.000000 -0.578273
-0.001127 0.000391 0.003682 0.815843 0.000000 -0.578273
-0.001369 0.000404 0.004681 -0.564132 0.000000 0.825684
-0.001369 -0.000404 0.004681 -0.564132 0.000000 0.825684
-0.000725 -0.000391 0.005121 -0.564132 0.000000 0.825684
-0.000725 0.000391 0.005121 -0.564132 0.000000 0.825684
-0.000367 0.000391 0.004420 0.551676 0.000000 -0.834059
-0.000367 -0.000391 0.004420 0.551676 0.000000 -0.834059
-0.000813 -0.000404 0.004125 0.551676 0.000000 -0.834059
-0.000813 0.000404 0.004125 0.551676 0.000000 -0.834059
-0.001266 0.000394 0.003200 0.999094 0.000000 -0.042554
-0.001266 -0.000394 0.003200 0.999094 0.000000 -0.042554
-0.001289 -0.000394 0.002660 0.999094 0.000000 -0.042554
-0.001289 0.000394 0.002660 0.999094 0.000000 -0.042554
0.000053 0.000391 0.005311 0.000000 1.000000 -0.000000
0.000152 0.000391 0.004530 0.000000 1.000000 -0.000000
-0.000367 0.000391 0.004420 0.000000 1.000000 -0.000000
-0.000725 0.000391 0.005121 -0.000000 1.000000 0.000000
-0.000813 0.000404 0.004125 0.011991 0.999856 0.011991
-0.001369 0.000404 0.004681 0.011991 0.999856 0.011991
-0.000725 0.000391 0.005121 0.011991 0.999856 0.011991
-0.000813 0.000404 0.004125 0.021782 0.999701 0.011124
-0.000725 0.000391 0.005121 0.021782 0.999701 0.011124
-0.000367 0.000391 0.004420 0.021782 0.999701 0.011124
-0.001127 0.000391 0.003682 -0.006315 0.999874 -0.014541
-0.001850 0.000391 0.003996 -0.006315 0.999874 -0.014541
-0.001369 0.000404 0.004681 -0.006315 0.999874 -0.014541
-0.001127 0.000391 0.003682 -0.017168 0.999705 -0.017168
-0.001369 0.000404 0.004681 -0.017168 0.999705 -0.017168
-0.000813 0.000404 0.004125 -0.017168 0.999705 -0.017168
-0.001266 0.000394 0.003200 0.000445 0.999992 0.004095
-0.002048 0.000394 0.003285 0.000445 0.999992 0.004095
-0.001850 0.000391 0.003996 0.000445 0.999992 0.004095
-0.001266 0.000394 0.003200 0.002402 0.999982 0.005531
-0.001850 0.000391 0.003996 0.002402 0.999982 0.005531
-0.001127 0.000391 0.003682 0.002402 0.999982 0.005531
-0.001266 0.000394 0.003200 0.000000 1.000000 0.000000
-0.002048 0.000394 0.003285 -0.000000 1.000000 0.000000
-0.002048 -0.000394 0.003285 0.000000 -1.000000 0.000000
-0.001266 -0.000394 0.003200 -0.000000 -1.000000 0.000000
-0.002048 -0.000394 0.003285 0.000656 -0.999982 0.006035
-0.001266 -0.000394 0.003200 0.000656 -0.999982 0.006035
-0.001127 -0.000391 0.003682 0.000656 -0.999982 0.006035
-0.002048 -0.000394 0.003285 0.001635 -0.999992 0.003764
-0.001127 -0.000391 0.003682 0.001635 -0.999992 0.003764
-0.001850 -0.000391 0.003996 0.001635 -0.999992 0.003764
-0.000813 -0.000404 0.004125 -0.011148 -0.999876 -0.011148
-0.001369 -0.000404 0.004681 -0.011148 -0.999876 -0.011148
-0.001850 -0.000391 0.003996 -0.011148 -0.999876 -0.011148
-0.000813 -0.000404 0.004125 -0.009742 -0.999701 -0.022431
-0.001850 -0.000391 0.003996 -0.009742 -0.999701 -0.022431
-0.001127 -0.000391 0.003682 -0.009742 -0.999701 -0.022431
-0.000367 -0.000391 0.004420 0.014963 -0.999859 0.007641
-0.000725 -0.000391 0.005121 0.014963 -0.999859 0.007641
-0.001369 -0.000404 0.004681 0.014963 -0.999859 0.007641
-0.000367 -0.000391 0.004420 0.017538 -0.999692 0.017538
-0.001369 -0.000404 0.004681 0.017538 -0.999692 0.017538
-0.000813 -0.000404 0.004125 0.017538 -0.999692 0.017538
0.000152 -0.000391 0.004530 0.000000 -1.000000 0.000000
0.000053 -0.000391 0.005311 0.000000 -1.000000 0.000000
-0.000725 -0.000391 0.005121 0.000000 -1.000000 0.000000
-0.000367 -0.000391 0.004420 0.000000 -1.000000 0.000000
-0.001266 0.000394 -0.003200 0.999094 -0.000000 0.042554
-0.001289 0.000394 -0.002660 0.999094 -0.000000 0.042554
-0.001289 -0.000394 -0.002660 0.999094 -0.000000 0.042554
-0.001266 -0.000394 -0.003200 0.999094 0.000000 0.042554
-0.001266 0.000394 -0.003200 -0.000000 1.000000 0.000000
-0.002048 0.000394 -0.003285 -0.000000 1.000000 0.000000
-0.002048 -0.000394 -0.003285 0.000000 -1.000000 -0.000000
-0.001266 -0.000394 -0.003200 0.000000 -1.000000 -0.000000
-0.002077 0.000394 -0.002660 -0.998925 0.000000 -0.046350
-0.002048 0.000394 -0.003285 -0.998925 0.000000 -0.046350
-0.002048 -0.000394 -0.003285 -0.998925 0.000000 -0.046350
-0.002077 -0.000394 -0.002660 -0.998925 0.000000 -0.046350
0.003892 0.000391 -0.003619 -0.833198 0.000000 0.552975
0.003596 0.000404 -0.004065 -0.833198 0.000000 0.552975
0.003596 -0.000404 -0.004065 -0.833198 0.000000 0.552975
0.003892 -0.000391 -0.003619 -0.833198 0.000000 0.552975
0.004153 0.000404 -0.004621 0.826688 0.000000 -0.562660
0.004592 0.000391 -0.003976 0.826688 0.000000 -0.562660
0.004592 -0.000391 -0.003976 0.826688 0.000000 -0.562660
0.004153 -0.000404 -0.004621 0.826688 0.000000 -0.562660
0.003596 0.000404 -0.004065 -0.579143 0.000000 0.815226
0.003154 0.000391 -0.004379 -0.579143 0.000000 0.815226
0.003154 -0.000391 -0.004379 -0.579143 0.000000 0.815226
0.003596 -0.000404 -0.004065 -0.579143 0.000000 0.815226
0.004002 0.000391 -0.003100 -0.978269 0.000000 0.207340
0.003892 0.000391 -0.003619 -0.978269 0.000000 0.207340
0.003892 -0.000391 -0.003619 -0.978269 0.000000 0.207340
0.004002 -0.000391 -0.003100 -0.978269 0.000000 0.207340
0.003154 0.000391 -0.004379 -0.276560 0.000000 0.960997
0.002671 0.000394 -0.004518 -0.276560 0.000000 0.960997
0.002671 -0.000394 -0.004518 -0.276560 0.000000 0.960997
0.003154 -0.000391 -0.004379 -0.276560 0.000000 0.960997
0.003468 0.000391 -0.005101 0.573863 0.000000 -0.818951
0.004153 0.000404 -0.004621 0.573863 0.000000 -0.818951
0.004153 -0.000404 -0.004621 0.573863 0.000000 -0.818951
0.003468 -0.000391 -0.005101 0.573863 0.000000 -0.818951
0.002757 0.000394 -0.005300 0.269529 0.000000 -0.962992
0.003468 0.000391 -0.005101 0.269529 0.000000 -0.962992
0.003468 -0.000391 -0.005101 0.269529 0.000000 -0.962992
0.002757 -0.000394 -0.005300 0.269529 0.000000 -0.962992
0.004783 0.000391 -0.003198 0.971162 0.000000 -0.238421
0.004783 -0.000391 -0.003198 0.971162 0.000000 -0.238421
0.004592 -0.000391 -0.003976 0.971162 0.000000 -0.238421
0.004592 0.000391 -0.003976 0.971162 0.000000 -0.238421
0.004783 0.000391 -0.003198 -0.000000 1.000000 0.000000
0.004592 0.000391 -0.003976 -0.000000 1.000000 0.000000
0.003892 0.000391 -0.003619 -0.000000 1.000000 0.000000
0.004002 0.000391 -0.003100 -0.000000 1.000000 0.000000
0.003596 0.000404 -0.004065 0.011103 0.999701 0.021770
0.003892 0.000391 -0.003619 0.011103 0.999701 0.021770
0.004592 0.000391 -0.003976 0.011103 0.999701 0.021770
0.003596 0.000404 -0.004065 0.011978 0.999856 0.012000
0.004592 0.000391 -0.003976 0.011978 0.999856 0.012000
0.004153 0.000404 -0.004621 0.011978 0.999856 0.012000
0.003154 0.000391 -0.004379 -0.017178 0.999704 -0.017209
0.003596 0.000404 -0.004065 -0.017178 0.999704 -0.017209
0.004153 0.000404 -0.004621 -0.017178 0.999704 -0.017209
0.003154 0.000391 -0.004379 -0.014544 0.999874 -0.006325
0.004153 0.000404 -0.004621 -0.014544 0.999874 -0.006325
0.003468 0.000391 -0.005101 -0.014544 0.999874 -0.006325
0.002671 0.000394 -0.004518 0.005520 0.999982 0.002401
0.003154 0.000391 -0.004379 0.005520 0.999982 0.002401
0.003468 0.000391 -0.005101 0.005520 0.999982 0.002401
0.002671 0.000394 -0.004518 0.004093 0.999992 0.000450
0.003468 0.000391 -0.005101 0.004093 0.999992 0.000450
0.002757 0.000394 -0.005300 0.004093 0.999992 0.000450
0.002757 -0.000394 -0.005300 0.003761 -0.999992 0.001636
0.003468 -0.000391 -0.005101 0.003761 -0.999992 0.001636
0.003154 -0.000391 -0.004379 0.003761 -0.999992 0.001636
0.002757 -0.000394 -0.005300 0.006021 -0.999982 0.000662
0.003154 -0.000391 -0.004379 0.006021 -0.999982 0.000662
0.002671 -0.000394 -0.004518 0.006021 -0.999982 0.000662
0.003596 -0.000404 -0.004065 -0.022463 -0.999700 -0.009769
0.003154 -0.000391 -0.004379 -0.022463 -0.999700 -0.009769
0.003468 -0.000391 -0.005101 -0.022463 -0.999700 -0.009769
0.003596 -0.000404 -0.004065 -0.011149 -0.999875 -0.011169
0.003468 -0.000391 -0.005101 -0.011149 -0.999875 -0.011169
0.004153 -0.000404 -0.004621 -0.011149 -0.999875 -0.011169
0.003892 -0.000391 -0.003619 0.017496 -0.999693 0.017527
0.003596 -0.000404 -0.004065 0.017496 -0.999693 0.017527
0.004153 -0.000404 -0.004621 0.017496 -0.999693 0.017527
0.003892 -0.000391 -0.003619 0.007629 -0.999859 0.014959
0.004153 -0.000404 -0.004621 0.007629 -0.999859 0.014959
0.004592 -0.000391 -0.003976 0.007629 -0.999859 0.014959
0.004002 -0.000391 -0.003100 0.000000 -1.000000 0.000000
0.003892 -0.000391 -0.003619 0.000000 -1.000000 0.000000
0.004592 -0.000391 -0.003976 0.000000 -1.000000 0.000000
0.004783 -0.000391 -0.003198 -0.000000 -1.000000 0.000000
0.000732 0.000394 -0.004541 0.000000 1.000000 -0.000000
0.002132 0.000394 -0.004541 0.000000 1.000000 -0.000000
0.002132 0.000394 -0.005329 0.000000 1.000000 -0.000000
0.000732 0.000394 -0.005329 0.000000 1.000000 -0.000000
0.002132 0.000394 -0.004541 0.000000 0.000000 1.000000
0.000732 0.000394 -0.004541 0.000000 0.000000 1.000000
0.000732 -0.000394 -0.004541 0.000000 0.000000 1.000000
0.002132 -0.000394 -0.004541 0.000000 -0.000000 1.000000
0.002132 -0.000394 -0.004541 0.000000 -1.000000 0.000000
0.000732 -0.000394 -0.004541 0.000000 -1.000000 0.000000
0.000732 -0.000394 -0.005329 0.000000 -1.000000 0.000000
0.002132 -0.000394 -0.005329 0.000000 -1.000000 0.000000
0.000732 0.000394 -0.005329 0.000000 0.000000 -1.000000
0.002132 0.000394 -0.005329 0.000000 0.000000 -1.000000
0.002132 -0.000394 -0.005329 0.000000 0.000000 -1.000000
0.000732 -0.000394 -0.005329 0.000000 0.000000 -1.000000
0.004013 0.000394 0.002520 0.000000 0.986951 -0.161018
0.004801 0.000394 0.002520 0.000000 0.986951 -0.161018
0.003882 0.000000 0.000105 0.000000 0.986951 -0.161018
0.003882 0.000000 0.000105 -0.998532 0.000000 0.054165
0.004013 -0.000394 0.002520 -0.998532 0.000000 0.054165
0.004013 0.000394 0.002520 -0.998532 0.000000 0.054165
0.003882 0.000000 0.000105 0.000000 -0.986951 -0.161018
0.004801 -0.000394 0.002520 0.000000 -0.986951 -0.161018
0.004013 -0.000394 0.002520 0.000000 -0.986951 -0.161018
0.002671 0.000394 0.004518 -0.042633 0.000000 -0.999091
0.002671 -0.000394 0.004518 -0.042633 0.000000 -0.999091
0.002132 -0.000394 0.004541 -0.042633 0.000000 -0.999091
0.002132 0.000394 0.004541 -0.042633 -0.000000 -0.999091
0.004801 0.000394 0.002520 0.999648 -0.000000 0.026540
0.004783 0.000391 0.003198 0.999648 -0.000000 0.026540
0.004783 -0.000391 0.003198 0.999648 -0.000000 0.026540
0.004801 -0.000394 0.002520 0.999648 0.000000 0.026540
0.002132 0.000394 0.005329 0.046350 -0.000000 0.998925
0.002132 -0.000394 0.005329 0.046350 -0.000000 0.998925
0.002757 -0.000394 0.005300 0.046350 -0.000000 0.998925
0.002757 0.000394 0.005300 0.046350 0.000000 0.998925
0.004801 0.000394 0.002520 -0.000000 0.999987 0.005172
0.004013 0.000394 0.002520 -0.000000 0.999987 0.005172
0.004002 0.000391 0.003100 -0.000000 0.999987 0.005172
0.004801 0.000394 0.002520 -0.000553 0.999990 0.004410
0.004002 0.000391 0.003100 -0.000553 0.999990 0.004410
0.004783 0.000391 0.003198 -0.000553 0.999990 0.004410
0.002671 0.000394 0.004518 0.000000 1.000000 0.000000
0.002132 0.000394 0.004541 0.000000 1.000000 0.000000
0.002132 0.000394 0.005329 0.000000 1.000000 0.000000
0.002757 0.000394 0.005300 0.000000 1.000000 0.000000
0.002757 -0.000394 0.005300 0.000000 -1.000000 0.000000
0.002132 -0.000394 0.005329 0.000000 -1.000000 0.000000
0.002132 -0.000394 0.004541 0.000000 -1.000000 0.000000
0.002671 -0.000394 0.004518 0.000000 -1.000000 0.000000
0.004013 -0.000394 0.002520 0.000000 -0.999990 0.004425
0.004801 -0.000394 0.002520 0.000000 -0.999990 0.004425
0.004783 -0.000391 0.003198 0.000000 -0.999990 0.004425
0.004013 -0.000394 0.002520 -0.000647 -0.999986 0.005160
0.004783 -0.000391 0.003198 -0.000647 -0.999986 0.005160
0.004002 -0.000391 0.003100 -0.000647 -0.999986 0.005160
0.000732 0.000394 0.004541 0.000000 1.000000 0.000000
0.000732 0.000394 0.005329 0.000000 1.000000 0.000000
0.002132 0.000394 0.004541 0.000000 0.000000 -1.000000
0.002132 -0.000394 0.004541 0.000000 0.000000 -1.000000
0.000732 -0.000394 0.004541 0.000000 0.000000 -1.000000
0.000732 0.000394 0.004541 0.000000 0.000000 -1.000000
0.000732 -0.000394 0.005329 0.000000 -1.000000 0.000000
0.000732 -0.000394 0.004541 0.000000 -1.000000 0.000000
0.000732 0.000394 0.005329 0.000000 -0.000000 1.000000
0.000732 -0.000394 0.005329 0.000000 -0.000000 1.000000
0.002132 -0.000394 0.005329 0.000000 -0.000000 1.000000
0.002132 0.000394 0.005329 0.000000 0.000000 1.000000
0.000732 0.000394 -0.004541 0.018962 -0.000000 0.999820
0.000152 0.000391 -0.004530 0.018962 -0.000000 0.999820
0.000152 -0.000391 -0.004530 0.018962 -0.000000 0.999820
0.000732 -0.000394 -0.004541 0.018962 0.000000 0.999820
0.000152 0.000391 -0.004530 -0.005172 0.999987 0.000000
0.000732 0.000394 -0.004541 -0.005172 0.999987 0.000000
0.000732 0.000394 -0.005329 -0.005172 0.999987 0.000000
0.000152 0.000391 -0.004530 -0.004403 0.999990 0.000558
0.000732 0.000394 -0.005329 -0.004403 0.999990 0.000558
0.000053 0.000391 -0.005311 -0.004403 0.999990 0.000558
0.000732 0.000394 -0.005329 -0.026500 0.000000 -0.999649
0.000732 -0.000394 -0.005329 -0.026500 0.000000 -0.999649
0.000053 -0.000391 -0.005311 -0.026500 0.000000 -0.999649
0.000053 0.000391 -0.005311 -0.026500 -0.000000 -0.999649
0.000053 -0.000391 -0.005311 -0.004418 -0.999990 -0.000000
0.000732 -0.000394 -0.005329 -0.004418 -0.999990 -0.000000
0.000732 -0.000394 -0.004541 -0.004418 -0.999990 -0.000000
0.000053 -0.000391 -0.005311 -0.005160 -0.999986 0.000654
0.000732 -0.000394 -0.004541 -0.005160 -0.999986 0.000654
0.000152 -0.000391 -0.004530 -0.005160 -0.999986 0.000654
0.000732 0.000394 0.004541 0.018962 0.000000 -0.999820
0.000732 -0.000394 0.004541 0.018962 0.000000 -0.999820
0.000152 -0.000391 0.004530 0.018962 0.000000 -0.999820
0.000152 0.000391 0.004530 0.018962 0.000000 -0.999820
0.000732 0.000394 0.005329 -0.026500 0.000000 0.999649
0.000053 0.000391 0.005311 -0.026500 0.000000 0.999649
0.000053 -0.000391 0.005311 -0.026500 0.000000 0.999649
0.000732 -0.000394 0.005329 -0.026500 0.000000 0.999649
0.000152 0.000391 0.004530 -0.004403 0.999990 -0.000558
0.000053 0.000391 0.005311 -0.004403 0.999990 -0.000558
0.000732 0.000394 0.005329 -0.004403 0.999990 -0.000558
0.000152 0.000391 0.004530 -0.005172 0.999987 0.000000
0.000732 0.000394 0.005329 -0.005172 0.999987 0.000000
0.000732 0.000394 0.004541 -0.005172 0.999987 0.000000
0.000053 -0.000391 0.005311 -0.005160 -0.999986 -0.000654
0.000152 -0.000391 0.004530 -0.005160 -0.999986 -0.000654
0.000732 -0.000394 0.004541 -0.005160 -0.999986 -0.000654
0.000053 -0.000391 0.005311 -0.004418 -0.999990 -0.000000
0.000732 -0.000394 0.004541 -0.004418 -0.999990 -0.000000
0.000732 -0.000394 0.005329 -0.004418 -0.999990 -0.000000
0.002671 0.000394 -0.004518 -0.042633 0.000000 0.999091
0.002132 0.000394 -0.004541 -0.042633 0.000000 0.999091
0.002132 -0.000394 -0.004541 -0.042633 0.000000 0.999091
0.002671 -0.000394 -0.004518 -0.042633 0.000000 0.999091
0.004801 0.000394 -0.002520 0.999648 0.000000 -0.026540
0.004801 -0.000394 -0.002520 0.999648 0.000000 -0.026540
0.004783 -0.000391 -0.003198 0.999648 0.000000 -0.026540
0.004783 0.000391 -0.003198 0.999648 0.000000 -0.026540
0.002132 0.000394 -0.005329 0.046350 0.000000 -0.998925
0.002757 0.000394 -0.005300 0.046350 0.000000 -0.998925
0.002757 -0.000394 -0.005300 0.046350 0.000000 -0.998925
0.002132 -0.000394 -0.005329 0.046350 0.000000 -0.998925
0.004002 0.000391 -0.003100 0.000000 0.999987 -0.005172
0.004013 0.000394 -0.002520 0.000000 0.999987 -0.005172
0.004801 0.000394 -0.002520 0.000000 0.999987 -0.005172
0.004002 0.000391 -0.003100 -0.000553 0.999990 -0.004410
0.004801 0.000394 -0.002520 -0.000553 0.999990 -0.004410
0.004783 0.000391 -0.003198 -0.000553 0.999990 -0.004410
0.002671 0.000394 -0.004518 0.000000 1.000000 -0.000000
0.002757 0.000394 -0.005300 0.000000 1.000000 -0.000000
0.002757 -0.000394 -0.005300 0.000000 -1.000000 0.000000
0.002671 -0.000394 -0.004518 0.000000 -1.000000 0.000000
0.003882 0.000000 -0.000105 -0.000000 0.986951 0.161018
0.004801 0.000394 -0.002520 -0.000000 0.986951 0.161018
0.004013 0.000394 -0.002520 -0.000000 0.986951 0.161018
0.003882 0.000000 -0.000105 -0.998532 0.000000 -0.054165
0.004013 0.000394 -0.002520 -0.998532 0.000000 -0.054165
0.004013 -0.000394 -0.002520 -0.998532 0.000000 -0.054165
0.004013 -0.000394 -0.002520 0.000000 -0.986951 0.161018
0.004801 -0.000394 -0.002520 0.000000 -0.986951 0.161018
0.003882 0.000000 -0.000105 0.000000 -0.986951 0.161018
0.004801 -0.000394 -0.002520 0.934616 0.000000 0.355657
0.004801 0.000394 -0.002520 0.934616 0.000000 0.355657
0.003882 0.000000 -0.000105 0.934616 0.000000 0.355657
0.004013 0.000394 -0.002520 -0.999820 0.000000 0.018962
0.004002 0.000391 -0.003100 -0.999820 0.000000 0.018962
0.004002 -0.000391 -0.003100 -0.999820 0.000000 0.018962
0.004013 -0.000394 -0.002520 -0.999820 0.000000 0.018962
0.004783 -0.000391 -0.003198 0.000000 -0.999990 -0.004425
0.004801 -0.000394 -0.002520 0.000000 -0.999990 -0.004425
0.004013 -0.000394 -0.002520 0.000000 -0.999990 -0.004425
0.004783 -0.000391 -0.003198 -0.000647 -0.999986 -0.005160
0.004013 -0.000394 -0.002520 -0.000647 -0.999986 -0.005160
0.004002 -0.000391 -0.003100 -0.000647 -0.999986 -0.005160
3 0 1 2
3 3 4 5
3 3 5 6
3 7 8 9
3 7 9 10
3 11 12 13
3 11 13 14
3 15 16 17
3 15 17 18
3 19 20 21
3 19 21 22
3 23 24 25
3 23 25 26
3 27 28 29
3 27 29 30
3 31 32 33
3 31 33 34
3 35 36 37
3 35 37 38
3 39 40 41
3 39 41 42
3 43 44 45
3 46 47 48
3 49 50 51
3 52 53 54
3 55 56 57
3 58 59 60
3 61 62 63
3 64 65 66
3 67 68 69
3 70 71 72
3 73 74 75
3 76 77 78
3 79 80 81
3 79 81 82
3 83 84 85
3 86 87 88
3 89 90 91
3 92 93 94
3 95 96 97
3 95 97 98
3 99 100 101
3 99 101 102
3 103 104 105
3 103 105 106
3 107 108 109
3 107 109 110
3 111 112 113
3 111 113 114
3 115 116 117
3 115 117 118
3 119 120 121
3 119 121 122
3 123 124 125
3 123 125 126
3 127 128 129
3 127 129 130
3 131 132 133
3 134 135 136
3 137 138 139
3 140 141 142
3 143 144 145
3 146 147 148
3 149 150 151
3 152 153 154
3 155 156 157
3 155 157 158
3 159 160 161
3 159 161 162
3 163 164 165
3 163 165 166
3 167 168 169
3 167 169 170
3 171 172 173
3 171 173 174
3 175 176 177
3 175 177 178
3 179 180 181
3 179 181 182
3 183 184 185
3 183 185 186
3 187 188 189
3 187 189 190
3 191 192 193
3 191 193 194
3 195 196 197
3 195 197 198
3 199 200 201
3 199 201 202
3 203 204 205
3 203 205 206
3 207 208 209
3 207 209 210
3 211 212 213
3 211 213 214
3 215 216 217
3 215 217 218
3 219 220 221
3 222 223 224
3 225 226 227
3 228 229 230
3 231 232 233
3 234 235 236
3 237 193 192
3 237 192 238
3 239 189 188
3 239 188 240
3 241 242 243
3 244 245 246
3 247 248 249
3 250 251 252
3 253 254 255
3 256 257 258
3 259 260 261
3 259 261 262
3 263 264 265
3 263 265 266
3 267 268 191
3 267 191 194
3 269 270 187
3 269 187 190
3 271 272 273
3 271 273 274
3 275 276 277
3 275 277 278
3 279 280 281
3 279 281 282
3 283 284 285
3 283 285 286
3 287 288 289
3 287 289 290
3 291 292 293
3 291 293 294
3 295 296 297
3 295 297 298
3 299 300 301
3 299 301 302
3 303 304 305
3 303 305 306
3 307 308 309
3 307 309 310
3 311 312 313
3 314 315 316
3 317 318 319
3 320 321 322
3 323 324 325
3 326 327 328
3 329 330 331
3 332 333 334
3 335 336 337
3 338 339 340
3 341 342 343
3 344 345 346
3 347 348 349
3 347 349 350
3 351 352 353
3 351 353 354
3 355 356 357
3 355 357 358
3 359 360 361
3 359 361 362
3 363 364 365
3 363 365 366
3 367 368 369
3 370 371 372
3 373 374 375
3 376 377 378
3 376 378 379
3 380 381 382
3 380 382 383
3 384 385 386
3 384 386 387
3 388 389 390
3 391 392 393
3 394 395 396
3 394 396 397
3 398 399 400
3 398 400 401
3 402 403 404
3 405 406 407
3 408 409 396
3 408 396 395
3 410 411 412
3 410 412 413
3 400 399 414
3 400 414 415
3 416 417 418
3 416 418 419
3 420 421 422
3 420 422 423
3 424 425 426
3 427 428 429
3 430 431 432
3 430 432 433
3 434 435 436
3 437 438 439
3 440 441 442
3 440 442 443
3 444 445 446
3 444 446 447
3 448 449 450
3 451 452 453
3 454 455 456
3 457 458 459
3 460 461 462
3 460 462 463
3 464 465 466
3 464 466 467
3 468 469 470
3 468 470 471
3 472 473 474
3 475 476 477
3 478 479 353
3 478 353 352
3 480 481 359
3 480 359 362
3 482 483 484
3 485 486 487
3 488 489 490
3 491 492 493
3 494 495 496
3 494 496 497
3 498 499 500
3 501 502 503
