ply
format ascii 1.0
comment Created by Blender 2.69 (sub 0) - www.blender.org, source file: ''
element vertex 497
property float x
property float y
property float z
property float nx
property float ny
property float nz
property float s
property float t
element face 528
property list uchar uint vertex_indices
end_header
-0.034406 -0.138728 0.085027 0.617512 -0.238655 0.749443 0.135340 0.509730
-0.095526 -0.143070 0.117518 -0.006439 0.134373 0.990905 0.282049 0.406200
-0.073474 -0.164703 0.097069 0.472671 -0.346233 0.810358 0.259420 0.472470
-0.089139 -0.108707 0.098688 -0.398755 0.490005 0.775109 0.188060 0.358130
-0.129650 -0.149046 0.099186 -0.476699 0.451735 0.754082 0.350790 0.366940
-0.133343 -0.125453 0.079854 -0.627003 0.514847 0.584582 0.293109 0.318900
-0.158610 -0.161847 0.087944 -0.684011 0.535386 0.495407 0.443599 0.357970
-0.147506 -0.135123 0.066233 -0.850337 0.523118 0.056703 0.342009 0.305170
-0.140091 -0.134212 0.047694 -0.741386 0.297952 -0.601276 0.319526 0.270466
-0.112058 -0.143467 0.031450 -0.246956 0.147954 -0.957640 0.278074 0.212619
-0.137006 -0.171907 0.024205 -0.397565 0.438246 -0.806116 0.365560 0.214520
-0.127485 -0.096863 0.041471 -0.864437 0.342296 -0.368175 0.207157 0.259402
-0.107972 -0.097765 0.020968 -0.513932 -0.066713 -0.855220 0.188810 0.220410
-0.100711 -0.071205 0.017457 -0.641285 0.242775 -0.727866 0.153949 0.220629
-0.094869 -0.049269 0.027848 -0.748985 0.605426 -0.269173 0.131870 0.234050
-0.117000 -0.077587 0.054747 -0.785028 0.574175 0.232368 0.163450 0.270300
-0.095276 -0.064566 0.068078 -0.525925 0.586016 0.616382 0.130968 0.286588
-0.113704 -0.177831 0.014641 0.087588 0.250923 -0.964019 0.354810 0.871980
-0.112058 -0.143467 0.031450 -0.246956 0.147954 -0.957640 0.296340 0.934129
-0.089934 -0.153713 0.029127 0.142491 -0.011933 -0.989715 0.266570 0.800189
-0.079289 -0.147286 0.027650 0.107456 -0.303934 -0.946593 0.236930 0.764110
-0.137006 -0.171907 0.024205 -0.397565 0.438246 -0.806116 0.366090 0.965530
-0.082414 -0.082211 0.008469 -0.221046 -0.136357 -0.965667 0.147348 0.905596
-0.051717 -0.138004 0.030921 0.301401 -0.444136 -0.843715 0.172420 0.668253
-0.025528 -0.098342 0.015002 0.286416 -0.452101 -0.844691 0.106645 0.656621
-0.107972 -0.097765 0.020968 -0.513932 -0.066713 -0.855220 0.209280 0.974420
-0.142783 -0.254342 0.123768 0.446211 -0.051180 0.893460 0.656300 0.541330
-0.101305 -0.234032 0.091627 0.774926 -0.313974 0.548509 0.553391 0.588060
-0.102843 -0.204043 0.103309 0.570208 -0.214209 0.793054 0.405861 0.510860
-0.072018 -0.196510 0.074296 0.767876 -0.534806 0.352580 0.356783 0.579623
-0.142754 -0.290047 0.121434 0.652303 -0.192724 0.733024 0.750953 0.583825
-0.118145 -0.291408 0.075826 0.864864 -0.378857 0.329264 0.807090 0.695700
-0.094587 -0.237734 0.070190 0.897519 -0.439924 0.029359 0.571026 0.654340
-0.107834 -0.265226 0.057088 0.911863 -0.369457 -0.178747 0.726160 0.731651
-0.100382 -0.205285 0.018451 0.601306 -0.169439 -0.780816 0.411672 0.797526
-0.071727 -0.197868 0.047559 0.775811 -0.460341 -0.431440 0.379059 0.666993
-0.117261 -0.248959 0.018451 0.709738 -0.274300 -0.648854 0.595351 0.822090
-0.137698 -0.242054 0.007571 0.159795 0.008789 -0.987091 0.534770 0.882390
-0.169827 -0.222033 0.013664 -0.433302 0.352336 -0.829493 0.462741 0.950520
-0.054913 -0.166683 0.089177 0.504929 -0.451552 0.735588 0.228820 0.514750
-0.073474 -0.164703 0.097069 0.472671 -0.346233 0.810358 0.255890 0.486160
-0.053999 -0.178943 0.068243 0.728843 -0.674978 0.114689 0.256240 0.570673
-0.056141 -0.178721 0.053097 0.678884 -0.573992 -0.457808 0.263661 0.612951
-0.040966 -0.160917 0.049422 0.653554 -0.572192 -0.495376 0.191410 0.590020
-0.024684 -0.135880 0.048566 0.745933 -0.548601 -0.377575 0.122524 0.566469
-0.032947 -0.152802 0.077119 0.790735 -0.501541 0.350932 0.169058 0.522833
-0.034406 -0.138728 0.085027 0.617512 -0.238655 0.749443 0.133570 0.514180
-0.102843 -0.204043 0.103309 0.570208 -0.214209 0.793054 0.415881 0.497320
-0.072018 -0.196510 0.074296 0.767876 -0.534806 0.352580 0.361480 0.499110
-0.124310 -0.178188 0.115529 -0.124119 0.125889 0.984222 0.421920 0.440600
-0.151491 -0.226451 0.126917 0.130406 0.178167 0.975311 0.608100 0.477680
-0.142783 -0.254342 0.123768 0.446211 -0.051180 0.893460 0.645660 0.519570
-0.168455 -0.250414 0.131316 0.052187 0.118320 0.991577 0.689931 0.491150
-0.142754 -0.290047 0.121434 0.652303 -0.192724 0.733024 0.754360 0.554610
-0.162641 -0.214932 0.121335 -0.237587 0.428510 0.871700 0.600580 0.452870
-0.192548 -0.235165 0.119802 -0.433363 0.471755 0.767846 0.712841 0.454750
-0.175871 -0.189557 0.092860 -0.695059 0.572588 0.434736 0.559241 0.386500
-0.205504 -0.230207 0.102593 -0.698508 0.591510 0.402661 0.730051 0.431070
-0.180305 -0.189423 0.073818 -0.811151 0.578478 0.085971 0.576059 0.350370
-0.204769 -0.221733 0.059822 -0.816736 0.556078 -0.153935 0.717807 0.342718
-0.161023 -0.190129 0.105518 -0.418775 0.495926 0.760674 0.528620 0.411331
-0.164097 -0.168009 0.053186 -0.783685 0.511826 -0.351909 0.473341 0.291050
-0.147443 -0.153377 0.045298 -0.643727 0.376812 -0.666005 0.381480 0.262520
-0.175397 -0.208187 0.029894 -0.678610 0.455824 -0.575915 0.596889 0.253480
-0.169827 -0.222033 0.013664 -0.433302 0.352336 -0.829493 0.587758 0.225680
-0.123395 -0.193997 0.115491 0.297952 0.031800 0.954039 0.457371 0.460770
-0.139576 -0.194705 0.114521 -0.189611 0.364025 0.911863 0.499065 0.446365
-0.113704 -0.177831 0.014641 0.087588 0.250923 -0.964019 0.380571 0.208017
-0.029661 -0.026017 0.072947 -0.192022 0.480422 0.855739 0.040560 0.331810
-0.016507 0.005742 0.053189 -0.372692 0.592029 0.714530 0.082710 0.266979
-0.077178 -0.031569 0.040515 -0.645558 0.739555 0.190466 0.101726 0.254639
-0.069241 -0.087154 0.093206 -0.164647 0.450606 0.877377 0.131630 0.354850
-0.012845 -0.033626 0.075192 0.256722 0.210669 0.943236 0.064239 0.351802
-0.047403 -0.104398 0.100711 0.328745 0.121830 0.936491 0.159656 0.410770
-0.100711 -0.071205 0.017457 -0.641285 0.242775 -0.727866 0.143802 0.982094
-0.045772 -0.019566 0.006289 -0.474563 0.362133 -0.802271 0.000000 0.000000
-0.070686 -0.035330 0.013774 -0.587237 0.508744 -0.629505 1.000000 1.000000
-0.060966 -0.020698 0.016531 -0.640187 0.629536 -0.440230 1.000000 0.000000
-0.080407 -0.049962 0.011017 -0.492294 0.323527 -0.808039 1.000000 0.000000
-0.042958 -0.023216 0.003989 -0.343211 0.213507 -0.914640 0.000000 0.000000
-0.080407 -0.049962 0.011017 -0.492294 0.323527 -0.808039 1.000000 1.000000
-0.045772 -0.019566 0.006289 -0.474563 0.362133 -0.802271 1.000000 0.000000
-0.064116 -0.055063 0.005870 -0.272439 0.104343 -0.956481 1.000000 1.000000
-0.060966 -0.020698 0.016531 -0.640187 0.629536 -0.440230 1.000000 1.000000
-0.041213 -0.010922 0.007368 -0.604999 0.511979 -0.609760 1.000000 0.000000
-0.041213 -0.010922 0.007368 -0.604999 0.511979 -0.609760 0.000000 0.000000
-0.045510 -0.004979 0.018062 -0.686666 0.672781 -0.275277 1.000000 1.000000
-0.038985 -0.007374 0.007852 -0.656667 0.523820 -0.542528 0.000000 0.000000
-0.031328 0.003065 0.009383 -0.597064 0.657613 -0.459334 1.000000 0.000000
-0.031328 0.003065 0.009383 -0.597064 0.657613 -0.459334 0.000000 0.000000
-0.030055 0.010739 0.019593 -0.718284 0.654775 -0.235115 1.000000 0.000000
-0.030055 0.010739 0.019593 -0.718284 0.654775 -0.235115 1.000000 1.000000
-0.024969 0.006084 0.006524 -0.576281 0.633869 -0.515824 1.000000 0.000000
0.005457 0.021488 -0.003922 -0.489883 0.281381 -0.825098 0.000000 0.000000
-0.003050 0.016505 -0.001094 -0.479507 0.367565 -0.796808 1.000000 0.000000
-0.003552 0.034842 0.007667 -0.696646 0.405408 -0.591845 1.000000 1.000000
-0.003552 0.034842 0.007667 -0.696646 0.405408 -0.591845 1.000000 0.000000
0.012243 0.045367 -0.001958 -0.561296 0.201972 -0.802545 1.000000 1.000000
0.017288 0.029591 -0.006507 -0.342479 0.157537 -0.926206 1.000000 0.000000
0.025400 0.035581 -0.008882 -0.394604 0.012482 -0.918729 0.000000 0.000000
0.028037 0.055893 -0.011583 -0.446822 0.030335 -0.894101 1.000000 0.000000
0.028037 0.055893 -0.011583 -0.446822 0.030335 -0.894101 1.000000 1.000000
0.028559 0.037835 -0.009976 -0.183081 -0.103580 -0.977599 1.000000 0.000000
0.028559 0.037835 -0.009976 -0.183081 -0.103580 -0.977599 0.000000 0.000000
0.036877 0.044100 -0.011536 -0.150670 -0.117038 -0.981628 1.000000 1.000000
0.031086 0.036126 -0.009975 -0.116825 -0.108402 -0.987213 1.000000 0.000000
0.037350 0.030379 -0.010384 -0.095431 -0.186254 -0.977844 0.000000 0.000000
0.045717 0.032308 -0.011490 0.121494 -0.368725 -0.921537 1.000000 0.000000
0.031086 0.036126 -0.009975 -0.116825 -0.108402 -0.987213 0.000000 0.000000
0.037350 0.030379 -0.010384 -0.095431 -0.186254 -0.977844 1.000000 0.000000
0.040411 0.028108 -0.009454 0.052065 -0.488113 -0.871212 0.000000 0.000000
0.045717 0.032308 -0.011490 0.121494 -0.368725 -0.921537 1.000000 1.000000
0.048486 0.022397 -0.003959 0.391461 -0.484878 -0.782037 0.000000 0.000000
0.040411 0.028108 -0.009454 0.052065 -0.488113 -0.871212 1.000000 0.000000
0.055057 0.018595 0.002370 0.427900 -0.536332 -0.727470 0.000000 0.000000
0.052980 0.019776 0.000209 0.406842 -0.518479 -0.752068 1.000000 0.000000
0.063030 0.026074 0.001161 0.655629 -0.581744 -0.481307 1.000000 1.000000
0.063030 0.026074 0.001161 0.655629 -0.581744 -0.481307 1.000000 0.000000
0.050502 0.005284 0.009120 0.800134 -0.515519 -0.306558 1.000000 1.000000
0.050963 0.012734 0.002376 0.706595 -0.498398 -0.502274 1.000000 0.000000
0.050963 0.012734 0.002376 0.706595 -0.498398 -0.502274 0.000000 0.000000
0.042826 0.001662 0.002162 0.695059 -0.495590 -0.520798 1.000000 0.000000
0.042826 0.001662 0.002162 0.695059 -0.495590 -0.520798 0.000000 0.000000
0.050502 0.005284 0.009120 0.800134 -0.515519 -0.306558 1.000000 0.000000
0.040124 -0.010307 0.009825 0.726218 -0.506821 -0.464431 1.000000 1.000000
0.037686 -0.005301 0.002161 0.660665 -0.494736 -0.564531 0.000000 0.000000
0.029745 -0.025899 0.010530 0.690909 -0.494583 -0.527268 1.000000 0.000000
0.029745 -0.025899 0.010530 0.690909 -0.494583 -0.527268 1.000000 1.000000
0.026633 -0.017361 0.001955 0.539018 -0.468673 -0.699850 1.000000 0.000000
0.026633 -0.017361 0.001955 0.539018 -0.468673 -0.699850 0.000000 0.000000
0.019367 -0.041490 0.011236 0.622730 -0.471297 -0.624561 1.000000 1.000000
0.018301 -0.026294 0.002420 0.385876 -0.442518 -0.809442 1.000000 0.000000
0.018301 -0.026294 0.002420 0.385876 -0.442518 -0.809442 0.000000 0.000000
0.010551 -0.032448 0.002935 0.320536 -0.398755 -0.859188 1.000000 0.000000
0.010551 -0.032448 0.002935 0.320536 -0.398755 -0.859188 0.000000 0.000000
0.008989 -0.057082 0.011941 0.550920 -0.426893 -0.717063 1.000000 0.000000
0.008989 -0.057082 0.011941 0.550920 -0.426893 -0.717063 1.000000 1.000000
0.002911 -0.037667 0.002986 0.239814 -0.343669 -0.907926 1.000000 0.000000
0.002911 -0.037667 0.002986 0.239814 -0.343669 -0.907926 0.000000 0.000000
-0.004764 -0.042444 0.002641 0.262398 -0.320994 -0.909970 1.000000 0.000000
-0.004764 -0.042444 0.002641 0.262398 -0.320994 -0.909970 0.000000 0.000000
-0.008270 -0.077712 0.013472 0.408307 -0.403424 -0.818842 1.000000 1.000000
-0.014017 -0.047775 0.001829 0.191504 -0.287149 -0.938536 0.000000 0.000000
-0.025528 -0.098342 0.015002 0.286416 -0.452101 -0.844691 1.000000 0.000000
-0.036677 -0.079253 0.007862 0.071841 -0.311319 -0.947569 1.000000 1.000000
-0.020227 -0.043313 -0.000071 0.092288 -0.214331 -0.972381 1.000000 0.000000
-0.020227 -0.043313 -0.000071 0.092288 -0.214331 -0.972381 0.000000 0.000000
-0.047826 -0.060163 0.000722 -0.081271 -0.115329 -0.989990 1.000000 0.000000
-0.026591 -0.038391 -0.001059 0.008423 -0.089694 -0.995911 0.000000 0.000000
-0.047826 -0.060163 0.000722 -0.081271 -0.115329 -0.989990 1.000000 1.000000
-0.030314 -0.034863 -0.001072 -0.136692 0.012574 -0.990509 1.000000 0.000000
-0.034613 -0.031344 0.000049 -0.240547 0.075961 -0.967650 0.000000 0.000000
-0.055971 -0.057613 0.003296 -0.269814 0.098025 -0.957884 1.000000 1.000000
-0.030314 -0.034863 -0.001072 -0.136692 0.012574 -0.990509 0.000000 0.000000
-0.038250 -0.027644 0.001447 -0.303537 0.134739 -0.943236 0.000000 0.000000
-0.034613 -0.031344 0.000049 -0.240547 0.075961 -0.967650 1.000000 0.000000
-0.064116 -0.055063 0.005870 -0.272439 0.104343 -0.956481 1.000000 0.000000
-0.042958 -0.023216 0.003989 -0.343211 0.213507 -0.914640 1.000000 0.000000
-0.024969 0.006084 0.006524 -0.576281 0.633869 -0.515824 0.000000 0.000000
-0.023429 0.016765 0.016611 -0.686087 0.606220 -0.402142 1.000000 1.000000
-0.019299 0.008727 0.004036 -0.506760 0.641133 -0.576250 0.000000 0.000000
-0.012031 0.012042 0.001713 -0.502518 0.566301 -0.653249 0.000000 0.000000
-0.019299 0.008727 0.004036 -0.506760 0.641133 -0.576250 1.000000 0.000000
-0.016803 0.022790 0.013630 -0.691397 0.552263 -0.465743 1.000000 0.000000
-0.006243 0.014676 -0.000018 -0.523606 0.429884 -0.735496 0.000000 0.000000
-0.012031 0.012042 0.001713 -0.502518 0.566301 -0.653249 1.000000 0.000000
-0.016803 0.022790 0.013630 -0.691397 0.552263 -0.465743 1.000000 1.000000
0.052980 0.019776 0.000209 0.406842 -0.518479 -0.752068 0.000000 0.000000
0.048486 0.022397 -0.003959 0.391461 -0.484878 -0.782037 1.000000 0.000000
0.053360 0.187479 -0.088072 -0.614277 0.521683 -0.591998 0.322451 0.094662
0.048824 0.176015 -0.075798 -0.880428 0.423109 -0.213935 0.338641 0.110258
0.060302 0.192927 -0.081476 0.005860 0.998016 -0.062410 0.310308 0.088773
0.053192 0.175399 -0.085858 -0.549455 -0.283029 -0.786096 0.335220 0.101700
-0.100711 -0.071205 0.017457 -0.641285 0.242775 -0.727866 0.966166 0.212554
-0.094869 -0.049269 0.027848 -0.748985 0.605426 -0.269173 0.952723 0.231841
-0.080407 -0.049962 0.011017 -0.492294 0.323527 -0.808039 0.934786 0.219472
-0.071377 -0.030421 0.019477 -0.679586 0.638600 -0.360973 0.889548 0.226645
-0.077178 -0.031569 0.040515 -0.645558 0.739555 0.190466 0.899208 0.251069
-0.060966 -0.020698 0.016531 -0.640187 0.629536 -0.440230 0.847640 0.236770
-0.030500 0.010319 0.033141 -0.675436 0.684286 0.274789 0.740681 0.264800
-0.016507 0.005742 0.053189 -0.372692 0.592029 0.714530 0.718071 0.309760
-0.001950 0.034472 0.040273 -0.473525 0.573809 0.668203 0.643033 0.298300
0.009464 0.000422 0.061640 0.136174 0.311991 0.940245 0.670646 0.372138
0.031230 0.073215 0.028204 -0.386975 0.555101 0.736259 0.513823 0.299301
-0.001327 0.048814 0.021202 -0.774224 0.626118 0.092318 0.618682 0.273535
-0.023862 0.019383 0.025303 -0.743156 0.668935 0.014405 0.712310 0.264110
-0.003552 0.034842 0.007667 -0.696646 0.405408 -0.591845 0.647650 0.255020
0.016955 0.071701 0.004583 -0.804529 0.557146 -0.205603 0.548534 0.263306
0.029876 0.087677 0.001883 -0.916013 0.387310 0.104251 0.498770 0.268030
0.034158 0.080050 -0.013303 -0.758660 -0.150639 -0.633808 0.513733 0.250058
0.043933 0.113530 0.002318 -0.602466 0.477096 0.639821 0.426570 0.255980
0.034355 0.126546 -0.014456 -0.693136 0.425031 0.582110 0.427820 0.215940
0.027702 0.130549 -0.029101 -0.953917 0.209937 0.214301 0.434330 0.198350
0.027156 0.132034 -0.044410 -0.964263 0.012604 -0.264595 0.437699 0.188555
0.030087 0.109675 -0.039882 -0.785638 -0.393048 -0.477706 0.470850 0.222740
0.033561 0.144661 -0.031491 -0.738334 0.539079 0.405225 0.402106 0.187773
0.031436 0.149384 -0.049052 -0.941282 0.333018 -0.055361 0.399565 0.167196
0.042691 0.152059 -0.068252 -0.356517 -0.420148 -0.834437 0.431340 0.169670
0.036733 0.168909 -0.065820 -0.865871 0.447493 -0.223579 0.369148 0.127941
0.042691 0.152059 -0.068252 -0.356517 -0.420148 -0.834437 0.395810 0.143320
0.041507 0.156460 -0.041081 -0.387127 0.810694 0.439161 0.365580 0.162280
0.053331 0.178546 -0.064539 -0.334208 0.815943 0.471694 0.324280 0.113570
0.054500 0.157414 -0.046985 0.640950 0.381237 0.666158 0.327890 0.162200
0.057856 0.172224 -0.057044 0.485885 0.470901 0.736290 0.313070 0.128910
0.060302 0.192927 -0.081476 0.005860 0.998016 -0.062410 0.299460 0.087742
0.053331 0.178546 -0.064539 -0.334208 0.815943 0.471694 0.309980 0.099810
0.072808 0.184492 -0.072316 0.904080 0.352794 0.241035 0.284679 0.109697
0.048824 0.176015 -0.075798 -0.880428 0.423109 -0.213935 0.344190 0.112360
0.048824 0.176015 -0.075798 -0.880428 0.423109 -0.213935 0.378837 0.128303
0.042691 0.152059 -0.068252 -0.356517 -0.420148 -0.834437 0.384310 0.126990
0.053192 0.175399 -0.085858 -0.549455 -0.283029 -0.786096 0.347560 0.104090
-0.030055 0.010739 0.019593 -0.718284 0.654775 -0.235115 0.733560 0.250650
0.053331 0.178546 -0.064539 -0.334208 0.815943 0.471694 0.325550 0.108270
0.062351 0.140813 -0.052413 0.540544 0.148961 -0.827998 0.316680 0.182090
0.044423 0.153834 -0.031511 -0.528428 0.773522 0.349834 0.364836 0.180676
0.077645 0.176641 -0.019022 -0.312876 0.741417 0.593616 0.260121 0.223980
0.062326 0.169802 -0.031884 -0.696463 0.713736 0.073977 0.301326 0.204647
0.089982 0.134839 0.007425 0.074465 0.404004 0.911679 0.295650 0.315700
0.090978 0.167871 -0.012292 0.003449 0.676992 0.735954 0.243450 0.264540
0.104416 0.164731 -0.007223 0.220099 0.572924 0.789483 0.220810 0.296310
0.071473 0.087802 0.024618 0.181249 0.206519 0.961486 0.405190 0.354640
0.099112 0.112075 0.012738 0.361431 0.183538 0.914121 0.310110 0.370450
0.056200 0.106395 0.017740 -0.257424 0.465377 0.846828 0.410687 0.294059
0.048578 0.045226 0.040054 0.287332 0.218482 0.932554 0.518630 0.377680
0.038577 0.003636 0.048319 0.629627 -0.080508 0.772668 0.601120 0.425850
0.069661 0.051686 0.026788 0.630116 -0.142216 0.763359 0.462860 0.409610
-0.012845 -0.033626 0.075192 0.256722 0.210669 0.943236 0.768420 0.382030
0.022281 -0.046062 0.052876 0.800012 -0.255013 0.543077 0.714108 0.468367
-0.012438 -0.065327 0.080839 0.459090 0.032868 0.887753 0.815400 0.434250
-0.047403 -0.104398 0.100711 0.328745 0.121830 0.936491 0.951641 0.425704
0.007882 -0.075129 0.060295 0.831538 -0.310190 0.460738 0.786970 0.489360
-0.095526 -0.143070 0.117518 -0.006439 0.134373 0.990905 0.981023 0.456908
-0.034406 -0.138728 0.085027 0.617512 -0.238655 0.749443 0.961750 0.509730
0.086777 0.051774 0.007718 0.725730 -0.636860 0.260170 0.428198 0.444416
0.099099 0.057013 -0.007341 0.564135 -0.824000 0.052583 0.395210 0.454600
0.116055 0.101138 0.004211 0.617603 -0.100620 0.779992 0.289090 0.422220
0.117596 0.072557 -0.011385 0.692343 -0.623188 0.363689 0.326990 0.473156
0.135593 0.091315 -0.023447 0.830134 -0.526200 0.184149 0.260220 0.478520
0.153810 0.117798 -0.036576 0.894040 -0.390515 0.219428 0.196867 0.467708
0.140320 0.128395 -0.014932 0.717124 0.083132 0.691946 0.195960 0.427720
0.142930 0.139531 -0.026574 0.913083 0.193945 0.358654 0.174691 0.414974
0.135350 0.160543 -0.021139 0.338969 0.553209 0.760918 0.158440 0.365650
0.115943 0.158452 -0.014365 0.509842 0.500473 0.699637 0.203120 0.329410
0.111779 0.136021 -0.000945 0.439436 0.266610 0.857753 0.245470 0.357710
0.119415 0.161260 -0.029098 0.635609 0.737358 0.228645 0.188520 0.331390
0.120143 0.170376 -0.026107 0.836146 0.079531 0.542680 0.178018 0.316824
0.143992 0.185383 -0.050780 -0.503769 0.821467 0.267098 0.102570 0.343770
0.124638 0.156789 -0.045934 -0.385479 0.583209 -0.714988 0.172400 0.336930
0.149787 0.189905 -0.066389 -0.877407 0.389904 -0.279427 0.078462 0.341776
0.142136 0.176099 -0.060030 -0.792535 0.112705 -0.599292 0.112540 0.336640
0.158948 0.201971 -0.073733 -0.183477 0.890164 0.416974 0.082315 0.372172
0.156843 0.179321 -0.044757 0.556658 0.471236 0.684133 0.082094 0.377823
0.156843 0.179321 -0.044757 0.556658 0.471236 0.684133 0.087780 0.372400
0.158948 0.201971 -0.073733 -0.183477 0.890164 0.416974 0.045070 0.346890
0.164352 0.175030 -0.057553 0.905423 -0.305887 0.294259 0.073840 0.398740
0.174433 0.195623 -0.077625 0.801996 0.406476 0.437635 0.020480 0.387770
0.156843 0.179321 -0.044757 0.556658 0.471236 0.684133 0.078100 0.382990
0.173943 0.185599 -0.072128 0.940825 -0.171117 0.292398 0.037193 0.399844
0.068895 0.033324 0.018779 0.821406 -0.471297 0.321146 0.491740 0.437240
0.053625 0.008548 0.028163 0.880520 -0.395825 0.260720 0.561610 0.440210
0.085054 0.179529 -0.021891 0.072909 0.708670 0.701743 0.240270 0.232350
0.087669 0.194926 -0.033440 -0.316691 0.742180 0.590625 0.211122 0.213362
0.075763 0.188482 -0.037689 -0.775048 0.558336 0.295816 0.246170 0.197800
0.086585 0.204852 -0.059950 -0.849727 0.295907 -0.436293 0.187156 0.190790
0.071425 0.178549 -0.047528 -0.765007 0.283731 -0.578082 0.267450 0.197950
0.073688 0.178289 -0.029712 -0.626728 0.700186 0.341899 0.265743 0.210273
0.061518 0.163416 -0.042216 -0.599200 0.348064 -0.720939 0.310410 0.197450
0.095701 0.175835 -0.027930 0.384381 0.781945 0.490677 0.220030 0.259690
0.109910 0.180100 -0.024071 -0.034181 0.734275 0.677969 0.186271 0.283171
0.141667 0.204766 -0.052178 0.644765 0.433302 0.629658 0.098020 0.295780
0.141560 0.193098 -0.048534 0.885922 -0.116947 0.448836 0.098520 0.321330
0.123196 0.202612 -0.044287 -0.172918 0.794855 0.581591 0.092590 0.280640
0.141494 0.222353 -0.076623 -0.070620 0.911069 0.406110 0.059790 0.277920
0.123289 0.206979 -0.059764 -0.754723 0.650319 -0.086337 0.112692 0.264495
0.141667 0.204766 -0.052178 0.644765 0.433302 0.629658 0.081990 0.304590
0.142189 0.190741 -0.063498 0.671773 -0.714438 -0.195593 0.087940 0.327060
0.135284 0.182073 -0.055424 0.644490 -0.706076 -0.293313 0.107730 0.328780
0.119302 0.159993 -0.038419 0.891842 0.380688 -0.244179 0.180790 0.332860
0.100002 0.190618 -0.036926 0.709861 0.007294 0.704276 0.190200 0.243860
0.097660 0.172552 -0.038978 0.447127 0.658864 -0.604907 0.211300 0.262970
0.107389 0.210566 -0.046282 0.319437 0.519822 0.792291 0.147990 0.226080
0.108825 0.199336 -0.043741 0.812433 -0.088382 0.576281 0.159984 0.245722
0.108636 0.198062 -0.055260 0.766167 -0.610309 -0.201147 0.155020 0.252040
0.088707 0.170507 -0.052685 0.130833 -0.272896 -0.953093 0.200790 0.261530
0.131489 0.229080 -0.078973 0.961638 0.035493 0.271920 0.069787 0.240614
0.118713 0.224846 -0.062923 0.466414 0.536485 0.703269 0.104782 0.225075
0.107296 0.229914 -0.067456 -0.372936 0.835231 0.404065 0.116859 0.196548
0.093507 0.210231 -0.047680 -0.442854 0.695090 0.566271 0.175260 0.199050
0.142987 0.148360 -0.029221 0.888852 0.018891 0.457747 0.161963 0.397901
0.150255 0.161588 -0.033474 0.818812 -0.124699 0.560289 0.126154 0.391636
0.156843 0.179321 -0.044757 0.556658 0.471236 0.684133 0.089596 0.378162
0.150595 0.155065 -0.051764 0.595294 -0.764000 -0.248756 0.121890 0.403040
-0.069241 -0.087154 0.093206 -0.164647 0.450606 0.877377 0.914152 0.365852
-0.029661 -0.026017 0.072947 -0.192022 0.480422 0.855739 0.793950 0.336740
-0.029661 -0.026017 0.072947 -0.192022 0.480422 0.855739 0.790105 0.328337
0.174312 0.176682 -0.080673 -0.298288 0.916105 -0.267800 0.042770 0.427560
0.168610 0.169180 -0.067224 -0.211097 0.854549 0.474502 0.058830 0.426820
0.182614 0.176064 -0.078900 0.675924 0.733573 -0.070406 0.042790 0.429381
0.168610 0.169180 -0.067224 -0.211097 0.854549 0.474502 0.062340 0.427740
0.179213 0.165289 -0.068282 0.721335 0.306223 0.621174 0.055790 0.445457
-0.034406 -0.138728 0.085027 0.617512 -0.238655 0.749443 0.959968 0.514181
-0.032947 -0.152802 0.077119 0.790735 -0.501541 0.350932 0.958829 0.529430
0.007882 -0.075129 0.060295 0.831538 -0.310190 0.460738 0.932195 0.522238
0.003153 -0.089268 0.046601 0.876431 -0.480819 -0.025452 0.824771 0.564740
0.007882 -0.075129 0.060295 0.831538 -0.310190 0.460738 0.787970 0.551140
0.022281 -0.046062 0.052876 0.800012 -0.255013 0.543077 0.707390 0.565900
0.029309 -0.040991 0.029773 0.865352 -0.488021 -0.113834 0.694998 0.593245
-0.004285 -0.094112 0.027983 0.699789 -0.535356 -0.472884 0.848720 0.590070
0.008989 -0.057082 0.011941 0.550920 -0.426893 -0.717063 0.757109 0.626270
-0.025528 -0.098342 0.015002 0.286416 -0.452101 -0.844691 0.894100 0.654540
-0.024684 -0.135880 0.048566 0.745933 -0.548601 -0.377575 0.936076 0.565704
-0.082414 -0.082211 0.008469 -0.221046 -0.136357 -0.965667 0.963945 0.892963
-0.100711 -0.071205 0.017457 -0.641285 0.242775 -0.727866 0.970203 0.982094
-0.080407 -0.049962 0.011017 -0.492294 0.323527 -0.808039 0.928039 0.969549
0.050502 0.005284 0.009120 0.800134 -0.515519 -0.306558 0.573141 0.624110
0.053625 0.008548 0.028163 0.880520 -0.395825 0.260720 0.563770 0.587680
0.086777 0.051774 0.007718 0.725730 -0.636860 0.260170 0.435511 0.601870
0.063030 0.026074 0.001161 0.655629 -0.581744 -0.481307 0.516921 0.625450
0.073622 0.048828 -0.006154 0.442091 -0.689261 -0.573931 0.455920 0.622257
0.062588 0.058539 -0.018440 -0.045412 -0.458327 -0.887600 0.462180 0.663670
0.045717 0.032308 -0.011490 0.121494 -0.368725 -0.921537 0.534848 0.690702
0.028037 0.055893 -0.011583 -0.446822 0.030335 -0.894101 0.537360 0.785940
0.046779 0.065495 -0.017207 -0.303995 -0.244148 -0.920835 0.484460 0.711190
0.068895 0.033324 0.018779 0.821406 -0.471297 0.321146 0.497300 0.593550
0.034158 0.080050 -0.013303 -0.758660 -0.150639 -0.633808 0.491340 0.772430
0.016955 0.071701 0.004583 -0.804529 0.557146 -0.205603 0.536530 0.818012
0.030087 0.109675 -0.039882 -0.785638 -0.393048 -0.477706 0.442490 0.810560
0.052997 0.078557 -0.025909 -0.260933 -0.503067 -0.823878 0.450460 0.714650
0.037569 0.123341 -0.053938 -0.438490 -0.383099 -0.812983 0.410010 0.816830
0.042691 0.152059 -0.068252 -0.356517 -0.420148 -0.834437 0.349380 0.855820
0.047565 0.133305 -0.058833 0.182470 -0.318674 -0.930113 0.373890 0.809190
0.062351 0.140813 -0.052413 0.540544 0.148961 -0.827998 0.331610 0.786970
0.058327 0.158191 -0.063550 0.865261 -0.418867 -0.275399 0.307721 0.837801
0.057856 0.172224 -0.057044 0.485885 0.470901 0.736290 0.297906 0.831523
0.042691 0.152059 -0.068252 -0.356517 -0.420148 -0.834437 0.319714 0.849451
0.056886 0.160243 -0.077181 0.384594 -0.712882 -0.586383 0.302102 0.842047
0.058327 0.158191 -0.063550 0.865261 -0.418867 -0.275399 0.286889 0.843306
0.072808 0.184492 -0.072316 0.904080 0.352794 0.241035 0.257003 0.877169
0.056886 0.160243 -0.077181 0.384594 -0.712882 -0.586383 0.305477 0.856494
0.063223 0.182179 -0.090410 0.452712 0.003784 -0.891629 0.270710 0.887400
0.053192 0.175399 -0.085858 -0.549455 -0.283029 -0.786096 0.298639 0.885778
0.042691 0.152059 -0.068252 -0.356517 -0.420148 -0.834437 0.336759 0.863565
0.027156 0.132034 -0.044410 -0.964263 0.012604 -0.264595 0.415793 0.851809
0.053360 0.187479 -0.088072 -0.614277 0.521683 -0.591998 0.282632 0.904939
0.060302 0.192927 -0.081476 0.005860 0.998016 -0.062410 0.268112 0.906565
0.062351 0.140813 -0.052413 0.540544 0.148961 -0.827998 0.329190 0.784830
0.068440 0.125515 -0.051968 0.419660 -0.044435 -0.906583 0.344030 0.750640
0.084341 0.139434 -0.041774 0.133610 -0.098148 -0.986145 0.288930 0.734470
0.061518 0.163416 -0.042216 -0.599200 0.348064 -0.720939 0.295840 0.820350
0.071425 0.178549 -0.047528 -0.765007 0.283731 -0.578082 0.250100 0.818029
0.075682 0.164293 -0.050078 -0.272164 -0.194800 -0.942289 0.266450 0.791830
0.075682 0.164293 -0.050078 -0.272164 -0.194800 -0.942289 0.273470 0.776000
0.071762 0.101566 -0.046670 0.242164 -0.454787 -0.857021 0.374767 0.709924
0.092476 0.115191 -0.037228 0.007416 -0.105411 -0.994385 0.311310 0.679780
0.081658 0.092457 -0.033262 -0.017273 -0.396039 -0.918058 0.369880 0.669890
0.111719 0.093231 -0.044626 -0.115452 -0.223334 -0.967864 0.306530 0.603540
0.101997 0.072748 -0.035315 0.064394 -0.621906 -0.780389 0.357290 0.597774
0.082305 0.055916 -0.017903 0.114963 -0.844081 -0.523698 0.424935 0.616345
0.099099 0.057013 -0.007341 0.564135 -0.824000 0.052583 0.392743 0.582936
0.121015 0.087146 -0.040796 0.345683 -0.567583 -0.747185 0.297580 0.574370
0.123985 0.080815 -0.028751 0.592029 -0.739067 -0.321268 0.301840 0.556970
0.117596 0.072557 -0.011385 0.692343 -0.623188 0.363689 0.329168 0.559598
0.135593 0.091315 -0.023447 0.830134 -0.526200 0.184149 0.261680 0.547960
0.138591 0.105820 -0.044894 0.419172 -0.581408 -0.697287 0.231540 0.563650
0.127937 0.112370 -0.047717 -0.050600 -0.217994 -0.974609 0.243160 0.595480
0.105390 0.164927 -0.048647 -0.218207 -0.004791 -0.975860 0.259600 0.732880
0.062351 0.140813 -0.052413 0.540544 0.148961 -0.827998 0.318930 0.812548
0.044423 0.153834 -0.031511 -0.528428 0.773522 0.349834 0.301720 0.824680
0.061518 0.163416 -0.042216 -0.599200 0.348064 -0.720939 0.316160 0.818176
0.153810 0.117798 -0.036576 0.894040 -0.390515 0.219428 0.204756 0.548310
0.124840 0.127607 -0.048888 -0.156133 -0.027741 -0.987335 0.225220 0.625490
0.092476 0.115191 -0.037228 0.007416 -0.105411 -0.994385 0.262670 0.665250
0.117201 0.153157 -0.050385 0.070070 0.235786 -0.969268 0.200900 0.681330
0.161981 0.135046 -0.058897 0.345592 -0.712363 -0.610797 0.205510 0.554570
0.143106 0.121599 -0.052573 -0.161748 -0.238166 -0.957640 0.196590 0.574980
0.130922 0.148996 -0.049236 0.116520 -0.209235 -0.970885 0.179280 0.644260
0.136199 0.134354 -0.047431 -0.131596 0.370190 -0.919553 0.190281 0.610355
0.143992 0.185383 -0.050780 -0.503769 0.821467 0.267098 0.151250 0.671000
0.142136 0.176099 -0.060030 -0.792535 0.112705 -0.599292 0.111570 0.658070
0.124638 0.156789 -0.045934 -0.385479 0.583209 -0.714988 0.178405 0.669185
0.158775 0.167984 -0.066912 0.266305 -0.814264 -0.515763 0.089401 0.614255
0.159528 0.185589 -0.087068 -0.557329 -0.432203 -0.708884 0.063021 0.631922
0.149787 0.189905 -0.066389 -0.877407 0.389904 -0.279427 0.077689 0.659309
0.159469 0.205175 -0.086296 -0.601794 0.758538 -0.249794 0.032164 0.653374
0.169176 0.181754 -0.083665 0.503555 -0.710990 -0.490768 0.047225 0.608980
0.176435 0.206061 -0.092959 0.656728 0.637135 -0.403363 0.007966 0.628355
0.173943 0.185599 -0.072128 0.940825 -0.171117 0.292398 0.042490 0.600000
0.172181 0.192623 -0.094044 0.564959 -0.454787 -0.688437 0.024866 0.619390
0.159528 0.185589 -0.087068 -0.557329 -0.432203 -0.708884 0.058333 0.632730
0.165030 0.197703 -0.096221 -0.361217 0.060457 -0.930509 0.028538 0.636841
0.124638 0.156789 -0.045934 -0.385479 0.583209 -0.714988 0.181247 0.669140
0.119302 0.159993 -0.038419 0.891842 0.380688 -0.244179 0.182900 0.687000
0.113399 0.161450 -0.048360 0.391278 -0.108676 -0.913816 0.194766 0.703056
0.105390 0.164927 -0.048647 -0.218207 -0.004791 -0.975860 0.205070 0.725670
0.088707 0.170507 -0.052685 0.130833 -0.272896 -0.953093 0.230999 0.772807
0.084341 0.139434 -0.041774 0.133610 -0.098148 -0.986145 0.260430 0.698770
0.098148 0.196258 -0.065280 -0.021088 -0.550432 -0.834590 0.169760 0.791210
0.108636 0.198062 -0.055260 0.766167 -0.610309 -0.201147 0.148075 0.768006
0.086585 0.204852 -0.059950 -0.849727 0.295907 -0.436293 0.176753 0.823046
0.119937 0.214998 -0.077291 0.422346 -0.759728 -0.494339 0.094384 0.772592
0.086585 0.204852 -0.059950 -0.849727 0.295907 -0.436293 0.172969 0.822403
0.104757 0.218252 -0.078397 -0.470504 -0.287729 -0.834132 0.119475 0.806425
0.098148 0.196258 -0.065280 -0.021088 -0.550432 -0.834590 0.167530 0.791000
0.118628 0.233243 -0.093343 -0.249763 0.040254 -0.967437 0.068000 0.797370
0.128282 0.241302 -0.088243 0.528001 0.805322 -0.269478 0.043946 0.784224
0.128568 0.225530 -0.090583 0.539079 -0.477248 -0.693960 0.062010 0.771769
0.131489 0.229080 -0.078973 0.961638 0.035493 0.271920 0.057647 0.763215
0.113825 0.239030 -0.086887 -0.552660 0.779443 -0.294961 0.071740 0.814150
0.104757 0.218252 -0.078397 -0.470504 -0.287729 -0.834132 0.113396 0.806480
0.126783 0.187924 -0.063450 -0.194830 -0.547960 -0.813471 0.123640 0.711560
0.097660 0.172552 -0.038978 0.447127 0.658864 -0.604907 0.207600 0.751920
0.114482 0.189459 -0.056148 -0.749352 0.130802 -0.649068 0.147190 0.741800
0.107971 0.190356 -0.041337 -0.775048 0.625507 0.089480 0.161290 0.754120
0.123289 0.206979 -0.059764 -0.754723 0.650319 -0.086337 0.100160 0.745330
0.127109 0.203192 -0.070575 -0.834925 0.019166 -0.550005 0.099430 0.733770
0.142189 0.190741 -0.063498 0.671773 -0.714438 -0.195593 0.092348 0.685197
0.135284 0.182073 -0.055424 0.644490 -0.706076 -0.293313 0.119930 0.686806
0.148253 0.221112 -0.104663 -0.191321 0.041444 -0.980621 0.025313 0.709884
0.144382 0.227473 -0.092417 -0.511002 0.845943 -0.152379 0.026020 0.727900
0.160456 0.213636 -0.093784 0.860500 -0.374615 -0.345195 0.020110 0.678290
0.154832 0.208689 -0.073607 0.920103 -0.004059 0.391583 0.052320 0.675130
0.156812 0.228266 -0.096983 0.586963 0.760552 -0.277474 0.004768 0.704040
0.142987 0.148360 -0.029221 0.888852 0.018891 0.457747 0.162840 0.613160
0.142930 0.139531 -0.026574 0.913083 0.193945 0.358654 0.168030 0.609880
0.150595 0.155065 -0.051764 0.595294 -0.764000 -0.248756 0.128281 0.611740
0.130922 0.148996 -0.049236 0.116520 -0.209235 -0.970885 0.177100 0.643890
0.151269 0.144841 -0.059879 -0.677816 0.022370 -0.734855 0.146100 0.591670
0.159537 0.159955 -0.060161 -0.764916 0.642384 -0.046815 0.117383 0.597700
0.161981 0.135046 -0.058897 0.345592 -0.712363 -0.610797 0.137991 0.550913
0.136199 0.134354 -0.047431 -0.131596 0.370190 -0.919553 0.170267 0.618432
0.164352 0.175030 -0.057553 0.905423 -0.305887 0.294259 0.075400 0.602490
0.156379 0.153996 -0.044803 0.051363 0.723777 0.688070 0.124200 0.603440
0.169176 0.181754 -0.083665 0.503555 -0.710990 -0.490768 0.055650 0.607740
0.156379 0.153996 -0.044803 0.051363 0.723777 0.688070 0.116410 0.602830
0.168610 0.169180 -0.067224 -0.211097 0.854549 0.474502 0.071290 0.596710
0.174312 0.176682 -0.080673 -0.298288 0.916105 -0.267800 0.046580 0.584910
0.159537 0.159955 -0.060161 -0.764916 0.642384 -0.046815 0.102401 0.594698
0.151269 0.144841 -0.059879 -0.677816 0.022370 -0.734855 0.134250 0.589370
0.172340 0.167574 -0.088145 -0.246834 0.134251 -0.959685 0.061920 0.574880
0.161018 0.147527 -0.070392 -0.456343 -0.495102 -0.739311 0.119270 0.573250
0.177914 0.152401 -0.078618 0.512162 -0.676656 -0.528916 0.076558 0.550459
0.184018 0.164838 -0.079932 0.940519 -0.125004 -0.315836 0.046470 0.549800
0.097660 0.172552 -0.038978 0.447127 0.658864 -0.604907 0.210540 0.264840
0.123196 0.202612 -0.044287 -0.172918 0.794855 0.581591 0.122720 0.274200
0.107971 0.190356 -0.041337 -0.775048 0.625507 0.089480 0.166593 0.267539
0.144382 0.227473 -0.092417 -0.511002 0.845943 -0.152379 0.036651 0.275151
0.141494 0.222353 -0.076623 -0.070620 0.911069 0.406110 0.053758 0.278100
0.156812 0.228266 -0.096983 0.586963 0.760552 -0.277474 0.033925 0.290432
0.141667 0.204766 -0.052178 0.644765 0.433302 0.629658 0.043468 0.298260
0.154832 0.208689 -0.073607 0.920103 -0.004059 0.391583 0.049561 0.321938
0.160456 0.213636 -0.093784 0.860500 -0.374615 -0.345195 0.025280 0.326291
0.156812 0.228266 -0.096983 0.586963 0.760552 -0.277474 0.010440 0.305130
0.154832 0.208689 -0.073607 0.920103 -0.004059 0.391583 0.048226 0.322009
0.184018 0.164838 -0.079932 0.940519 -0.125004 -0.315836 0.044750 0.458050
0.172340 0.167574 -0.088145 -0.246834 0.134251 -0.959685 0.035060 0.447515
0.182614 0.176064 -0.078900 0.675924 0.733573 -0.070406 0.036999 0.436733
0.172340 0.167574 -0.088145 -0.246834 0.134251 -0.959685 0.036470 0.432090
0.174312 0.176682 -0.080673 -0.298288 0.916105 -0.267800 0.043260 0.424780
0.168610 0.169180 -0.067224 -0.211097 0.854549 0.474502 0.067350 0.424040
0.156379 0.153996 -0.044803 0.051363 0.723777 0.688070 0.116650 0.420010
0.179213 0.165289 -0.068282 0.721335 0.306223 0.621174 0.085250 0.429680
0.177914 0.152401 -0.078618 0.512162 -0.676656 -0.528916 0.075080 0.466000
0.172189 0.146298 -0.056197 0.860530 -0.248543 0.444594 0.098560 0.464290
0.161981 0.135046 -0.058897 0.345592 -0.712363 -0.610797 0.116410 0.468430
0.153810 0.117798 -0.036576 0.894040 -0.390515 0.219428 0.173706 0.466822
0.156379 0.153996 -0.044803 0.051363 0.723777 0.688070 0.128690 0.429070
0.179213 0.165289 -0.068282 0.721335 0.306223 0.621174 0.058440 0.452240
0.184018 0.164838 -0.079932 0.940519 -0.125004 -0.315836 0.049275 0.450166
0.182614 0.176064 -0.078900 0.675924 0.733573 -0.070406 0.039630 0.437958
0.128282 0.241302 -0.088243 0.528001 0.805322 -0.269478 0.086230 0.212680
0.118713 0.224846 -0.062923 0.466414 0.536485 0.703269 0.102323 0.225356
0.113825 0.239030 -0.086887 -0.552660 0.779443 -0.294961 0.085630 0.194932
0.159469 0.205175 -0.086296 -0.601794 0.758538 -0.249794 0.036382 0.346078
0.176435 0.206061 -0.092959 0.656728 0.637135 -0.403363 0.016240 0.393960
0.176435 0.206061 -0.092959 0.656728 0.637135 -0.403363 0.007915 0.371467
0.159469 0.205175 -0.086296 -0.601794 0.758538 -0.249794 0.021672 0.354337
0.158948 0.201971 -0.073733 -0.183477 0.890164 0.416974 0.030040 0.353640
0.174433 0.195623 -0.077625 0.801996 0.406476 0.437635 0.019210 0.387510
0.119302 0.159993 -0.038419 0.891842 0.380688 -0.244179 0.182860 0.335000
-0.060966 -0.020698 0.016531 -0.640187 0.629536 -0.440230 0.841232 0.965642
-0.070686 -0.035330 0.013774 -0.587237 0.508744 -0.629505 0.884636 0.967596
-0.071377 -0.030421 0.019477 -0.679586 0.638600 -0.360973 0.879123 0.988764
-0.045510 -0.004979 0.018062 -0.686666 0.672781 -0.275277 0.790600 0.243710
-0.016803 0.022790 0.013630 -0.691397 0.552263 -0.465743 0.690605 0.252835
-0.008270 -0.077712 0.013472 0.408307 -0.403424 -0.818842 0.825605 0.640405
-0.047826 -0.060163 0.000722 -0.081271 -0.115329 -0.989990 0.877380 0.822860
-0.036677 -0.079253 0.007862 0.071841 -0.311319 -0.947569 0.885739 0.738700
-0.064116 -0.055063 0.005870 -0.272439 0.104343 -0.956481 0.902709 0.896205
0.036877 0.044100 -0.011536 -0.150670 -0.117038 -0.981628 0.536104 0.738321
0.012243 0.045367 -0.001958 -0.561296 0.201972 -0.802545 0.575925 0.816265
-0.003552 0.034842 0.007667 -0.696646 0.405408 -0.591845 0.614490 0.846590
0.029745 -0.025899 0.010530 0.690909 -0.494583 -0.527268 0.708175 0.630170
0.040124 -0.010307 0.009825 0.726218 -0.506821 -0.464431 0.683707 0.632120
0.050502 0.005284 0.009120 0.800134 -0.515519 -0.306558 0.659240 0.634070
0.019367 -0.041490 0.011236 0.622730 -0.471297 -0.624561 0.732642 0.628220
-0.055971 -0.057613 0.003296 -0.269814 0.098025 -0.957884 0.890044 0.859532
-0.023429 0.016765 0.016611 -0.686087 0.606220 -0.402142 0.712083 0.251742
3 0 1 2
3 1 3 4
3 4 5 6
3 5 7 6
3 8 9 10
3 7 11 8
3 11 12 8
3 8 12 9
3 11 13 12
3 13 11 14
3 14 11 15
3 15 5 16
3 11 7 15
3 7 5 15
3 17 18 19
3 19 18 20
3 21 18 17
3 20 22 23
3 22 24 23
3 18 25 20
3 25 22 20
3 26 27 28
3 28 27 29
3 26 30 27
3 31 27 30
3 32 29 27
3 27 31 32
3 31 33 32
3 34 35 32
3 33 34 32
3 34 33 36
3 34 19 35
3 19 20 35
3 37 17 34
3 17 19 34
3 37 34 36
3 38 17 37
3 29 39 40
3 29 41 39
3 32 35 29
3 35 42 29
3 29 42 41
3 42 43 41
3 42 20 43
3 43 20 23
3 23 24 44
3 35 20 42
3 41 43 45
3 43 44 45
3 43 23 44
3 46 39 45
3 39 41 45
3 46 40 39
3 1 47 2
3 2 47 48
3 1 49 47
3 47 50 51
3 52 53 51
3 54 52 50
3 52 54 55
3 55 56 57
3 57 58 59
3 54 60 55
3 60 56 55
3 56 58 57
3 58 61 59
3 60 6 56
3 56 6 58
3 60 4 6
3 6 7 58
3 58 7 61
3 7 8 61
3 8 62 61
3 63 61 62
3 61 63 59
3 63 64 59
3 47 49 65
3 47 65 50
3 49 66 65
3 65 66 50
3 66 54 50
3 66 60 54
3 4 60 66
3 1 4 49
3 52 51 50
3 63 10 64
3 64 10 67
3 63 62 10
3 62 8 10
3 16 5 3
3 5 4 3
3 68 69 16
3 16 69 70
3 16 70 15
3 15 70 14
3 68 71 72
3 71 1 73
3 16 3 71
3 71 3 1
3 68 16 71
3 4 66 49
3 74 22 25
3 75 76 77
3 75 78 76
3 79 80 81
3 79 82 78
3 75 83 84
3 85 77 86
3 87 84 86
3 87 86 88
3 89 86 90
3 89 91 92
3 93 94 95
3 93 96 97
3 93 97 98
3 99 98 97
3 99 97 100
3 99 101 102
3 103 100 104
3 103 104 105
3 106 104 107
3 108 104 109
3 110 109 111
3 112 113 111
3 114 115 116
3 114 117 118
3 114 118 119
3 120 118 121
3 122 123 124
3 125 121 124
3 125 124 126
3 125 127 128
3 129 126 130
3 129 130 131
3 132 130 133
3 134 130 135
3 134 136 137
3 138 136 139
3 140 135 141
3 142 139 141
3 142 141 143
3 142 144 145
3 142 143 144
3 146 144 147
3 148 145 149
3 148 149 150
3 151 150 152
3 153 147 152
3 154 155 152
3 154 152 156
3 154 82 157
3 158 90 159
3 160 92 159
3 161 162 159
3 161 159 163
3 164 165 166
3 164 166 96
3 164 95 94
3 167 168 111
3 167 107 116
3 169 170 171
3 170 169 172
3 173 174 175
3 175 174 176
3 174 177 176
3 176 177 178
3 177 179 178
3 179 180 181
3 177 180 179
3 182 181 180
3 182 183 181
3 181 184 185
3 184 186 185
3 184 187 186
3 187 188 189
3 190 191 188
3 188 191 192
3 192 193 194
3 191 195 192
3 195 193 192
3 195 196 193
3 193 196 197
3 196 198 199
3 196 200 198
3 198 200 201
3 202 203 200
3 200 203 201
3 203 204 205
3 203 206 204
3 201 207 198
3 208 199 198
3 209 207 210
3 181 185 179
3 185 211 179
3 212 171 170
3 203 202 213
3 194 189 188
3 194 188 192
3 202 214 213
3 214 195 191
3 200 195 214
3 200 196 195
3 214 202 200
3 214 215 216
3 215 217 218
3 217 219 218
3 217 220 221
3 217 222 220
3 220 183 223
3 183 190 188
3 188 187 183
3 183 187 184
3 222 215 190
3 190 183 222
3 222 183 220
3 184 181 183
3 223 224 225
3 183 182 223
3 223 182 224
3 182 226 224
3 224 226 227
3 226 228 227
3 228 229 230
3 231 232 229
3 229 232 230
3 214 191 215
3 191 190 215
3 217 215 222
3 233 234 235
3 234 236 235
3 236 237 235
3 238 239 237
3 239 238 240
3 241 242 243
3 244 242 241
3 244 245 242
3 219 243 242
3 217 221 243
3 221 235 243
3 221 225 235
3 237 239 235
3 220 223 225
3 246 247 244
3 246 248 249
3 250 246 251
3 246 241 252
3 243 235 241
3 235 239 241
3 246 253 248
3 254 255 256
3 256 255 253
3 254 257 255
3 225 258 233
3 225 221 220
3 224 259 225
3 225 259 258
3 259 224 227
3 227 228 230
3 225 233 235
3 246 244 241
3 215 218 260
3 260 261 262
3 262 263 264
3 262 264 265
3 264 216 265
3 265 216 215
3 260 265 215
3 260 262 265
3 216 264 266
3 216 266 214
3 218 219 267
3 267 219 268
3 219 245 268
3 268 245 269
3 245 270 269
3 271 272 273
3 274 270 275
3 270 276 275
3 270 245 276
3 276 245 277
3 245 244 277
3 218 267 260
3 278 267 279
3 278 260 267
3 280 260 278
3 280 261 260
3 281 279 282
3 282 279 283
3 284 285 280
3 285 286 280
3 280 286 287
3 286 263 287
3 281 282 284
3 288 241 239
3 289 290 241
3 288 291 289
3 291 254 289
3 289 254 290
3 278 281 280
3 281 278 279
3 217 243 219
3 219 242 245
3 229 228 292
3 292 228 226
3 226 182 293
3 182 180 294
3 295 296 297
3 298 299 297
3 300 301 302
3 301 303 304
3 304 303 305
3 303 306 305
3 303 307 306
3 307 308 306
3 309 307 310
3 307 303 310
3 261 280 262
3 262 280 287
3 311 312 313
3 306 314 315
3 316 317 318
3 317 319 318
3 317 320 319
3 319 321 322
3 317 323 314
3 323 315 314
3 323 317 316
3 322 321 324
3 321 325 324
3 326 327 324
3 327 326 328
3 328 329 330
3 330 329 331
3 332 333 331
3 329 332 331
3 334 335 332
3 336 337 333
3 336 338 337
3 338 339 337
3 338 340 339
3 341 340 338
3 329 328 342
3 343 344 339
3 339 344 337
3 330 345 346
3 345 347 346
3 345 348 347
3 348 349 350
3 351 347 348
3 347 352 346
3 347 353 352
3 353 354 352
3 354 319 327
3 355 356 354
3 354 356 319
3 319 356 357
3 356 358 357
3 355 359 356
3 359 360 356
3 360 358 356
3 360 361 358
3 361 360 362
3 360 363 362
3 360 359 363
3 355 364 359
3 353 355 354
3 328 330 352
3 330 346 352
3 327 322 324
3 327 319 322
3 319 357 318
3 357 316 318
3 357 358 316
3 365 347 350
3 328 326 342
3 328 352 327
3 366 367 368
3 362 363 369
3 359 364 363
3 364 355 370
3 355 371 370
3 370 371 372
3 369 363 373
3 363 364 374
3 364 370 374
3 370 372 375
3 373 363 374
3 370 375 376
3 377 378 379
3 379 378 375
3 378 380 375
3 380 378 381
3 378 382 381
3 382 383 381
3 384 385 386
3 384 387 385
3 388 387 384
3 387 389 385
3 388 389 387
3 389 381 383
3 383 385 389
3 375 372 390
3 379 372 391
3 372 392 391
3 393 350 394
3 349 394 350
3 393 372 395
3 372 371 395
3 394 396 397
3 394 398 396
3 396 399 397
3 400 401 402
3 401 399 402
3 403 404 405
3 405 404 406
3 404 403 407
3 398 394 349
3 408 407 403
3 408 400 407
3 397 399 406
3 405 406 399
3 372 393 392
3 393 409 392
3 410 411 393
3 393 411 409
3 410 412 411
3 412 413 411
3 411 413 414
3 411 414 409
3 415 416 409
3 409 416 392
3 416 391 392
3 414 413 417
3 413 418 417
3 417 409 414
3 419 415 409
3 420 415 419
3 409 417 419
3 418 421 417
3 419 417 421
3 315 305 306
3 422 423 424
3 423 425 424
3 376 426 374
3 423 427 376
3 376 427 426
3 374 426 428
3 425 423 429
3 424 380 430
3 424 425 380
3 427 423 431
3 430 380 386
3 380 432 386
3 380 381 432
3 376 374 370
3 433 434 427
3 427 434 435
3 436 435 437
3 437 435 438
3 439 437 438
3 438 440 439
3 428 439 440
3 428 437 439
3 440 438 441
3 401 403 399
3 399 403 405
3 263 262 287
3 442 267 268
3 268 443 444
3 273 444 443
3 268 269 443
3 268 444 442
3 273 272 445
3 446 447 445
3 448 447 446
3 448 449 447
3 449 450 451
3 452 274 275
3 453 454 455
3 272 271 274
3 456 457 455
3 458 459 460
3 461 462 463
3 462 464 463
3 465 464 462
3 240 464 465
3 462 453 466
3 462 461 453
3 460 459 462
3 303 301 310
3 410 393 394
3 299 467 468
3 285 469 286
3 470 284 469
3 469 471 286
3 253 472 248
3 257 473 255
3 474 475 476
3 476 477 474
3 471 263 286
3 288 289 241
3 478 244 247
3 240 288 239
3 284 280 281
3 343 339 340
3 327 352 354
3 479 480 481
3 480 313 481
3 211 482 179
3 482 178 179
3 186 483 185
3 309 484 307
3 484 308 307
3 485 486 311
3 486 309 311
3 313 487 311
3 320 488 319
3 488 321 319
3 321 489 325
3 489 490 325
3 491 492 306
3 492 493 306
3 308 494 306
3 494 491 306
3 487 495 311
3 495 485 311
3 483 496 185
3 496 211 185
